<svg version="1.1" viewBox="0.0 0.0 1154.7769028871392 198.88976377952756" fill="none" stroke="none" stroke-linecap="square" stroke-miterlimit="10" xmlns:xlink="http://www.w3.org/1999/xlink" xmlns="http://www.w3.org/2000/svg"><clipPath id="p.0"><path d="m0 0l1154.7769 0l0 198.88977l-1154.7769 0l0 -198.88977z" clip-rule="nonzero"/></clipPath><g clip-path="url(#p.0)"><path fill="#000000" fill-opacity="0.0" d="m0 0l1154.7769 0l0 198.88977l-1154.7769 0z" fill-rule="evenodd"/><path fill="#000000" fill-opacity="0.0" d="m6.8792653 64.08399l53.133858 0l0 106.64567l-53.133858 0z" fill-rule="evenodd"/><path fill="#000000" d="m22.14489 142.20398l0 -32.421867l-5.59375 0l0 -4.921875l5.59375 0l0 -3.96875q0 -3.765625 0.65625 -5.59375q0.921875 -2.453125 3.21875 -3.984375q2.3125 -1.53125 6.453125 -1.53125q2.671875 0 5.90625 0.640625l-0.953125 5.515625q-1.96875 -0.359375 -3.71875 -0.359375q-2.890625 0 -4.09375 1.234375q-1.1875 1.234375 -1.1875 4.609375l0 3.4375l7.28125 0l0 4.921875l-7.28125 0l0 32.421867l-6.28125 0z" fill-rule="nonzero"/><path fill="#cfe2f3" d="m70.64042 85.10761l196.09448 0l0 59.748024l-196.09448 0z" fill-rule="evenodd"/><path stroke="#000000" stroke-width="1.0" stroke-linejoin="round" stroke-linecap="butt" d="m70.64042 85.10761l196.09448 0l0 59.748024l-196.09448 0z" fill-rule="evenodd"/><path fill="#cfe2f3" d="m266.7349 85.10761l445.76376 0l0 59.748024l-445.76376 0z" fill-rule="evenodd"/><path stroke="#000000" stroke-width="1.0" stroke-linejoin="round" stroke-linecap="butt" d="m266.7349 85.10761l445.76376 0l0 59.748024l-445.76376 0z" fill-rule="evenodd"/><path fill="#000000" fill-opacity="0.0" d="m87.490814 92.7664l160.85039 0l0 42.015747l-160.85039 0z" fill-rule="evenodd"/><path fill="#000000" d="m106.397064 114.78015l2.609375 0.828125q-0.59375 2.1875 -2.0 3.25q-1.390625 1.0625 -3.546875 1.0625q-2.65625 0 -4.375 -1.8125q-1.703125 -1.828125 -1.703125 -4.984375q0 -3.328125 1.71875 -5.171875q1.71875 -1.84375 4.515625 -1.84375q2.453125 0 3.984375 1.4375q0.921875 0.859375 1.375 2.46875l-2.671875 0.640625q-0.234375 -1.046875 -0.984375 -1.640625q-0.75 -0.609375 -1.828125 -0.609375q-1.484375 0 -2.421875 1.078125q-0.921875 1.0625 -0.921875 3.4375q0 2.53125 0.90625 3.609375q0.921875 1.078125 2.375 1.078125q1.078125 0 1.84375 -0.671875q0.78125 -0.6875 1.125 -2.15625zm7.457321 -8.453125l0 4.921875q1.234375 -1.453125 2.953125 -1.453125q0.890625 0 1.59375 0.328125q0.71875 0.328125 1.078125 0.84375q0.359375 0.5 0.484375 1.125q0.140625 0.609375 0.140625 1.921875l0 5.671875l-2.5625 0l0 -5.109375q0 -1.515625 -0.15625 -1.921875q-0.140625 -0.421875 -0.515625 -0.65625q-0.359375 -0.25 -0.90625 -0.25q-0.640625 0 -1.140625 0.3125q-0.5 0.3125 -0.734375 0.9375q-0.234375 0.625 -0.234375 1.84375l0 4.84375l-2.5625 0l0 -13.359375l2.5625 0zm11.302231 13.359375l-2.5625 0l0 -9.671875l2.375 0l0 1.375q0.609375 -0.984375 1.09375 -1.28125q0.484375 -0.3125 1.109375 -0.3125q0.875 0 1.6875 0.484375l-0.796875 2.234375q-0.640625 -0.421875 -1.203125 -0.421875q-0.53125 0 -0.90625 0.296875q-0.375 0.296875 -0.59375 1.078125q-0.203125 0.765625 -0.203125 3.234375l0 2.984375zm4.213394 -4.96875q0 -1.28125 0.625 -2.46875q0.625 -1.203125 1.78125 -1.828125q1.15625 -0.625 2.578125 -0.625q2.1875 0 3.59375 1.421875q1.40625 1.421875 1.40625 3.609375q0 2.1875 -1.421875 3.640625q-1.421875 1.4375 -3.5625 1.4375q-1.328125 0 -2.546875 -0.59375q-1.203125 -0.609375 -1.828125 -1.765625q-0.625 -1.171875 -0.625 -2.828125zm2.625 0.125q0 1.453125 0.671875 2.21875q0.6875 0.75 1.6875 0.75q1.0 0 1.671875 -0.75q0.6875 -0.765625 0.6875 -2.234375q0 -1.421875 -0.6875 -2.1875q-0.671875 -0.765625 -1.671875 -0.765625q-1.0 0 -1.6875 0.765625q-0.671875 0.765625 -0.671875 2.203125zm9.161606 -4.828125l2.359375 0l0 1.3125q1.265625 -1.53125 3.015625 -1.53125q0.9375 0 1.609375 0.390625q0.6875 0.375 1.125 1.140625q0.640625 -0.765625 1.375 -1.140625q0.75 -0.390625 1.578125 -0.390625q1.0625 0 1.796875 0.4375q0.75 0.421875 1.109375 1.265625q0.265625 0.625 0.265625 2.0l0 6.1875l-2.5625 0l0 -5.53125q0 -1.4375 -0.265625 -1.859375q-0.34375 -0.546875 -1.09375 -0.546875q-0.53125 0 -1.015625 0.328125q-0.46875 0.328125 -0.671875 0.96875q-0.203125 0.625 -0.203125 2.0l0 4.640625l-2.5625 0l0 -5.296875q0 -1.421875 -0.140625 -1.828125q-0.140625 -0.40625 -0.421875 -0.609375q-0.28125 -0.203125 -0.78125 -0.203125q-0.59375 0 -1.0625 0.328125q-0.46875 0.3125 -0.6875 0.921875q-0.203125 0.59375 -0.203125 1.984375l0 4.703125l-2.5625 0l0 -9.671875zm16.19777 4.703125q0 -1.28125 0.625 -2.46875q0.625 -1.203125 1.78125 -1.828125q1.15625 -0.625 2.578125 -0.625q2.1875 0 3.59375 1.421875q1.40625 1.421875 1.40625 3.609375q0 2.1875 -1.421875 3.640625q-1.421875 1.4375 -3.5625 1.4375q-1.328125 0 -2.546875 -0.59375q-1.203125 -0.609375 -1.828125 -1.765625q-0.625 -1.171875 -0.625 -2.828125zm2.625 0.125q0 1.453125 0.671875 2.21875q0.6875 0.75 1.6875 0.75q1.0 0 1.671875 -0.75q0.6875 -0.765625 0.6875 -2.234375q0 -1.421875 -0.6875 -2.1875q-0.671875 -0.765625 -1.671875 -0.765625q-1.0 0 -1.6875 0.765625q-0.671875 0.765625 -0.671875 2.203125zm8.458481 2.078125l2.5625 -0.390625q0.171875 0.75 0.671875 1.140625q0.5 0.390625 1.40625 0.390625q0.984375 0 1.484375 -0.375q0.34375 -0.25 0.34375 -0.671875q0 -0.296875 -0.1875 -0.484375q-0.1875 -0.1875 -0.859375 -0.34375q-3.09375 -0.6875 -3.921875 -1.25q-1.140625 -0.78125 -1.140625 -2.171875q0 -1.265625 0.984375 -2.109375q1.0 -0.859375 3.078125 -0.859375q1.984375 0 2.953125 0.65625q0.96875 0.640625 1.328125 1.90625l-2.40625 0.4375q-0.15625 -0.5625 -0.59375 -0.859375q-0.421875 -0.296875 -1.234375 -0.296875q-1.0 0 -1.4375 0.28125q-0.296875 0.203125 -0.296875 0.515625q0 0.265625 0.25 0.46875q0.34375 0.25 2.390625 0.71875q2.046875 0.453125 2.859375 1.140625q0.796875 0.671875 0.796875 1.890625q0 1.34375 -1.109375 2.296875q-1.109375 0.953125 -3.28125 0.953125q-1.984375 0 -3.140625 -0.796875q-1.140625 -0.8125 -1.5 -2.1875zm10.688217 -2.203125q0 -1.28125 0.625 -2.46875q0.625 -1.203125 1.78125 -1.828125q1.15625 -0.625 2.578125 -0.625q2.1875 0 3.59375 1.421875q1.40625 1.421875 1.40625 3.609375q0 2.1875 -1.421875 3.640625q-1.421875 1.4375 -3.5625 1.4375q-1.328125 0 -2.546875 -0.59375q-1.203125 -0.609375 -1.828125 -1.765625q-0.625 -1.171875 -0.625 -2.828125zm2.625 0.125q0 1.453125 0.671875 2.21875q0.6875 0.75 1.6875 0.75q1.0 0 1.671875 -0.75q0.6875 -0.765625 0.6875 -2.234375q0 -1.421875 -0.6875 -2.1875q-0.671875 -0.765625 -1.671875 -0.765625q-1.0 0 -1.6875 0.765625q-0.671875 0.765625 -0.671875 2.203125zm9.161606 -4.828125l2.359375 0l0 1.3125q1.265625 -1.53125 3.015625 -1.53125q0.9375 0 1.609375 0.390625q0.6875 0.375 1.125 1.140625q0.640625 -0.765625 1.375 -1.140625q0.75 -0.390625 1.578125 -0.390625q1.0625 0 1.796875 0.4375q0.75 0.421875 1.109375 1.265625q0.265625 0.625 0.265625 2.0l0 6.1875l-2.5625 0l0 -5.53125q0 -1.4375 -0.265625 -1.859375q-0.34375 -0.546875 -1.09375 -0.546875q-0.53125 0 -1.015625 0.328125q-0.46875 0.328125 -0.671875 0.96875q-0.203125 0.625 -0.203125 2.0l0 4.640625l-2.5625 0l0 -5.296875q0 -1.421875 -0.140625 -1.828125q-0.140625 -0.40625 -0.421875 -0.609375q-0.28125 -0.203125 -0.78125 -0.203125q-0.59375 0 -1.0625 0.328125q-0.46875 0.3125 -0.6875 0.921875q-0.203125 0.59375 -0.203125 1.984375l0 4.703125l-2.5625 0l0 -9.671875zm22.38527 6.59375l2.546875 0.421875q-0.484375 1.40625 -1.546875 2.140625q-1.0625 0.734375 -2.65625 0.734375q-2.515625 0 -3.734375 -1.65625q-0.953125 -1.3125 -0.953125 -3.328125q0 -2.40625 1.25 -3.765625q1.265625 -1.359375 3.1875 -1.359375q2.15625 0 3.40625 1.421875q1.25 1.421875 1.1875 4.375l-6.40625 0q0.03125 1.140625 0.609375 1.78125q0.59375 0.625 1.484375 0.625q0.59375 0 1.0 -0.328125q0.421875 -0.328125 0.625 -1.0625zm0.15625 -2.59375q-0.03125 -1.109375 -0.578125 -1.6875q-0.546875 -0.578125 -1.328125 -0.578125q-0.84375 0 -1.390625 0.609375q-0.546875 0.609375 -0.53125 1.65625l3.828125 0z" fill-rule="nonzero"/><path fill="#000000" fill-opacity="0.0" d="m282.93176 93.973755l417.25983 0l0 46.866135l-417.25983 0z" fill-rule="evenodd"/><path fill="#000000" d="m397.09058 123.155624l0 1.578125l-8.828125 0q-0.015625 -0.59375 0.1875 -1.140625q0.34375 -0.90625 1.078125 -1.78125q0.75 -0.875 2.15625 -2.015625q2.171875 -1.78125 2.9375 -2.828125q0.765625 -1.046875 0.765625 -1.96875q0 -0.984375 -0.703125 -1.640625q-0.6875 -0.671875 -1.8125 -0.671875q-1.1875 0 -1.90625 0.71875q-0.703125 0.703125 -0.703125 1.953125l-1.6875 -0.171875q0.171875 -1.890625 1.296875 -2.875q1.140625 -0.984375 3.03125 -0.984375q1.921875 0 3.046875 1.0625q1.125 1.0625 1.125 2.640625q0 0.796875 -0.328125 1.578125q-0.328125 0.78125 -1.09375 1.640625q-0.75 0.84375 -2.53125 2.34375q-1.46875 1.234375 -1.890625 1.6875q-0.421875 0.4375 -0.6875 0.875l6.546875 0z" fill-rule="nonzero"/><path fill="#000000" d="m405.2121 129.49937l0 -21.265625l2.453125 0l0 21.265625l-2.453125 0z" fill-rule="nonzero"/><path fill="#000000" d="m421.92374 124.73375l0 -3.203125l-5.796875 0l0 -1.5l6.09375 -8.65625l1.34375 0l0 8.65625l1.796875 0l0 1.5l-1.796875 0l0 3.203125l-1.640625 0zm0 -4.703125l0 -6.015625l-4.1875 6.015625l4.1875 0z" fill-rule="nonzero"/><path fill="#000000" d="m433.40463 129.49937l0 -21.265625l2.453125 0l0 21.265625l-2.453125 0z" fill-rule="nonzero"/><path fill="#000000" d="m451.03815 124.73375l-1.640625 0l0 -10.453125q-0.59375 0.5625 -1.5625 1.140625q-0.953125 0.5625 -1.71875 0.84375l0 -1.59375q1.375 -0.640625 2.40625 -1.5625q1.03125 -0.921875 1.453125 -1.78125l1.0625 0l0 13.40625z" fill-rule="nonzero"/><path fill="#000000" d="m461.59717 129.49937l0 -21.265625l2.453125 0l0 21.265625l-2.453125 0z" fill-rule="nonzero"/><path fill="#000000" d="m475.57443 117.499374q-1.015625 -0.375 -1.515625 -1.0625q-0.484375 -0.703125 -0.484375 -1.671875q0 -1.453125 1.046875 -2.4375q1.046875 -1.0 2.78125 -1.0q1.75 0 2.8125 1.015625q1.078125 1.015625 1.078125 2.46875q0 0.9375 -0.5 1.625q-0.484375 0.6875 -1.46875 1.0625q1.21875 0.390625 1.859375 1.28125q0.65625 0.890625 0.65625 2.140625q0 1.703125 -1.21875 2.875q-1.21875 1.171875 -3.1875 1.171875q-1.984375 0 -3.203125 -1.171875q-1.203125 -1.171875 -1.203125 -2.921875q0 -1.3125 0.65625 -2.1875q0.671875 -0.875 1.890625 -1.1875zm-0.328125 -2.78125q0 0.9375 0.609375 1.546875q0.609375 0.59375 1.59375 0.59375q0.9375 0 1.546875 -0.59375q0.609375 -0.59375 0.609375 -1.453125q0 -0.90625 -0.625 -1.515625q-0.625 -0.625 -1.5625 -0.625q-0.9375 0 -1.5625 0.609375q-0.609375 0.59375 -0.609375 1.4375zm-0.53125 6.15625q0 0.703125 0.328125 1.359375q0.34375 0.65625 1.0 1.015625q0.65625 0.359375 1.40625 0.359375q1.171875 0 1.9375 -0.75q0.765625 -0.75 0.765625 -1.921875q0 -1.1875 -0.796875 -1.953125q-0.78125 -0.78125 -1.953125 -0.78125q-1.15625 0 -1.921875 0.765625q-0.765625 0.765625 -0.765625 1.90625z" fill-rule="nonzero"/><path fill="#000000" d="m489.7897 129.49937l0 -21.265625l2.453125 0l0 21.265625l-2.453125 0z" fill-rule="nonzero"/><path fill="#000000" d="m501.25134 121.2025l1.640625 -0.21875q0.28125 1.40625 0.953125 2.015625q0.6875 0.609375 1.65625 0.609375q1.15625 0 1.953125 -0.796875q0.796875 -0.796875 0.796875 -1.984375q0 -1.125 -0.734375 -1.859375q-0.734375 -0.734375 -1.875 -0.734375q-0.46875 0 -1.15625 0.171875l0.1875 -1.4375q0.15625 0.015625 0.265625 0.015625q1.046875 0 1.875 -0.546875q0.84375 -0.546875 0.84375 -1.671875q0 -0.90625 -0.609375 -1.5q-0.609375 -0.59375 -1.578125 -0.59375q-0.953125 0 -1.59375 0.609375q-0.640625 0.59375 -0.8125 1.796875l-1.640625 -0.296875q0.296875 -1.640625 1.359375 -2.546875q1.0625 -0.90625 2.65625 -0.90625q1.09375 0 2.0 0.46875q0.921875 0.46875 1.40625 1.28125q0.5 0.8125 0.5 1.71875q0 0.859375 -0.46875 1.578125q-0.46875 0.703125 -1.375 1.125q1.1875 0.28125 1.84375 1.140625q0.65625 0.859375 0.65625 2.15625q0 1.734375 -1.28125 2.953125q-1.265625 1.21875 -3.21875 1.21875q-1.765625 0 -2.921875 -1.046875q-1.15625 -1.046875 -1.328125 -2.71875z" fill-rule="nonzero"/><path fill="#000000" d="m517.98224 129.49937l0 -21.265625l2.453125 0l0 21.265625l-2.453125 0z" fill-rule="nonzero"/><path fill="#000000" d="m529.44385 121.23375l1.71875 -0.140625q0.1875 1.25 0.875 1.890625q0.703125 0.625 1.6875 0.625q1.1875 0 2.0 -0.890625q0.828125 -0.890625 0.828125 -2.359375q0 -1.40625 -0.796875 -2.21875q-0.78125 -0.8125 -2.0625 -0.8125q-0.78125 0 -1.421875 0.359375q-0.640625 0.359375 -1.0 0.9375l-1.546875 -0.203125l1.296875 -6.859375l6.640625 0l0 1.5625l-5.328125 0l-0.71875 3.59375q1.203125 -0.84375 2.515625 -0.84375q1.75 0 2.953125 1.21875q1.203125 1.203125 1.203125 3.109375q0 1.8125 -1.046875 3.140625q-1.296875 1.625 -3.515625 1.625q-1.8125 0 -2.96875 -1.015625q-1.15625 -1.03125 -1.3125 -2.71875z" fill-rule="nonzero"/><path fill="#000000" d="m546.17474 129.49937l0 -21.265625l2.453125 0l0 21.265625l-2.453125 0z" fill-rule="nonzero"/><path fill="#000000" d="m557.7458 113.124374l0 -1.578125l8.640625 0l0 1.28125q-1.28125 1.359375 -2.53125 3.609375q-1.25 2.25 -1.9375 4.625q-0.484375 1.671875 -0.625 3.671875l-1.6875 0q0.03125 -1.578125 0.625 -3.8125q0.59375 -2.234375 1.6875 -4.296875q1.109375 -2.078125 2.359375 -3.5l-6.53125 0z" fill-rule="nonzero"/><path fill="#000000" d="m574.3673 129.49937l0 -21.265625l2.453125 0l0 21.265625l-2.453125 0z" fill-rule="nonzero"/><path fill="#000000" d="m594.3289 114.655624l-1.625 0.125q-0.21875 -0.96875 -0.625 -1.40625q-0.65625 -0.703125 -1.640625 -0.703125q-0.78125 0 -1.375 0.4375q-0.765625 0.5625 -1.21875 1.65625q-0.453125 1.078125 -0.46875 3.078125q0.59375 -0.890625 1.453125 -1.328125q0.859375 -0.4375 1.796875 -0.4375q1.640625 0 2.78125 1.203125q1.15625 1.203125 1.15625 3.109375q0 1.265625 -0.546875 2.34375q-0.53125 1.078125 -1.484375 1.65625q-0.9375 0.578125 -2.140625 0.578125q-2.0625 0 -3.359375 -1.5q-1.28125 -1.515625 -1.28125 -4.984375q0 -3.875 1.421875 -5.625q1.25 -1.53125 3.375 -1.53125q1.5625 0 2.5625 0.890625q1.015625 0.875 1.21875 2.4375zm-6.6875 5.75q0 0.84375 0.359375 1.625q0.359375 0.765625 1.0 1.171875q0.640625 0.40625 1.359375 0.40625q1.03125 0 1.78125 -0.828125q0.75 -0.84375 0.75 -2.28125q0 -1.390625 -0.734375 -2.1875q-0.734375 -0.796875 -1.859375 -0.796875q-1.109375 0 -1.890625 0.796875q-0.765625 0.796875 -0.765625 2.09375z" fill-rule="nonzero"/><path fill="#000000" fill-opacity="0.0" d="m51.51706 73.93474l0 0c0 -9.781868 7.9297714 -17.71164 17.71164 -17.71164l650.08856 0c4.6973877 0 9.202393 1.8660393 12.523987 5.1876183c3.3215942 3.3215752 5.187622 7.826603 5.187622 12.524021l0 70.84444c0 9.78186 -7.9297485 17.71164 -17.711609 17.71164l-650.08856 0c-9.781868 0 -17.71164 -7.929779 -17.71164 -17.71164z" fill-rule="evenodd"/><path fill="#000000" fill-opacity="0.0" d="m69.2287 162.49081c-9.781868 0 -17.71164 -7.929779 -17.71164 -17.71164l0 -70.84444l0 0c0 -9.781868 7.9297714 -17.71164 17.71164 -17.71164m650.08856 0c4.6973877 0 9.202393 1.8660393 12.523987 5.1876183c3.3215942 3.3215752 5.187622 7.826603 5.187622 12.524021l0 70.84444c0 9.78186 -7.9297485 17.71164 -17.711609 17.71164" fill-rule="evenodd"/><path stroke="#000000" stroke-width="2.0" stroke-linejoin="round" stroke-linecap="butt" d="m69.2287 162.49081c-9.781868 0 -17.71164 -7.929779 -17.71164 -17.71164l0 -70.84444l0 0c0 -9.781868 7.9297714 -17.71164 17.71164 -17.71164m650.08856 0c4.6973877 0 9.202393 1.8660393 12.523987 5.1876183c3.3215942 3.3215752 5.187622 7.826603 5.187622 12.524021l0 70.84444c0 9.78186 -7.9297485 17.71164 -17.711609 17.71164" fill-rule="evenodd"/><path fill="#000000" d="m767.4286 98.127686l50.01947 0l0 9.882103l-50.01947 0zm0 14.823158l50.01947 0l0 9.882103l-50.01947 0z" fill-rule="evenodd"/><path stroke="#000000" stroke-width="1.0" stroke-linejoin="round" stroke-linecap="butt" d="m767.4286 98.127686l50.01947 0l0 9.882103l-50.01947 0zm0 14.823158l50.01947 0l0 9.882103l-50.01947 0z" fill-rule="evenodd"/><path fill="#000000" fill-opacity="0.0" d="m833.5853 76.53018l317.7953 0l0 64.62993l-317.7953 0z" fill-rule="evenodd"/><path fill="#000000" d="m846.9447 103.45018l0 -11.09375l-3.953125 0l0 -2.265625l10.609375 0l0 2.265625l-3.953125 0l0 11.09375l-2.703125 0zm10.927185 -13.359375l0 4.921875q1.234375 -1.453125 2.953125 -1.453125q0.890625 0 1.59375 0.328125q0.71875 0.328125 1.078125 0.84375q0.359375 0.5 0.484375 1.125q0.140625 0.609375 0.140625 1.921875l0 5.671875l-2.5625 0l0 -5.109375q0 -1.515625 -0.15625 -1.921875q-0.140625 -0.421875 -0.515625 -0.65625q-0.359375 -0.25 -0.90625 -0.25q-0.640625 0 -1.140625 0.3125q-0.5 0.3125 -0.734375 0.9375q-0.234375 0.625 -0.234375 1.84375l0 4.84375l-2.5625 0l0 -13.359375l2.5625 0zm8.849121 2.375l0 -2.375l2.5625 0l0 2.375l-2.5625 0zm0 10.984375l0 -9.671875l2.5625 0l0 9.671875l-2.5625 0zm4.2770386 -2.765625l2.5625 -0.390625q0.171875 0.75 0.671875 1.140625q0.5 0.390625 1.40625 0.390625q0.984375 0 1.484375 -0.375q0.34375 -0.25 0.34375 -0.671875q0 -0.296875 -0.1875 -0.484375q-0.1875 -0.1875 -0.859375 -0.34375q-3.09375 -0.6875 -3.921875 -1.25q-1.140625 -0.78125 -1.140625 -2.171875q0 -1.265625 0.984375 -2.109375q1.0 -0.859375 3.078125 -0.859375q1.984375 0 2.953125 0.65625q0.96875 0.640625 1.328125 1.90625l-2.40625 0.4375q-0.15625 -0.5625 -0.59375 -0.859375q-0.421875 -0.296875 -1.234375 -0.296875q-1.0 0 -1.4375 0.28125q-0.296875 0.203125 -0.296875 0.515625q0 0.265625 0.25 0.46875q0.34375 0.25 2.390625 0.71875q2.046875 0.453125 2.859375 1.140625q0.796875 0.671875 0.796875 1.890625q0 1.34375 -1.109375 2.296875q-1.109375 0.953125 -3.28125 0.953125q-1.984375 0 -3.140625 -0.796875q-1.140625 -0.8125 -1.5 -2.1875zm16.496521 2.765625l0 -13.359375l9.15625 0l0 2.265625l-6.453125 0l0 3.15625l5.5625 0l0 2.265625l-5.5625 0l0 5.671875l-2.703125 0zm11.364746 -10.984375l0 -2.375l2.5625 0l0 2.375l-2.5625 0zm0 10.984375l0 -9.671875l2.5625 0l0 9.671875l-2.5625 0zm9.620789 -9.671875l0 2.03125l-1.75 0l0 3.90625q0 1.1875 0.046875 1.390625q0.046875 0.1875 0.21875 0.3125q0.1875 0.125 0.4375 0.125q0.359375 0 1.03125 -0.25l0.21875 2.0q-0.890625 0.375 -2.015625 0.375q-0.703125 0 -1.265625 -0.234375q-0.546875 -0.234375 -0.8125 -0.59375q-0.25 -0.375 -0.34375 -1.0q-0.09375 -0.453125 -0.09375 -1.8125l0 -4.21875l-1.171875 0l0 -2.03125l1.171875 0l0 -1.921875l2.578125 -1.5l0 3.421875l1.75 0zm10.5720825 9.671875l-2.5625 0l0 -4.9375q0 -1.5625 -0.171875 -2.015625q-0.15625 -0.46875 -0.53125 -0.71875q-0.359375 -0.265625 -0.875 -0.265625q-0.671875 0 -1.203125 0.375q-0.53125 0.359375 -0.734375 0.96875q-0.1875 0.59375 -0.1875 2.21875l0 4.375l-2.546875 0l0 -9.671875l2.375 0l0 1.421875q1.265625 -1.640625 3.1875 -1.640625q0.84375 0 1.546875 0.3125q0.703125 0.296875 1.0625 0.78125q0.359375 0.46875 0.5 1.078125q0.140625 0.59375 0.140625 1.703125l0 6.015625zm8.192871 -3.078125l2.546875 0.421875q-0.484375 1.40625 -1.546875 2.140625q-1.0625 0.734375 -2.65625 0.734375q-2.515625 0 -3.734375 -1.65625q-0.953125 -1.3125 -0.953125 -3.328125q0 -2.40625 1.25 -3.765625q1.265625 -1.359375 3.1875 -1.359375q2.15625 0 3.40625 1.421875q1.25 1.421875 1.1875 4.375l-6.40625 0q0.03125 1.140625 0.609375 1.78125q0.59375 0.625 1.484375 0.625q0.59375 0 1.0 -0.328125q0.421875 -0.328125 0.625 -1.0625zm0.15625 -2.59375q-0.03125 -1.109375 -0.578125 -1.6875q-0.546875 -0.578125 -1.328125 -0.578125q-0.84375 0 -1.390625 0.609375q-0.546875 0.609375 -0.53125 1.65625l3.828125 0zm3.7194214 2.90625l2.5625 -0.390625q0.171875 0.75 0.671875 1.140625q0.5 0.390625 1.40625 0.390625q0.984375 0 1.484375 -0.375q0.34375 -0.25 0.34375 -0.671875q0 -0.296875 -0.1875 -0.484375q-0.1875 -0.1875 -0.859375 -0.34375q-3.09375 -0.6875 -3.921875 -1.25q-1.140625 -0.78125 -1.140625 -2.171875q0 -1.265625 0.984375 -2.109375q1.0 -0.859375 3.078125 -0.859375q1.984375 0 2.953125 0.65625q0.96875 0.640625 1.328125 1.90625l-2.40625 0.4375q-0.15625 -0.5625 -0.59375 -0.859375q-0.421875 -0.296875 -1.234375 -0.296875q-1.0 0 -1.4375 0.28125q-0.296875 0.203125 -0.296875 0.515625q0 0.265625 0.25 0.46875q0.34375 0.25 2.390625 0.71875q2.046875 0.453125 2.859375 1.140625q0.796875 0.671875 0.796875 1.890625q0 1.34375 -1.109375 2.296875q-1.109375 0.953125 -3.28125 0.953125q-1.984375 0 -3.140625 -0.796875q-1.140625 -0.8125 -1.5 -2.1875zm10.375732 0l2.5625 -0.390625q0.171875 0.75 0.671875 1.140625q0.5 0.390625 1.40625 0.390625q0.984375 0 1.484375 -0.375q0.34375 -0.25 0.34375 -0.671875q0 -0.296875 -0.1875 -0.484375q-0.1875 -0.1875 -0.859375 -0.34375q-3.09375 -0.6875 -3.921875 -1.25q-1.140625 -0.78125 -1.140625 -2.171875q0 -1.265625 0.984375 -2.109375q1.0 -0.859375 3.078125 -0.859375q1.984375 0 2.953125 0.65625q0.96875 0.640625 1.328125 1.90625l-2.40625 0.4375q-0.15625 -0.5625 -0.59375 -0.859375q-0.421875 -0.296875 -1.234375 -0.296875q-1.0 0 -1.4375 0.28125q-0.296875 0.203125 -0.296875 0.515625q0 0.265625 0.25 0.46875q0.34375 0.25 2.390625 0.71875q2.046875 0.453125 2.859375 1.140625q0.796875 0.671875 0.796875 1.890625q0 1.34375 -1.109375 2.296875q-1.109375 0.953125 -3.28125 0.953125q-1.984375 0 -3.140625 -0.796875q-1.140625 -0.8125 -1.5 -2.1875zm19.887146 2.765625l-4.78125 -13.359375l2.9375 0l3.375 9.890625l3.265625 -9.890625l2.859375 0l-4.78125 13.359375l-2.875 0zm9.89801 -6.71875l-2.328125 -0.421875q0.40625 -1.40625 1.359375 -2.078125q0.953125 -0.671875 2.84375 -0.671875q1.703125 0 2.546875 0.40625q0.84375 0.40625 1.171875 1.03125q0.34375 0.625 0.34375 2.28125l-0.015625 3.0q0 1.265625 0.109375 1.875q0.125 0.609375 0.46875 1.296875l-2.53125 0q-0.109375 -0.25 -0.25 -0.75q-0.0625 -0.234375 -0.09375 -0.3125q-0.65625 0.640625 -1.40625 0.96875q-0.734375 0.3125 -1.59375 0.3125q-1.484375 0 -2.34375 -0.8125q-0.859375 -0.8125 -0.859375 -2.046875q0 -0.828125 0.390625 -1.46875q0.390625 -0.640625 1.09375 -0.96875q0.703125 -0.34375 2.03125 -0.609375q1.796875 -0.328125 2.484375 -0.625l0 -0.25q0 -0.75 -0.359375 -1.0625q-0.359375 -0.3125 -1.375 -0.3125q-0.6875 0 -1.078125 0.28125q-0.375 0.265625 -0.609375 0.9375zm3.421875 2.078125q-0.484375 0.15625 -1.5625 0.390625q-1.0625 0.21875 -1.390625 0.4375q-0.5 0.359375 -0.5 0.90625q0 0.53125 0.40625 0.9375q0.40625 0.390625 1.015625 0.390625q0.703125 0 1.328125 -0.46875q0.46875 -0.34375 0.609375 -0.84375q0.09375 -0.328125 0.09375 -1.25l0 -0.5zm5.0476074 4.640625l0 -13.359375l2.5625 0l0 13.359375l-2.5625 0zm11.542664 0l0 -1.453125q-0.53125 0.78125 -1.390625 1.234375q-0.859375 0.4375 -1.8125 0.4375q-0.96875 0 -1.75 -0.421875q-0.765625 -0.4375 -1.125 -1.203125q-0.34375 -0.78125 -0.34375 -2.140625l0 -6.125l2.5625 0l0 4.4375q0 2.046875 0.140625 2.515625q0.140625 0.453125 0.515625 0.71875q0.375 0.265625 0.953125 0.265625q0.65625 0 1.171875 -0.359375q0.515625 -0.359375 0.703125 -0.890625q0.203125 -0.53125 0.203125 -2.609375l0 -4.078125l2.546875 0l0 9.671875l-2.375 0zm10.630371 -3.078125l2.546875 0.421875q-0.484375 1.40625 -1.546875 2.140625q-1.0625 0.734375 -2.65625 0.734375q-2.515625 0 -3.734375 -1.65625q-0.953125 -1.3125 -0.953125 -3.328125q0 -2.40625 1.25 -3.765625q1.265625 -1.359375 3.1875 -1.359375q2.15625 0 3.40625 1.421875q1.25 1.421875 1.1875 4.375l-6.40625 0q0.03125 1.140625 0.609375 1.78125q0.59375 0.625 1.484375 0.625q0.59375 0 1.0 -0.328125q0.421875 -0.328125 0.625 -1.0625zm0.15625 -2.59375q-0.03125 -1.109375 -0.578125 -1.6875q-0.546875 -0.578125 -1.328125 -0.578125q-0.84375 0 -1.390625 0.609375q-0.546875 0.609375 -0.53125 1.65625l3.828125 0zm12.824646 5.671875l0 -11.09375l-3.953125 0l0 -2.265625l10.609375 0l0 2.265625l-3.953125 0l0 11.09375l-2.703125 0zm10.927246 -13.359375l0 4.921875q1.234375 -1.453125 2.953125 -1.453125q0.890625 0 1.59375 0.328125q0.71875 0.328125 1.078125 0.84375q0.359375 0.5 0.484375 1.125q0.140625 0.609375 0.140625 1.921875l0 5.671875l-2.5625 0l0 -5.109375q0 -1.515625 -0.15625 -1.921875q-0.140625 -0.421875 -0.515625 -0.65625q-0.359375 -0.25 -0.90625 -0.25q-0.640625 0 -1.140625 0.3125q-0.5 0.3125 -0.734375 0.9375q-0.234375 0.625 -0.234375 1.84375l0 4.84375l-2.562561 0l0 -13.359375l2.562561 0zm10.755371 6.640625l-2.328125 -0.421875q0.40625 -1.40625 1.359375 -2.078125q0.953125 -0.671875 2.84375 -0.671875q1.703125 0 2.546875 0.40625q0.84375 0.40625 1.171875 1.03125q0.34375 0.625 0.34375 2.28125l-0.015625 3.0q0 1.265625 0.109375 1.875q0.125 0.609375 0.46875 1.296875l-2.53125 0q-0.109375 -0.25 -0.25 -0.75q-0.0625 -0.234375 -0.09375 -0.3125q-0.65625 0.640625 -1.40625 0.96875q-0.734375 0.3125 -1.59375 0.3125q-1.484375 0 -2.34375 -0.8125q-0.859375 -0.8125 -0.859375 -2.046875q0 -0.828125 0.390625 -1.46875q0.390625 -0.640625 1.09375 -0.96875q0.703125 -0.34375 2.03125 -0.609375q1.796875 -0.328125 2.484375 -0.625l0 -0.25q0 -0.75 -0.359375 -1.0625q-0.359375 -0.3125 -1.375 -0.3125q-0.6875 0 -1.078125 0.28125q-0.375 0.265625 -0.609375 0.9375zm3.421875 2.078125q-0.484375 0.15625 -1.5625 0.390625q-1.0625 0.21875 -1.390625 0.4375q-0.5 0.359375 -0.5 0.90625q0 0.53125 0.40625 0.9375q0.40625 0.390625 1.015625 0.390625q0.703125 0 1.328125 -0.46875q0.46875 -0.34375 0.609375 -0.84375q0.09375 -0.328125 0.09375 -1.25l0 -0.5zm9.484985 -5.03125l0 2.03125l-1.75 0l0 3.90625q0 1.1875 0.046875 1.390625q0.046875 0.1875 0.21875 0.3125q0.1875 0.125 0.4375 0.125q0.359375 0 1.03125 -0.25l0.21875 2.0q-0.890625 0.375 -2.015625 0.375q-0.703125 0 -1.265625 -0.234375q-0.546875 -0.234375 -0.8125 -0.59375q-0.25 -0.375 -0.34375 -1.0q-0.09375 -0.453125 -0.09375 -1.8125l0 -4.21875l-1.171875 0l0 -2.03125l1.171875 0l0 -1.921875l2.578125 -1.5l0 3.421875l1.75 0zm6.958496 -1.3125l0 -2.375l2.5625 0l0 2.375l-2.5625 0zm0 10.984375l0 -9.671875l2.5625 0l0 9.671875l-2.5625 0zm13.980225 0l-2.5625 0l0 -4.9375q0 -1.5625 -0.171875 -2.015625q-0.15625 -0.46875 -0.53125 -0.71875q-0.359375 -0.265625 -0.875 -0.265625q-0.671875 0 -1.203125 0.375q-0.53125 0.359375 -0.734375 0.96875q-0.1875 0.59375 -0.1875 2.21875l0 4.375l-2.546875 0l0 -9.671875l2.375 0l0 1.421875q1.265625 -1.640625 3.1875 -1.640625q0.84375 0 1.546875 0.3125q0.703125 0.296875 1.0625 0.78125q0.359375 0.46875 0.5 1.078125q0.140625 0.59375 0.140625 1.703125l0 6.015625zm11.474121 0l-2.390625 0l0 -1.421875q-0.59375 0.828125 -1.40625 1.234375q-0.796875 0.40625 -1.609375 0.40625q-1.671875 0 -2.859375 -1.34375q-1.1875 -1.34375 -1.1875 -3.75q0 -2.453125 1.15625 -3.734375q1.15625 -1.28125 2.921875 -1.28125q1.625 0 2.8125 1.34375l0 -4.8125l2.5625 0l0 13.359375zm-6.84375 -5.046875q0 1.546875 0.4375 2.234375q0.609375 1.015625 1.71875 1.015625q0.890625 0 1.5 -0.75q0.625 -0.765625 0.625 -2.25q0 -1.671875 -0.609375 -2.40625q-0.59375 -0.734375 -1.53125 -0.734375q-0.90625 0 -1.53125 0.734375q-0.609375 0.71875 -0.609375 2.15625zm9.364746 -5.9375l0 -2.375l2.5625 0l0 2.375l-2.5625 0zm0 10.984375l0 -9.671875l2.5625 0l0 9.671875l-2.5625 0zm13.620728 -6.8125l-2.53125 0.453125q-0.125 -0.75 -0.578125 -1.125q-0.453125 -0.390625 -1.171875 -0.390625q-0.953125 0 -1.53125 0.65625q-0.5625 0.65625 -0.5625 2.203125q0 1.734375 0.578125 2.4375q0.578125 0.703125 1.546875 0.703125q0.734375 0 1.203125 -0.40625q0.46875 -0.421875 0.65625 -1.421875l2.515625 0.421875q-0.390625 1.734375 -1.515625 2.625q-1.109375 0.875 -2.96875 0.875q-2.125 0 -3.390625 -1.328125q-1.25 -1.34375 -1.25 -3.71875q0 -2.390625 1.265625 -3.71875q1.265625 -1.34375 3.421875 -1.34375q1.765625 0 2.796875 0.765625q1.046875 0.75 1.515625 2.3125zm3.8444824 0.09375l-2.328125 -0.421875q0.40625 -1.40625 1.359375 -2.078125q0.953125 -0.671875 2.84375 -0.671875q1.703125 0 2.546875 0.40625q0.84375 0.40625 1.171875 1.03125q0.34375 0.625 0.34375 2.28125l-0.015625 3.0q0 1.265625 0.109375 1.875q0.125 0.609375 0.46875 1.296875l-2.53125 0q-0.109375 -0.25 -0.25 -0.75q-0.0625 -0.234375 -0.09375 -0.3125q-0.65625 0.640625 -1.40625 0.96875q-0.734375 0.3125 -1.59375 0.3125q-1.484375 0 -2.34375 -0.8125q-0.859375 -0.8125 -0.859375 -2.046875q0 -0.828125 0.390625 -1.46875q0.390625 -0.640625 1.09375 -0.96875q0.703125 -0.34375 2.03125 -0.609375q1.796875 -0.328125 2.484375 -0.625l0 -0.25q0 -0.75 -0.359375 -1.0625q-0.359375 -0.3125 -1.375 -0.3125q-0.6875 0 -1.078125 0.28125q-0.375 0.265625 -0.609375 0.9375zm3.421875 2.078125q-0.484375 0.15625 -1.5625 0.390625q-1.0625 0.21875 -1.390625 0.4375q-0.5 0.359375 -0.5 0.90625q0 0.53125 0.40625 0.9375q0.40625 0.390625 1.015625 0.390625q0.703125 0 1.328125 -0.46875q0.46875 -0.34375 0.609375 -0.84375q0.09375 -0.328125 0.09375 -1.25l0 -0.5zm9.485107 -5.03125l0 2.03125l-1.75 0l0 3.90625q0 1.1875 0.046875 1.390625q0.046875 0.1875 0.21875 0.3125q0.1875 0.125 0.4375 0.125q0.359375 0 1.03125 -0.25l0.21875 2.0q-0.890625 0.375 -2.015625 0.375q-0.703125 0 -1.265625 -0.234375q-0.546875 -0.234375 -0.8125 -0.59375q-0.25 -0.375 -0.34375 -1.0q-0.09375 -0.453125 -0.09375 -1.8125l0 -4.21875l-1.171875 0l0 -2.03125l1.171875 0l0 -1.921875l2.578125 -1.5l0 3.421875l1.75 0zm7.3690186 6.59375l2.546875 0.421875q-0.484375 1.40625 -1.546875 2.140625q-1.0625 0.734375 -2.65625 0.734375q-2.515625 0 -3.734375 -1.65625q-0.953125 -1.3125 -0.953125 -3.328125q0 -2.40625 1.25 -3.765625q1.265625 -1.359375 3.1875 -1.359375q2.15625 0 3.40625 1.421875q1.25 1.421875 1.1875 4.375l-6.40625 0q0.03125 1.140625 0.609375 1.78125q0.59375 0.625 1.484375 0.625q0.59375 0 1.0 -0.328125q0.421875 -0.328125 0.625 -1.0625zm0.15625 -2.59375q-0.03125 -1.109375 -0.578125 -1.6875q-0.546875 -0.578125 -1.328125 -0.578125q-0.84375 0 -1.390625 0.609375q-0.546875 0.609375 -0.53125 1.65625l3.828125 0zm3.7193604 2.90625l2.5625 -0.390625q0.171875 0.75 0.671875 1.140625q0.5 0.390625 1.40625 0.390625q0.984375 0 1.484375 -0.375q0.34375 -0.25 0.34375 -0.671875q0 -0.296875 -0.1875 -0.484375q-0.1875 -0.1875 -0.859375 -0.34375q-3.09375 -0.6875 -3.921875 -1.25q-1.140625 -0.78125 -1.140625 -2.171875q0 -1.265625 0.984375 -2.109375q1.0 -0.859375 3.078125 -0.859375q1.984375 0 2.953125 0.65625q0.96875 0.640625 1.328125 1.90625l-2.40625 0.4375q-0.15625 -0.5625 -0.59375 -0.859375q-0.421875 -0.296875 -1.234375 -0.296875q-1.0 0 -1.4375 0.28125q-0.296875 0.203125 -0.296875 0.515625q0 0.265625 0.25 0.46875q0.34375 0.25 2.390625 0.71875q2.046875 0.453125 2.859375 1.140625q0.796875 0.671875 0.796875 1.890625q0 1.34375 -1.109375 2.296875q-1.109375 0.953125 -3.28125 0.953125q-1.984375 0 -3.140625 -0.796875q-1.140625 -0.8125 -1.5 -2.1875z" fill-rule="nonzero"/><path fill="#000000" d="m848.3666 116.17831l0 2.03125l-1.75 0l0 3.90625q0 1.1875 0.046875 1.390625q0.046875 0.1875 0.21875 0.3125q0.1875 0.125 0.4375 0.125q0.359375 0 1.03125 -0.25l0.21875 2.0q-0.890625 0.375 -2.015625 0.375q-0.703125 0 -1.265625 -0.234375q-0.546875 -0.234375 -0.8125 -0.59375q-0.25 -0.375 -0.34375 -1.0q-0.09375 -0.453125 -0.09375 -1.8125l0 -4.21875l-1.171875 0l0 -2.03125l1.171875 0l0 -1.921875l2.578125 -1.5l0 3.421875l1.75 0zm1.1813965 4.703125q0 -1.28125 0.625 -2.46875q0.625 -1.203125 1.78125 -1.828125q1.15625 -0.625 2.578125 -0.625q2.1875 0 3.59375 1.421875q1.40625 1.421875 1.40625 3.609375q0 2.1875 -1.421875 3.640625q-1.421875 1.4375 -3.5625 1.4375q-1.328125 0 -2.546875 -0.59375q-1.203125 -0.609375 -1.828125 -1.765625q-0.625 -1.171875 -0.625 -2.828125zm2.625 0.125q0 1.453125 0.671875 2.21875q0.6875 0.75 1.6875 0.75q1.0 0 1.671875 -0.75q0.6875 -0.765625 0.6875 -2.234375q0 -1.421875 -0.6875 -2.1875q-0.671875 -0.765625 -1.671875 -0.765625q-1.0 0 -1.6875 0.765625q-0.671875 0.765625 -0.671875 2.203125zm14.56366 4.84375l0 -13.359375l2.703125 0l0 5.265625l5.28125 0l0 -5.265625l2.703125 0l0 13.359375l-2.703125 0l0 -5.84375l-5.28125 0l0 5.84375l-2.703125 0zm12.863586 -4.96875q0 -1.28125 0.625 -2.46875q0.625 -1.203125 1.78125 -1.828125q1.15625 -0.625 2.578125 -0.625q2.1875 0 3.59375 1.421875q1.40625 1.421875 1.40625 3.609375q0 2.1875 -1.421875 3.640625q-1.421875 1.4375 -3.5625 1.4375q-1.328125 0 -2.546875 -0.59375q-1.203125 -0.609375 -1.828125 -1.765625q-0.625 -1.171875 -0.625 -2.828125zm2.625 0.125q0 1.453125 0.671875 2.21875q0.6875 0.75 1.6875 0.75q1.0 0 1.671875 -0.75q0.6875 -0.765625 0.6875 -2.234375q0 -1.421875 -0.6875 -2.1875q-0.671875 -0.765625 -1.671875 -0.765625q-1.0 0 -1.6875 0.765625q-0.671875 0.765625 -0.671875 2.203125zm11.161621 4.84375l-3.0625 -9.671875l2.484375 0l1.8125 6.34375l1.671875 -6.34375l2.46875 0l1.609375 6.34375l1.859375 -6.34375l2.515625 0l-3.109375 9.671875l-2.453125 0l-1.671875 -6.21875l-1.640625 6.21875l-2.484375 0zm17.663452 0.640625l2.921875 0.359375q0.0625 0.5 0.328125 0.6875q0.375 0.28125 1.15625 0.28125q1.0 0 1.5 -0.296875q0.328125 -0.203125 0.515625 -0.65625q0.109375 -0.3125 0.109375 -1.171875l0 -1.40625q-1.140625 1.5625 -2.890625 1.5625q-1.953125 0 -3.09375 -1.65625q-0.890625 -1.296875 -0.890625 -3.234375q0 -2.4375 1.171875 -3.71875q1.171875 -1.28125 2.90625 -1.28125q1.796875 0 2.96875 1.578125l0 -1.359375l2.390625 0l0 8.671875q0 1.71875 -0.28125 2.5625q-0.28125 0.8437424 -0.796875 1.3281174q-0.5 0.484375 -1.359375 0.75q-0.84375 0.28125 -2.15625 0.28125q-2.453125 0 -3.484375 -0.84375q-1.03125 -0.84375 -1.03125 -2.1249924q0 -0.140625 0.015625 -0.3125zm2.28125 -5.671875q0 1.53125 0.59375 2.25q0.59375 0.71875 1.46875 0.71875q0.9375 0 1.578125 -0.734375q0.65625 -0.734375 0.65625 -2.171875q0 -1.515625 -0.625 -2.234375q-0.609375 -0.734375 -1.5625 -0.734375q-0.921875 0 -1.515625 0.71875q-0.59375 0.71875 -0.59375 2.1875zm8.755371 0.0625q0 -1.28125 0.625 -2.46875q0.625 -1.203125 1.78125 -1.828125q1.15625 -0.625 2.578125 -0.625q2.1875 0 3.59375 1.421875q1.40625 1.421875 1.40625 3.609375q0 2.1875 -1.421875 3.640625q-1.421875 1.4375 -3.5625 1.4375q-1.328125 0 -2.546875 -0.59375q-1.203125 -0.609375 -1.828125 -1.765625q-0.625 -1.171875 -0.625 -2.828125zm2.625 0.125q0 1.453125 0.671875 2.21875q0.6875 0.75 1.6875 0.75q1.0 0 1.671875 -0.75q0.6875 -0.765625 0.6875 -2.234375q0 -1.421875 -0.6875 -2.1875q-0.671875 -0.765625 -1.671875 -0.765625q-1.0 0 -1.6875 0.765625q-0.671875 0.765625 -0.671875 2.203125zm8.770996 -0.125q0 -1.28125 0.625 -2.46875q0.625 -1.203125 1.78125 -1.828125q1.15625 -0.625 2.578125 -0.625q2.1875 0 3.59375 1.421875q1.40625 1.421875 1.40625 3.609375q0 2.1875 -1.421875 3.640625q-1.421875 1.4375 -3.5625 1.4375q-1.328125 0 -2.546875 -0.59375q-1.203125 -0.609375 -1.828125 -1.765625q-0.625 -1.171875 -0.625 -2.828125zm2.625 0.125q0 1.453125 0.671875 2.21875q0.6875 0.75 1.6875 0.75q1.0 0 1.671875 -0.75q0.6875 -0.765625 0.6875 -2.234375q0 -1.421875 -0.6875 -2.1875q-0.671875 -0.765625 -1.671875 -0.765625q-1.0 0 -1.6875 0.765625q-0.671875 0.765625 -0.671875 2.203125zm18.239685 4.84375l-2.390625 0l0 -1.421875q-0.59375 0.828125 -1.40625 1.234375q-0.796875 0.40625 -1.609375 0.40625q-1.671875 0 -2.859375 -1.34375q-1.1875 -1.34375 -1.1875 -3.75q0 -2.453125 1.15625 -3.734375q1.15625 -1.28125 2.921875 -1.28125q1.625 0 2.8125 1.34375l0 -4.8125l2.5625 0l0 13.359375zm-6.84375 -5.046875q0 1.546875 0.4375 2.234375q0.609375 1.015625 1.71875 1.015625q0.890625 0 1.5 -0.75q0.625 -0.765625 0.625 -2.25q0 -1.671875 -0.609375 -2.40625q-0.59375 -0.734375 -1.53125 -0.734375q-0.90625 0 -1.53125 0.734375q-0.609375 0.71875 -0.609375 2.15625zm14.548035 -5.9375l0 -2.375l2.5625 0l0 2.375l-2.5625 0zm0 10.984375l0 -9.671875l2.5625 0l0 9.671875l-2.5625 0zm4.2770996 -2.765625l2.5625 -0.390625q0.171875 0.75 0.671875 1.140625q0.5 0.390625 1.40625 0.390625q0.984375 0 1.484375 -0.375q0.34375 -0.25 0.34375 -0.671875q0 -0.296875 -0.1875 -0.484375q-0.1875 -0.1875 -0.859375 -0.34375q-3.09375 -0.6875 -3.921875 -1.25q-1.140625 -0.78125 -1.140625 -2.171875q0 -1.265625 0.984375 -2.109375q1.0 -0.859375 3.078125 -0.859375q1.984375 0 2.953125 0.65625q0.96875 0.640625 1.328125 1.90625l-2.40625 0.4375q-0.15625 -0.5625 -0.59375 -0.859375q-0.421875 -0.296875 -1.234375 -0.296875q-1.0 0 -1.4375 0.28125q-0.296875 0.203125 -0.296875 0.515625q0 0.265625 0.25 0.46875q0.34375 0.25 2.390625 0.71875q2.046875 0.453125 2.859375 1.140625q0.796875 0.671875 0.796875 1.890625q0 1.34375 -1.109375 2.296875q-1.109375 0.953125 -3.28125 0.953125q-1.984375 0 -3.140625 -0.796875q-1.140625 -0.8125 -1.5 -2.1875zm20.902771 -6.90625l0 2.03125l-1.75 0l0 3.90625q0 1.1875 0.046875 1.390625q0.046875 0.1875 0.21875 0.3125q0.1875 0.125 0.4375 0.125q0.359375 0 1.03125 -0.25l0.21875 2.0q-0.890625 0.375 -2.015625 0.375q-0.703125 0 -1.265625 -0.234375q-0.546875 -0.234375 -0.8125 -0.59375q-0.25 -0.375 -0.34375 -1.0q-0.09375 -0.453125 -0.09375 -1.8125l0 -4.21875l-1.171875 0l0 -2.03125l1.171875 0l0 -1.921875l2.578125 -1.5l0 3.421875l1.75 0zm4.3220215 -3.6875l0 4.921875q1.234375 -1.453125 2.953125 -1.453125q0.890625 0 1.59375 0.328125q0.71875 0.328125 1.078125 0.84375q0.359375 0.5 0.484375 1.125q0.140625 0.609375 0.140625 1.921875l0 5.671875l-2.5625 0l0 -5.109375q0 -1.515625 -0.15625 -1.921875q-0.140625 -0.421875 -0.515625 -0.65625q-0.359375 -0.25 -0.90625 -0.25q-0.640625 0 -1.140625 0.3125q-0.5 0.3125 -0.734375 0.9375q-0.234375 0.625 -0.234375 1.84375l0 4.84375l-2.5625 0l0 -13.359375l2.5625 0zm8.849121 2.375l0 -2.375l2.5625 0l0 2.375l-2.5625 0zm0 10.984375l0 -9.671875l2.5625 0l0 9.671875l-2.5625 0zm4.2770386 -2.765625l2.5625 -0.390625q0.171875 0.75 0.671875 1.140625q0.5 0.390625 1.40625 0.390625q0.984375 0 1.484375 -0.375q0.34375 -0.25 0.34375 -0.671875q0 -0.296875 -0.1875 -0.484375q-0.1875 -0.1875 -0.859375 -0.34375q-3.09375 -0.6875 -3.921875 -1.25q-1.140625 -0.78125 -1.140625 -2.171875q0 -1.265625 0.984375 -2.109375q1.0 -0.859375 3.078125 -0.859375q1.984375 0 2.953125 0.65625q0.96875 0.640625 1.328125 1.90625l-2.40625 0.4375q-0.15625 -0.5625 -0.59375 -0.859375q-0.421875 -0.296875 -1.234375 -0.296875q-1.0 0 -1.4375 0.28125q-0.296875 0.203125 -0.296875 0.515625q0 0.265625 0.25 0.46875q0.34375 0.25 2.390625 0.71875q2.046875 0.453125 2.859375 1.140625q0.796875 0.671875 0.796875 1.890625q0 1.34375 -1.109375 2.296875q-1.109375 0.953125 -3.28125 0.953125q-1.984375 0 -3.140625 -0.796875q-1.140625 -0.8125 -1.5 -2.1875zm15.559021 0l2.5625 -0.390625q0.171875 0.75 0.671875 1.140625q0.5 0.390625 1.406311 0.390625q0.984375 0 1.484375 -0.375q0.34375 -0.25 0.34375 -0.671875q0 -0.296875 -0.1875 -0.484375q-0.1875 -0.1875 -0.859375 -0.34375q-3.093811 -0.6875 -3.921936 -1.25q-1.140625 -0.78125 -1.140625 -2.171875q0 -1.265625 0.984375 -2.109375q1.0 -0.859375 3.078186 -0.859375q1.984375 0 2.953125 0.65625q0.96875 0.640625 1.328125 1.90625l-2.40625 0.4375q-0.15625 -0.5625 -0.59375 -0.859375q-0.421875 -0.296875 -1.234375 -0.296875q-1.000061 0 -1.437561 0.28125q-0.296875 0.203125 -0.296875 0.515625q0 0.265625 0.25 0.46875q0.34375 0.25 2.390686 0.71875q2.046875 0.453125 2.859375 1.140625q0.796875 0.671875 0.796875 1.890625q0 1.34375 -1.109375 2.296875q-1.109375 0.953125 -3.28125 0.953125q-1.984436 0 -3.140686 -0.796875q-1.140625 -0.8125 -1.5 -2.1875zm10.688171 -2.203125q0 -1.28125 0.625 -2.46875q0.625 -1.203125 1.78125 -1.828125q1.15625 -0.625 2.578125 -0.625q2.1875 0 3.59375 1.421875q1.40625 1.421875 1.40625 3.609375q0 2.1875 -1.421875 3.640625q-1.421875 1.4375 -3.5625 1.4375q-1.328125 0 -2.546875 -0.59375q-1.203125 -0.609375 -1.828125 -1.765625q-0.625 -1.171875 -0.625 -2.828125zm2.625 0.125q0 1.453125 0.671875 2.21875q0.6875 0.75 1.6875 0.75q1.0 0 1.671875 -0.75q0.6875 -0.765625 0.6875 -2.234375q0 -1.421875 -0.6875 -2.1875q-0.671875 -0.765625 -1.671875 -0.765625q-1.0 0 -1.6875 0.765625q-0.671875 0.765625 -0.671875 2.203125zm9.364746 4.84375l0 -13.359375l2.5625 0l0 13.359375l-2.5625 0zm11.542725 0l0 -1.453125q-0.53125 0.78125 -1.390625 1.234375q-0.859375 0.4375 -1.8125 0.4375q-0.96875 0 -1.75 -0.421875q-0.765625 -0.4375 -1.125 -1.203125q-0.34375 -0.78125 -0.34375 -2.140625l0 -6.125l2.5625 0l0 4.4375q0 2.046875 0.140625 2.515625q0.140625 0.453125 0.515625 0.71875q0.375 0.265625 0.953125 0.265625q0.65625 0 1.171875 -0.359375q0.515625 -0.359375 0.703125 -0.890625q0.203125 -0.53125 0.203125 -2.609375l0 -4.078125l2.546875 0l0 9.671875l-2.375 0zm9.474121 -9.671875l0 2.03125l-1.75 0l0 3.90625q0 1.1875 0.046875 1.390625q0.046875 0.1875 0.21875 0.3125q0.1875 0.125 0.4375 0.125q0.359375 0 1.03125 -0.25l0.21875 2.0q-0.890625 0.375 -2.015625 0.375q-0.703125 0 -1.265625 -0.234375q-0.546875 -0.234375 -0.8125 -0.59375q-0.25 -0.375 -0.34375 -1.0q-0.09375 -0.453125 -0.09375 -1.8125l0 -4.21875l-1.171875 0l0 -2.03125l1.171875 0l0 -1.921875l2.578125 -1.5l0 3.421875l1.75 0zm1.7751465 -1.3125l0 -2.375l2.5625 0l0 2.375l-2.5625 0zm0 10.984375l0 -9.671875l2.5625 0l0 9.671875l-2.5625 0zm4.5895996 -4.96875q0 -1.28125 0.625 -2.46875q0.625 -1.203125 1.78125 -1.828125q1.15625 -0.625 2.578125 -0.625q2.1875 0 3.59375 1.421875q1.40625 1.421875 1.40625 3.609375q0 2.1875 -1.421875 3.640625q-1.421875 1.4375 -3.5625 1.4375q-1.328125 0 -2.546875 -0.59375q-1.203125 -0.609375 -1.828125 -1.765625q-0.625 -1.171875 -0.625 -2.828125zm2.625 0.125q0 1.453125 0.671875 2.21875q0.6875 0.75 1.6875 0.75q1.0 0 1.671875 -0.75q0.6875 -0.765625 0.6875 -2.234375q0 -1.421875 -0.6875 -2.1875q-0.671875 -0.765625 -1.671875 -0.765625q-1.0 0 -1.6875 0.765625q-0.671875 0.765625 -0.671875 2.203125zm18.161621 4.84375l-2.5625 0l0 -4.9375q0 -1.5625 -0.171875 -2.015625q-0.15625 -0.46875 -0.53125 -0.71875q-0.359375 -0.265625 -0.875 -0.265625q-0.671875 0 -1.203125 0.375q-0.53125 0.359375 -0.734375 0.96875q-0.1875 0.59375 -0.1875 2.21875l0 4.375l-2.546875 0l0 -9.671875l2.375 0l0 1.421875q1.265625 -1.640625 3.1875 -1.640625q0.84375 0 1.546875 0.3125q0.703125 0.296875 1.0625 0.78125q0.359375 0.46875 0.5 1.078125q0.140625 0.59375 0.140625 1.703125l0 6.015625z" fill-rule="nonzero"/></g></svg>