<svg version="1.1" viewBox="0.0 0.0 1399.727034120735 562.8635170603675" fill="none" stroke="none" stroke-linecap="square" stroke-miterlimit="10" xmlns:xlink="http://www.w3.org/1999/xlink" xmlns="http://www.w3.org/2000/svg"><clipPath id="p.0"><path d="m0 0l1399.727 0l0 562.8635l-1399.727 0l0 -562.8635z" clip-rule="nonzero"/></clipPath><g clip-path="url(#p.0)"><path fill="#000000" fill-opacity="0.0" d="m0 0l1399.727 0l0 562.8635l-1399.727 0z" fill-rule="evenodd"/><path fill="#cfe2f3" d="m199.18636 133.38058l445.7638 0l0 59.74803l-445.7638 0z" fill-rule="evenodd"/><path stroke="#000000" stroke-width="1.0" stroke-linejoin="round" stroke-linecap="butt" d="m199.18636 133.38058l445.7638 0l0 59.74803l-445.7638 0z" fill-rule="evenodd"/><path fill="#000000" fill-opacity="0.0" d="m215.38321 129.36482l417.25986 0l0 67.87402l-417.25986 0z" fill-rule="evenodd"/><path fill="#000000" d="m248.97896 173.71796l0 3.046875l-17.03125 0q-0.03125 -1.140625 0.359375 -2.203125q0.65625 -1.734375 2.078125 -3.421875q1.4375 -1.6875 4.15625 -3.90625q4.203125 -3.4375 5.671875 -5.453125q1.484375 -2.015625 1.484375 -3.8125q0 -1.875 -1.359375 -3.15625q-1.34375 -1.296875 -3.5 -1.296875q-2.28125 0 -3.65625 1.375q-1.375 1.359375 -1.390625 3.78125l-3.25 -0.328125q0.328125 -3.640625 2.5 -5.546875q2.1875 -1.90625 5.875 -1.90625q3.703125 0 5.859375 2.0625q2.171875 2.046875 2.171875 5.09375q0 1.546875 -0.640625 3.046875q-0.625 1.484375 -2.09375 3.140625q-1.46875 1.65625 -4.875 4.53125q-2.859375 2.390625 -3.671875 3.25q-0.796875 0.84375 -1.328125 1.703125l12.640625 0z" fill-rule="nonzero"/><path fill="#000000" d="m264.31488 185.1867l0 -37.546875l4.359375 0l0 37.546875l-4.359375 0z" fill-rule="nonzero"/><path fill="#000000" d="m294.8227 176.76483l0 -6.171875l-11.1875 0l0 -2.90625l11.765625 -16.6875l2.578125 0l0 16.6875l3.484375 0l0 2.90625l-3.484375 0l0 6.171875l-3.15625 0zm0 -9.078125l0 -11.609375l-8.078125 11.609375l8.078125 0z" fill-rule="nonzero"/><path fill="#000000" d="m316.643 185.1867l0 -37.546875l4.359375 0l0 37.546875l-4.359375 0z" fill-rule="nonzero"/><path fill="#000000" d="m348.91644 176.76483l-3.15625 0l0 -20.15625q-1.140625 1.078125 -3.0 2.171875q-1.859375 1.09375 -3.328125 1.640625l0 -3.0625q2.65625 -1.25 4.640625 -3.015625q1.984375 -1.78125 2.8125 -3.453125l2.03125 0l0 25.875z" fill-rule="nonzero"/><path fill="#000000" d="m368.97113 185.1867l0 -37.546875l4.359375 0l0 37.546875l-4.359375 0z" fill-rule="nonzero"/><path fill="#000000" d="m394.1977 162.79608q-1.96875 -0.734375 -2.921875 -2.0625q-0.9375 -1.34375 -0.9375 -3.203125q0 -2.8125 2.015625 -4.71875q2.03125 -1.921875 5.375 -1.921875q3.375 0 5.4375 1.96875q2.0625 1.953125 2.0625 4.765625q0 1.796875 -0.953125 3.125q-0.9375 1.3125 -2.84375 2.046875q2.375 0.765625 3.609375 2.5q1.234375 1.71875 1.234375 4.109375q0 3.296875 -2.34375 5.546875q-2.328125 2.25 -6.140625 2.25q-3.8125 0 -6.15625 -2.25q-2.34375 -2.265625 -2.34375 -5.640625q0 -2.515625 1.28125 -4.203125q1.28125 -1.703125 3.625 -2.3125zm-0.625 -5.375q0 1.828125 1.171875 3.0q1.1875 1.15625 3.0625 1.15625q1.828125 0 3.0 -1.140625q1.171875 -1.15625 1.171875 -2.828125q0 -1.75 -1.21875 -2.9375q-1.203125 -1.1875 -2.984375 -1.1875q-1.8125 0 -3.015625 1.171875q-1.1875 1.15625 -1.1875 2.765625zm-1.015625 11.90625q0 1.359375 0.640625 2.625q0.640625 1.265625 1.90625 1.96875q1.265625 0.6875 2.71875 0.6875q2.265625 0 3.734375 -1.453125q1.484375 -1.46875 1.484375 -3.71875q0 -2.28125 -1.515625 -3.78125q-1.515625 -1.5 -3.8125 -1.5q-2.234375 0 -3.703125 1.484375q-1.453125 1.46875 -1.453125 3.6875z" fill-rule="nonzero"/><path fill="#000000" d="m421.29926 185.1867l0 -37.546875l4.359375 0l0 37.546875l-4.359375 0z" fill-rule="nonzero"/><path fill="#000000" d="m441.68207 169.96796l3.15625 -0.421875q0.546875 2.6875 1.859375 3.875q1.3125 1.1875 3.1875 1.1875q2.234375 0 3.765625 -1.546875q1.546875 -1.546875 1.546875 -3.84375q0 -2.171875 -1.421875 -3.578125q-1.421875 -1.421875 -3.625 -1.421875q-0.890625 0 -2.234375 0.34375l0.359375 -2.78125q0.3125 0.046875 0.5 0.046875q2.03125 0 3.640625 -1.046875q1.625 -1.0625 1.625 -3.265625q0 -1.734375 -1.1875 -2.875q-1.171875 -1.15625 -3.03125 -1.15625q-1.84375 0 -3.078125 1.171875q-1.234375 1.15625 -1.578125 3.46875l-3.171875 -0.5625q0.578125 -3.171875 2.625 -4.921875q2.0625 -1.75 5.125 -1.75q2.109375 0 3.875 0.90625q1.78125 0.90625 2.71875 2.46875q0.953125 1.5625 0.953125 3.328125q0 1.65625 -0.90625 3.03125q-0.890625 1.375 -2.640625 2.1875q2.28125 0.515625 3.546875 2.1875q1.265625 1.65625 1.265625 4.15625q0 3.375 -2.46875 5.71875q-2.453125 2.34375 -6.21875 2.34375q-3.390625 0 -5.640625 -2.015625q-2.234375 -2.03125 -2.546875 -5.234375z" fill-rule="nonzero"/><path fill="#000000" d="m473.6274 185.1867l0 -37.546875l4.359375 0l0 37.546875l-4.359375 0z" fill-rule="nonzero"/><path fill="#000000" d="m493.9946 170.01483l3.3125 -0.28125q0.375 2.421875 1.71875 3.65625q1.34375 1.21875 3.25 1.21875q2.28125 0 3.859375 -1.71875q1.578125 -1.734375 1.578125 -4.578125q0 -2.703125 -1.515625 -4.265625q-1.515625 -1.578125 -3.984375 -1.578125q-1.53125 0 -2.765625 0.703125q-1.21875 0.6875 -1.921875 1.796875l-2.96875 -0.390625l2.484375 -13.234375l12.828125 0l0 3.03125l-10.296875 0l-1.375 6.921875q2.3125 -1.625 4.859375 -1.625q3.375 0 5.6875 2.34375q2.328125 2.34375 2.328125 6.015625q0 3.5 -2.03125 6.046875q-2.484375 3.125 -6.765625 3.125q-3.515625 0 -5.75 -1.96875q-2.21875 -1.96875 -2.53125 -5.21875z" fill-rule="nonzero"/><path fill="#000000" d="m525.9555 185.1867l0 -37.546875l4.359375 0l0 37.546875l-4.359375 0z" fill-rule="nonzero"/><path fill="#000000" d="m546.5258 154.3742l0 -3.046875l16.6875 0l0 2.46875q-2.46875 2.609375 -4.890625 6.953125q-2.40625 4.34375 -3.71875 8.9375q-0.953125 3.234375 -1.21875 7.078125l-3.25 0q0.046875 -3.046875 1.1875 -7.34375q1.140625 -4.3125 3.28125 -8.3125q2.140625 -4.0 4.546875 -6.734375l-12.625 0z" fill-rule="nonzero"/><path fill="#000000" d="m578.2836 185.1867l0 -37.546875l4.359375 0l0 37.546875l-4.359375 0z" fill-rule="nonzero"/><path fill="#000000" d="m615.05707 157.3117l-3.140625 0.234375q-0.421875 -1.859375 -1.1875 -2.703125q-1.296875 -1.359375 -3.171875 -1.359375q-1.515625 0 -2.65625 0.84375q-1.484375 1.09375 -2.359375 3.1875q-0.859375 2.09375 -0.890625 5.953125q1.140625 -1.734375 2.796875 -2.578125q1.65625 -0.84375 3.46875 -0.84375q3.15625 0 5.375 2.328125q2.234375 2.328125 2.234375 6.015625q0 2.4375 -1.046875 4.515625q-1.046875 2.078125 -2.875 3.1875q-1.828125 1.109375 -4.15625 1.109375q-3.953125 0 -6.453125 -2.90625q-2.484375 -2.90625 -2.484375 -9.59375q0 -7.46875 2.75 -10.859375q2.40625 -2.953125 6.484375 -2.953125q3.046875 0 4.984375 1.703125q1.953125 1.703125 2.328125 4.71875zm-12.90625 11.109375q0 1.625 0.6875 3.125q0.6875 1.484375 1.9375 2.28125q1.25 0.78125 2.625 0.78125q2.0 0 3.4375 -1.609375q1.453125 -1.625 1.453125 -4.40625q0 -2.671875 -1.4375 -4.203125q-1.421875 -1.546875 -3.578125 -1.546875q-2.140625 0 -3.640625 1.546875q-1.484375 1.53125 -1.484375 4.03125z" fill-rule="nonzero"/><path fill="#3c78d8" d="m199.18636 250.48819l445.7638 0l0 59.748016l-445.7638 0z" fill-rule="evenodd"/><path stroke="#000000" stroke-width="1.0" stroke-linejoin="round" stroke-linecap="butt" d="m199.18636 250.48819l445.7638 0l0 59.748016l-445.7638 0z" fill-rule="evenodd"/><path fill="#000000" fill-opacity="0.0" d="m215.38321 246.47244l417.25986 0l0 67.87402l-417.25986 0z" fill-rule="evenodd"/><path fill="#000000" d="m248.97896 290.82556l0 3.046875l-17.03125 0q-0.03125 -1.140625 0.359375 -2.203125q0.65625 -1.734375 2.078125 -3.421875q1.4375 -1.6875 4.15625 -3.90625q4.203125 -3.4375 5.671875 -5.453125q1.484375 -2.015625 1.484375 -3.8125q0 -1.875 -1.359375 -3.15625q-1.34375 -1.296875 -3.5 -1.296875q-2.28125 0 -3.65625 1.375q-1.375 1.359375 -1.390625 3.78125l-3.25 -0.328125q0.328125 -3.640625 2.5 -5.546875q2.1875 -1.90625 5.875 -1.90625q3.703125 0 5.859375 2.0625q2.171875 2.046875 2.171875 5.09375q0 1.546875 -0.640625 3.046875q-0.625 1.484375 -2.09375 3.140625q-1.46875 1.65625 -4.875 4.53125q-2.859375 2.390625 -3.671875 3.25q-0.796875 0.84375 -1.328125 1.703125l12.640625 0z" fill-rule="nonzero"/><path fill="#000000" d="m264.31488 302.2943l0 -37.546875l4.359375 0l0 37.546875l-4.359375 0z" fill-rule="nonzero"/><path fill="#000000" d="m294.8227 293.87244l0 -6.171875l-11.1875 0l0 -2.90625l11.765625 -16.6875l2.578125 0l0 16.6875l3.484375 0l0 2.90625l-3.484375 0l0 6.171875l-3.15625 0zm0 -9.078125l0 -11.609375l-8.078125 11.609375l8.078125 0z" fill-rule="nonzero"/><path fill="#000000" d="m316.643 302.2943l0 -37.546875l4.359375 0l0 37.546875l-4.359375 0z" fill-rule="nonzero"/><path fill="#000000" d="m348.91644 293.87244l-3.15625 0l0 -20.15625q-1.140625 1.078125 -3.0 2.171875q-1.859375 1.09375 -3.328125 1.640625l0 -3.0625q2.65625 -1.25 4.640625 -3.015625q1.984375 -1.78125 2.8125 -3.453125l2.03125 0l0 25.875z" fill-rule="nonzero"/><path fill="#000000" d="m368.97113 302.2943l0 -37.546875l4.359375 0l0 37.546875l-4.359375 0z" fill-rule="nonzero"/><path fill="#000000" d="m394.1977 279.9037q-1.96875 -0.734375 -2.921875 -2.0625q-0.9375 -1.34375 -0.9375 -3.203125q0 -2.8125 2.015625 -4.71875q2.03125 -1.921875 5.375 -1.921875q3.375 0 5.4375 1.96875q2.0625 1.953125 2.0625 4.765625q0 1.796875 -0.953125 3.125q-0.9375 1.3125 -2.84375 2.046875q2.375 0.765625 3.609375 2.5q1.234375 1.71875 1.234375 4.109375q0 3.296875 -2.34375 5.546875q-2.328125 2.25 -6.140625 2.25q-3.8125 0 -6.15625 -2.25q-2.34375 -2.265625 -2.34375 -5.640625q0 -2.515625 1.28125 -4.203125q1.28125 -1.703125 3.625 -2.3125zm-0.625 -5.375q0 1.828125 1.171875 3.0q1.1875 1.15625 3.0625 1.15625q1.828125 0 3.0 -1.140625q1.171875 -1.15625 1.171875 -2.828125q0 -1.75 -1.21875 -2.9375q-1.203125 -1.1875 -2.984375 -1.1875q-1.8125 0 -3.015625 1.171875q-1.1875 1.15625 -1.1875 2.765625zm-1.015625 11.90625q0 1.359375 0.640625 2.625q0.640625 1.265625 1.90625 1.96875q1.265625 0.6875 2.71875 0.6875q2.265625 0 3.734375 -1.453125q1.484375 -1.46875 1.484375 -3.71875q0 -2.28125 -1.515625 -3.78125q-1.515625 -1.5 -3.8125 -1.5q-2.234375 0 -3.703125 1.484375q-1.453125 1.46875 -1.453125 3.6875z" fill-rule="nonzero"/><path fill="#000000" d="m421.29926 302.2943l0 -37.546875l4.359375 0l0 37.546875l-4.359375 0z" fill-rule="nonzero"/><path fill="#000000" d="m441.68207 287.07556l3.15625 -0.421875q0.546875 2.6875 1.859375 3.875q1.3125 1.1875 3.1875 1.1875q2.234375 0 3.765625 -1.546875q1.546875 -1.546875 1.546875 -3.84375q0 -2.171875 -1.421875 -3.578125q-1.421875 -1.421875 -3.625 -1.421875q-0.890625 0 -2.234375 0.34375l0.359375 -2.78125q0.3125 0.046875 0.5 0.046875q2.03125 0 3.640625 -1.046875q1.625 -1.0625 1.625 -3.265625q0 -1.734375 -1.1875 -2.875q-1.171875 -1.15625 -3.03125 -1.15625q-1.84375 0 -3.078125 1.171875q-1.234375 1.15625 -1.578125 3.46875l-3.171875 -0.5625q0.578125 -3.171875 2.625 -4.921875q2.0625 -1.75 5.125 -1.75q2.109375 0 3.875 0.90625q1.78125 0.90625 2.71875 2.46875q0.953125 1.5625 0.953125 3.328125q0 1.65625 -0.90625 3.03125q-0.890625 1.375 -2.640625 2.1875q2.28125 0.515625 3.546875 2.1875q1.265625 1.65625 1.265625 4.15625q0 3.375 -2.46875 5.71875q-2.453125 2.34375 -6.21875 2.34375q-3.390625 0 -5.640625 -2.015625q-2.234375 -2.03125 -2.546875 -5.234375z" fill-rule="nonzero"/><path fill="#000000" d="m473.6274 302.2943l0 -37.546875l4.359375 0l0 37.546875l-4.359375 0z" fill-rule="nonzero"/><path fill="#000000" d="m493.9946 287.12244l3.3125 -0.28125q0.375 2.421875 1.71875 3.65625q1.34375 1.21875 3.25 1.21875q2.28125 0 3.859375 -1.71875q1.578125 -1.734375 1.578125 -4.578125q0 -2.703125 -1.515625 -4.265625q-1.515625 -1.578125 -3.984375 -1.578125q-1.53125 0 -2.765625 0.703125q-1.21875 0.6875 -1.921875 1.796875l-2.96875 -0.390625l2.484375 -13.234375l12.828125 0l0 3.03125l-10.296875 0l-1.375 6.921875q2.3125 -1.625 4.859375 -1.625q3.375 0 5.6875 2.34375q2.328125 2.34375 2.328125 6.015625q0 3.5 -2.03125 6.046875q-2.484375 3.125 -6.765625 3.125q-3.515625 0 -5.75 -1.96875q-2.21875 -1.96875 -2.53125 -5.21875z" fill-rule="nonzero"/><path fill="#000000" d="m525.9555 302.2943l0 -37.546875l4.359375 0l0 37.546875l-4.359375 0z" fill-rule="nonzero"/><path fill="#000000" d="m546.5258 271.4818l0 -3.046875l16.6875 0l0 2.46875q-2.46875 2.609375 -4.890625 6.953125q-2.40625 4.34375 -3.71875 8.9375q-0.953125 3.234375 -1.21875 7.078125l-3.25 0q0.046875 -3.046875 1.1875 -7.34375q1.140625 -4.3125 3.28125 -8.3125q2.140625 -4.0 4.546875 -6.734375l-12.625 0z" fill-rule="nonzero"/><path fill="#000000" d="m578.2836 302.2943l0 -37.546875l4.359375 0l0 37.546875l-4.359375 0z" fill-rule="nonzero"/><path fill="#000000" d="m615.05707 274.4193l-3.140625 0.234375q-0.421875 -1.859375 -1.1875 -2.703125q-1.296875 -1.359375 -3.171875 -1.359375q-1.515625 0 -2.65625 0.84375q-1.484375 1.09375 -2.359375 3.1875q-0.859375 2.09375 -0.890625 5.953125q1.140625 -1.734375 2.796875 -2.578125q1.65625 -0.84375 3.46875 -0.84375q3.15625 0 5.375 2.328125q2.234375 2.328125 2.234375 6.015625q0 2.4375 -1.046875 4.515625q-1.046875 2.078125 -2.875 3.1875q-1.828125 1.109375 -4.15625 1.109375q-3.953125 0 -6.453125 -2.90625q-2.484375 -2.90625 -2.484375 -9.59375q0 -7.46875 2.75 -10.859375q2.40625 -2.953125 6.484375 -2.953125q3.046875 0 4.984375 1.703125q1.953125 1.703125 2.328125 4.71875zm-12.90625 11.109375q0 1.625 0.6875 3.125q0.6875 1.484375 1.9375 2.28125q1.25 0.78125 2.625 0.78125q2.0 0 3.4375 -1.609375q1.453125 -1.625 1.453125 -4.40625q0 -2.671875 -1.4375 -4.203125q-1.421875 -1.546875 -3.578125 -1.546875q-2.140625 0 -3.640625 1.546875q-1.484375 1.53125 -1.484375 4.03125z" fill-rule="nonzero"/><path fill="#000000" fill-opacity="0.0" d="m422.9029 84.661415l1.2283325 294.17325" fill-rule="evenodd"/><path stroke="#000000" stroke-width="4.0" stroke-linejoin="round" stroke-linecap="butt" d="m422.9029 84.661415l1.2283325 294.17325" fill-rule="evenodd"/><path fill="#000000" fill-opacity="0.0" d="m306.45407 402.13385l245.16537 0l0 45.259857l-245.16537 0z" fill-rule="evenodd"/><path fill="#000000" d="m356.19788 426.0045l3.0 0.9375q-0.6875 2.5 -2.296875 3.71875q-1.59375 1.21875 -4.046875 1.21875q-3.046875 0 -5.0 -2.078125q-1.953125 -2.078125 -1.953125 -5.6875q0 -3.8125 1.96875 -5.921875q1.96875 -2.109375 5.171875 -2.109375q2.796875 0 4.546875 1.65625q1.046875 0.984375 1.5625 2.8125l-3.046875 0.734375q-0.28125 -1.1875 -1.140625 -1.875q-0.84375 -0.6875 -2.078125 -0.6875q-1.703125 0 -2.765625 1.21875q-1.046875 1.21875 -1.046875 3.9375q0 2.90625 1.03125 4.140625q1.046875 1.21875 2.71875 1.21875q1.234375 0 2.109375 -0.78125q0.890625 -0.78125 1.265625 -2.453125zm8.418121 5.609375l-2.921875 0l0 -11.0625l2.71875 0l0 1.578125q0.703125 -1.125 1.25 -1.46875q0.5625 -0.359375 1.265625 -0.359375q1.0 0 1.9375 0.5625l-0.90625 2.546875q-0.75 -0.484375 -1.375 -0.484375q-0.625 0 -1.046875 0.34375q-0.421875 0.328125 -0.671875 1.21875q-0.25 0.890625 -0.25 3.703125l0 3.421875zm4.831299 -5.6875q0 -1.453125 0.71875 -2.8125q0.71875 -1.375 2.03125 -2.09375q1.3125 -0.71875 2.9375 -0.71875q2.515625 0 4.109375 1.640625q1.609375 1.625 1.609375 4.109375q0 2.515625 -1.625 4.171875q-1.609375 1.640625 -4.0625 1.640625q-1.53125 0 -2.90625 -0.6875q-1.375 -0.6875 -2.09375 -2.015625q-0.71875 -1.328125 -0.71875 -3.234375zm3.0 0.15625q0 1.640625 0.78125 2.515625q0.78125 0.875 1.921875 0.875q1.140625 0 1.921875 -0.875q0.78125 -0.875 0.78125 -2.53125q0 -1.625 -0.78125 -2.5q-0.78125 -0.875 -1.921875 -0.875q-1.140625 0 -1.921875 0.875q-0.78125 0.875 -0.78125 2.515625zm9.668701 2.375l2.9375 -0.453125q0.1875 0.859375 0.75 1.3125q0.578125 0.4375 1.609375 0.4375q1.140625 0 1.71875 -0.421875q0.375 -0.296875 0.375 -0.78125q0 -0.328125 -0.203125 -0.546875q-0.21875 -0.21875 -0.984375 -0.390625q-3.53125 -0.78125 -4.484375 -1.421875q-1.3125 -0.90625 -1.3125 -2.5q0 -1.4375 1.125 -2.40625q1.140625 -0.984375 3.53125 -0.984375q2.265625 0 3.375 0.75q1.109375 0.734375 1.515625 2.171875l-2.75 0.515625q-0.1875 -0.640625 -0.6875 -0.984375q-0.484375 -0.34375 -1.40625 -0.34375q-1.15625 0 -1.65625 0.3125q-0.328125 0.234375 -0.328125 0.59375q0 0.3125 0.296875 0.53125q0.390625 0.296875 2.71875 0.828125q2.34375 0.53125 3.28125 1.296875q0.90625 0.78125 0.90625 2.1875q0 1.515625 -1.265625 2.609375q-1.265625 1.09375 -3.765625 1.09375q-2.25 0 -3.578125 -0.90625q-1.3125 -0.921875 -1.71875 -2.5zm11.861694 0l2.9375 -0.453125q0.1875 0.859375 0.75 1.3125q0.578125 0.4375 1.609375 0.4375q1.140625 0 1.71875 -0.421875q0.375 -0.296875 0.375 -0.78125q0 -0.328125 -0.203125 -0.546875q-0.21875 -0.21875 -0.984375 -0.390625q-3.53125 -0.78125 -4.484375 -1.421875q-1.3125 -0.90625 -1.3125 -2.5q0 -1.4375 1.125 -2.40625q1.140625 -0.984375 3.53125 -0.984375q2.265625 0 3.375 0.75q1.109375 0.734375 1.515625 2.171875l-2.75 0.515625q-0.1875 -0.640625 -0.6875 -0.984375q-0.484375 -0.34375 -1.40625 -0.34375q-1.15625 0 -1.65625 0.3125q-0.328125 0.234375 -0.328125 0.59375q0 0.3125 0.296875 0.53125q0.390625 0.296875 2.71875 0.828125q2.34375 0.53125 3.28125 1.296875q0.90625 0.78125 0.90625 2.1875q0 1.515625 -1.265625 2.609375q-1.265625 1.09375 -3.765625 1.09375q-2.25 0 -3.578125 -0.90625q-1.3125 -0.921875 -1.71875 -2.5zm12.283569 -4.390625q0 -2.328125 0.703125 -3.90625q0.515625 -1.171875 1.421875 -2.09375q0.90625 -0.921875 1.96875 -1.375q1.4375 -0.609375 3.296875 -0.609375q3.375 0 5.390625 2.09375q2.03125 2.09375 2.03125 5.828125q0 3.6875 -2.015625 5.78125q-2.0 2.09375 -5.359375 2.09375q-3.40625 0 -5.421875 -2.078125q-2.015625 -2.078125 -2.015625 -5.734375zm3.1875 -0.09375q0 2.59375 1.1875 3.9375q1.203125 1.328125 3.046875 1.328125q1.84375 0 3.015625 -1.328125q1.1875 -1.328125 1.1875 -3.984375q0 -2.625 -1.15625 -3.90625q-1.140625 -1.296875 -3.046875 -1.296875q-1.90625 0 -3.078125 1.3125q-1.15625 1.296875 -1.15625 3.9375zm17.058472 7.640625l-4.46875 -11.0625l3.078125 0l2.078125 5.640625l0.609375 1.890625q0.234375 -0.71875 0.296875 -0.953125q0.15625 -0.46875 0.3125 -0.9375l2.109375 -5.640625l3.0 0l-4.390625 11.0625l-2.625 0zm15.221069 -3.515625l2.90625 0.484375q-0.546875 1.609375 -1.765625 2.453125q-1.21875 0.828125 -3.03125 0.828125q-2.890625 0 -4.28125 -1.890625q-1.09375 -1.5 -1.09375 -3.8125q0 -2.75 1.4375 -4.296875q1.4375 -1.5625 3.640625 -1.5625q2.46875 0 3.890625 1.640625q1.421875 1.625 1.359375 4.984375l-7.328125 0q0.03125 1.296875 0.703125 2.03125q0.6875 0.71875 1.703125 0.71875q0.6875 0 1.15625 -0.375q0.46875 -0.375 0.703125 -1.203125zm0.171875 -2.96875q-0.03125 -1.265625 -0.65625 -1.921875q-0.625 -0.671875 -1.53125 -0.671875q-0.953125 0 -1.578125 0.703125q-0.625 0.703125 -0.609375 1.890625l4.375 0zm8.080444 6.484375l-2.921875 0l0 -11.0625l2.71875 0l0 1.578125q0.703125 -1.125 1.25 -1.46875q0.5625 -0.359375 1.265625 -0.359375q1.0 0 1.9375 0.5625l-0.90625 2.546875q-0.75 -0.484375 -1.375 -0.484375q-0.625 0 -1.046875 0.34375q-0.421875 0.328125 -0.671875 1.21875q-0.25 0.890625 -0.25 3.703125l0 3.421875zm11.444458 0l0 -15.265625l4.953125 0q2.8125 0 3.671875 0.234375q1.296875 0.34375 2.1875 1.5q0.890625 1.140625 0.890625 2.953125q0 1.40625 -0.515625 2.375q-0.515625 0.953125 -1.296875 1.5q-0.78125 0.546875 -1.59375 0.71875q-1.109375 0.21875 -3.203125 0.21875l-2.0 0l0 5.765625l-3.09375 0zm3.09375 -12.6875l0 4.328125l1.6875 0q1.8125 0 2.421875 -0.234375q0.625 -0.234375 0.96875 -0.75q0.359375 -0.515625 0.359375 -1.1875q0 -0.828125 -0.5 -1.359375q-0.484375 -0.546875 -1.234375 -0.6875q-0.546875 -0.109375 -2.21875 -0.109375l-1.484375 0zm10.4444275 7.0q0 -1.453125 0.71875 -2.8125q0.71875 -1.375 2.03125 -2.09375q1.3125 -0.71875 2.9375 -0.71875q2.515625 0 4.109375 1.640625q1.609375 1.625 1.609375 4.109375q0 2.515625 -1.625 4.171875q-1.609375 1.640625 -4.0625 1.640625q-1.53125 0 -2.90625 -0.6875q-1.375 -0.6875 -2.09375 -2.015625q-0.71875 -1.328125 -0.71875 -3.234375zm3.0 0.15625q0 1.640625 0.78125 2.515625q0.78125 0.875 1.921875 0.875q1.140625 0 1.921875 -0.875q0.78125 -0.875 0.78125 -2.53125q0 -1.625 -0.78125 -2.5q-0.78125 -0.875 -1.921875 -0.875q-1.140625 0 -1.921875 0.875q-0.78125 0.875 -0.78125 2.515625zm10.699951 -7.03125l0 -2.703125l2.921875 0l0 2.703125l-2.921875 0zm0 12.5625l0 -11.0625l2.921875 0l0 11.0625l-2.921875 0zm15.988159 0l-2.921875 0l0 -5.640625q0 -1.796875 -0.1875 -2.3125q-0.1875 -0.53125 -0.609375 -0.828125q-0.421875 -0.296875 -1.015625 -0.296875q-0.765625 0 -1.375 0.421875q-0.59375 0.421875 -0.828125 1.109375q-0.21875 0.6875 -0.21875 2.53125l0 5.015625l-2.921875 0l0 -11.0625l2.71875 0l0 1.625q1.4375 -1.875 3.640625 -1.875q0.96875 0 1.765625 0.359375q0.8125 0.34375 1.21875 0.890625q0.40625 0.53125 0.5625 1.21875q0.171875 0.6875 0.171875 1.96875l0 6.875zm8.043701 -11.0625l0 2.328125l-2.0 0l0 4.46875q0 1.34375 0.046875 1.578125q0.0625 0.21875 0.265625 0.375q0.203125 0.140625 0.5 0.140625q0.40625 0 1.171875 -0.28125l0.25 2.265625q-1.015625 0.4375 -2.3125 0.4375q-0.796875 0 -1.4375 -0.265625q-0.625 -0.265625 -0.921875 -0.6875q-0.296875 -0.421875 -0.40625 -1.140625q-0.09375 -0.515625 -0.09375 -2.0625l0 -4.828125l-1.34375 0l0 -2.328125l1.34375 0l0 -2.1875l2.9375 -1.71875l0 3.90625l2.0 0z" fill-rule="nonzero"/><path fill="#000000" d="m702.3753 208.74803l129.37012 0l0 -11.314957l22.629883 22.629913l-22.629883 22.629929l0 -11.314957l-129.37012 0z" fill-rule="evenodd"/><path stroke="#000000" stroke-width="1.0" stroke-linejoin="round" stroke-linecap="butt" d="m702.3753 208.74803l129.37012 0l0 -11.314957l22.629883 22.629913l-22.629883 22.629929l0 -11.314957l-129.37012 0z" fill-rule="evenodd"/><path fill="#cfe2f3" d="m898.68506 190.16536l233.7638 0l0 59.74803l-233.7638 0z" fill-rule="evenodd"/><path stroke="#000000" stroke-width="1.0" stroke-linejoin="round" stroke-linecap="butt" d="m898.68506 190.16536l233.7638 0l0 59.74803l-233.7638 0z" fill-rule="evenodd"/><path fill="#000000" fill-opacity="0.0" d="m914.8819 186.14961l206.70868 0l0 67.87401l-206.70868 0z" fill-rule="evenodd"/><path fill="#000000" d="m947.8583 230.50273l0 3.046875l-17.03125 0q-0.03125 -1.140625 0.359375 -2.203125q0.65625 -1.734375 2.078125 -3.421875q1.4375 -1.6875 4.15625 -3.90625q4.203125 -3.4375 5.671875 -5.453125q1.484375 -2.015625 1.484375 -3.8125q0 -1.875 -1.359375 -3.15625q-1.34375 -1.296875 -3.5 -1.296875q-2.28125 0 -3.65625 1.375q-1.375 1.359375 -1.390625 3.78125l-3.25 -0.328125q0.328125 -3.640625 2.5 -5.546875q2.1875 -1.90625 5.875 -1.90625q3.703125 0 5.859375 2.0625q2.171875 2.046875 2.171875 5.09375q0 1.546875 -0.640625 3.046875q-0.625 1.484375 -2.09375 3.140625q-1.46875 1.65625 -4.875 4.53125q-2.859375 2.390625 -3.671875 3.25q-0.796875 0.84375 -1.328125 1.703125l12.640625 0z" fill-rule="nonzero"/><path fill="#000000" d="m963.1942 241.97148l0 -37.546875l4.359375 0l0 37.546875l-4.359375 0z" fill-rule="nonzero"/><path fill="#000000" d="m993.702 233.5496l0 -6.171875l-11.1875 0l0 -2.90625l11.765625 -16.6875l2.578125 0l0 16.6875l3.484375 0l0 2.90625l-3.484375 0l0 6.171875l-3.15625 0zm0 -9.078125l0 -11.609375l-8.078125 11.609375l8.078125 0z" fill-rule="nonzero"/><path fill="#000000" d="m1015.52234 241.97148l0 -37.546875l4.359375 0l0 37.546875l-4.359375 0z" fill-rule="nonzero"/><path fill="#000000" d="m1047.7958 233.5496l-3.15625 0l0 -20.15625q-1.140625 1.078125 -3.0 2.171875q-1.859375 1.09375 -3.328125 1.640625l0 -3.0625q2.65625 -1.25 4.640625 -3.015625q1.984375 -1.78125 2.8125 -3.453125l2.03125 0l0 25.875z" fill-rule="nonzero"/><path fill="#000000" d="m1067.8505 241.97148l0 -37.546875l4.359375 0l0 37.546875l-4.359375 0z" fill-rule="nonzero"/><path fill="#000000" d="m1093.077 219.58086q-1.96875 -0.734375 -2.921875 -2.0625q-0.9375 -1.34375 -0.9375 -3.203125q0 -2.8125 2.015625 -4.71875q2.03125 -1.921875 5.375 -1.921875q3.375 0 5.4375 1.96875q2.0625 1.953125 2.0625 4.765625q0 1.796875 -0.953125 3.125q-0.9375 1.3125 -2.84375 2.046875q2.375 0.765625 3.609375 2.5q1.234375 1.71875 1.234375 4.109375q0 3.296875 -2.34375 5.546875q-2.328125 2.25 -6.140625 2.25q-3.8125 0 -6.15625 -2.25q-2.34375 -2.265625 -2.34375 -5.640625q0 -2.515625 1.28125 -4.203125q1.28125 -1.703125 3.625 -2.3125zm-0.625 -5.375q0 1.828125 1.171875 3.0q1.1875 1.15625 3.0625 1.15625q1.828125 0 3.0 -1.140625q1.171875 -1.15625 1.171875 -2.828125q0 -1.75 -1.21875 -2.9375q-1.203125 -1.1875 -2.984375 -1.1875q-1.8125 0 -3.015625 1.171875q-1.1875 1.15625 -1.1875 2.765625zm-1.015625 11.90625q0 1.359375 0.640625 2.625q0.640625 1.265625 1.90625 1.96875q1.265625 0.6875 2.71875 0.6875q2.265625 0 3.734375 -1.453125q1.484375 -1.46875 1.484375 -3.71875q0 -2.28125 -1.515625 -3.78125q-1.515625 -1.5 -3.8125 -1.5q-2.234375 0 -3.703125 1.484375q-1.453125 1.46875 -1.453125 3.6875z" fill-rule="nonzero"/><path fill="#4a86e8" d="m1132.4489 190.1181l233.7638 0l0 59.74803l-233.7638 0z" fill-rule="evenodd"/><path stroke="#000000" stroke-width="1.0" stroke-linejoin="round" stroke-linecap="butt" d="m1132.4489 190.1181l233.7638 0l0 59.74803l-233.7638 0z" fill-rule="evenodd"/><path fill="#000000" fill-opacity="0.0" d="m1148.6456 186.10236l206.70874 0l0 67.87402l-206.70874 0z" fill-rule="evenodd"/><path fill="#000000" d="m1165.0127 226.70549l3.15625 -0.421875q0.546875 2.6875 1.859375 3.875q1.3125 1.1875 3.1875 1.1875q2.234375 0 3.765625 -1.546875q1.546875 -1.546875 1.546875 -3.84375q0 -2.171875 -1.421875 -3.578125q-1.421875 -1.421875 -3.625 -1.421875q-0.890625 0 -2.234375 0.34375l0.359375 -2.78125q0.3125 0.046875 0.5 0.046875q2.03125 0 3.640625 -1.046875q1.625 -1.0625 1.625 -3.265625q0 -1.734375 -1.1875 -2.875q-1.171875 -1.15625 -3.03125 -1.15625q-1.84375 0 -3.078125 1.171875q-1.234375 1.15625 -1.578125 3.46875l-3.171875 -0.5625q0.578125 -3.171875 2.625 -4.921875q2.0625 -1.75 5.125 -1.75q2.109375 0 3.875 0.90625q1.78125 0.90625 2.71875 2.46875q0.953125 1.5625 0.953125 3.328125q0 1.65625 -0.90625 3.03125q-0.890625 1.375 -2.640625 2.1875q2.28125 0.515625 3.546875 2.1875q1.265625 1.65625 1.265625 4.15625q0 3.375 -2.46875 5.71875q-2.453125 2.34375 -6.21875 2.34375q-3.390625 0 -5.640625 -2.015625q-2.234375 -2.03125 -2.546875 -5.234375z" fill-rule="nonzero"/><path fill="#000000" d="m1196.958 241.92424l0 -37.546875l4.359375 0l0 37.546875l-4.359375 0z" fill-rule="nonzero"/><path fill="#000000" d="m1217.3252 226.75237l3.3125 -0.28125q0.375 2.421875 1.71875 3.65625q1.34375 1.21875 3.25 1.21875q2.28125 0 3.859375 -1.71875q1.578125 -1.734375 1.578125 -4.578125q0 -2.703125 -1.515625 -4.265625q-1.515625 -1.578125 -3.984375 -1.578125q-1.53125 0 -2.765625 0.703125q-1.21875 0.6875 -1.921875 1.796875l-2.96875 -0.390625l2.484375 -13.234375l12.828125 0l0 3.03125l-10.296875 0l-1.375 6.921875q2.3125 -1.625 4.859375 -1.625q3.375 0 5.6875 2.34375q2.328125 2.34375 2.328125 6.015625q0 3.5 -2.03125 6.046875q-2.484375 3.125 -6.765625 3.125q-3.515625 0 -5.75 -1.96875q-2.21875 -1.96875 -2.53125 -5.21875z" fill-rule="nonzero"/><path fill="#000000" d="m1249.2861 241.92424l0 -37.546875l4.359375 0l0 37.546875l-4.359375 0z" fill-rule="nonzero"/><path fill="#000000" d="m1269.8564 211.11174l0 -3.046875l16.6875 0l0 2.46875q-2.46875 2.609375 -4.890625 6.953125q-2.40625 4.34375 -3.71875 8.9375q-0.953125 3.234375 -1.21875 7.078125l-3.25 0q0.046875 -3.046875 1.1875 -7.34375q1.140625 -4.3125 3.28125 -8.3125q2.140625 -4.0 4.546875 -6.734375l-12.625 0z" fill-rule="nonzero"/><path fill="#000000" d="m1301.6143 241.92424l0 -37.546875l4.359375 0l0 37.546875l-4.359375 0z" fill-rule="nonzero"/><path fill="#000000" d="m1338.3877 214.04924l-3.140625 0.234375q-0.421875 -1.859375 -1.1875 -2.703125q-1.296875 -1.359375 -3.171875 -1.359375q-1.515625 0 -2.65625 0.84375q-1.484375 1.09375 -2.359375 3.1875q-0.859375 2.09375 -0.890625 5.953125q1.140625 -1.734375 2.796875 -2.578125q1.65625 -0.84375 3.46875 -0.84375q3.15625 0 5.375 2.328125q2.234375 2.328125 2.234375 6.015625q0 2.4375 -1.046875 4.515625q-1.046875 2.078125 -2.875 3.1875q-1.828125 1.109375 -4.15625 1.109375q-3.953125 0 -6.453125 -2.90625q-2.484375 -2.90625 -2.484375 -9.59375q0 -7.46875 2.75 -10.859375q2.40625 -2.953125 6.484375 -2.953125q3.046875 0 4.984375 1.703125q1.953125 1.703125 2.328125 4.71875zm-12.90625 11.109375q0 1.625 0.6875 3.125q0.6875 1.484375 1.9375 2.28125q1.25 0.78125 2.625 0.78125q2.0 0 3.4375 -1.609375q1.453125 -1.625 1.453125 -4.40625q0 -2.671875 -1.4375 -4.203125q-1.421875 -1.546875 -3.578125 -1.546875q-2.140625 0 -3.640625 1.546875q-1.484375 1.53125 -1.484375 4.03125z" fill-rule="nonzero"/><path fill="#000000" fill-opacity="0.0" d="m15.585301 134.2126l141.32285 0l0 45.259842l-141.32285 0z" fill-rule="evenodd"/><path fill="#000000" d="m26.132177 163.6926l0 -15.265625l4.953125 0q2.812498 0 3.671873 0.234375q1.296875 0.34375 2.1875 1.5q0.890625 1.140625 0.890625 2.953125q0 1.40625 -0.515625 2.375q-0.515625 0.953125 -1.296875 1.5q-0.78125 0.546875 -1.59375 0.71875q-1.109375 0.21875 -3.203123 0.21875l-2.0 0l0 5.765625l-3.09375 0zm3.09375 -12.6875l0 4.328125l1.6875 0q1.8124981 0 2.421873 -0.234375q0.625 -0.234375 0.96875 -0.75q0.359375 -0.515625 0.359375 -1.1875q0 -0.828125 -0.5 -1.359375q-0.484375 -0.546875 -1.234375 -0.6875q-0.546875 -0.109375 -2.218748 -0.109375l-1.484375 0zm13.303816 5.0l-2.65625 -0.484375q0.453125 -1.59375 1.546875 -2.359375q1.09375 -0.78125 3.25 -0.78125q1.953125 0 2.90625 0.46875q0.96875 0.453125 1.359375 1.171875q0.390625 0.71875 0.390625 2.625l-0.03125 3.40625q0 1.46875 0.125 2.15625q0.140625 0.6875 0.53125 1.484375l-2.890625 0q-0.109375 -0.296875 -0.28125 -0.859375q-0.078125 -0.265625 -0.109375 -0.34375q-0.75 0.71875 -1.609375 1.09375q-0.84375 0.359375 -1.8125 0.359375q-1.703125 0 -2.6875 -0.921875q-0.984375 -0.9375 -0.984375 -2.34375q0 -0.9375 0.4375 -1.671875q0.453125 -0.734375 1.25 -1.125q0.8125 -0.390625 2.34375 -0.6875q2.046875 -0.390625 2.84375 -0.71875l0 -0.296875q0 -0.84375 -0.421875 -1.203125q-0.421875 -0.359375 -1.578125 -0.359375q-0.78125 0 -1.21875 0.3125q-0.4375 0.3125 -0.703125 1.078125zm3.921875 2.375q-0.5625 0.1875 -1.78125 0.453125q-1.21875 0.25 -1.59375 0.5q-0.578125 0.40625 -0.578125 1.03125q0 0.625 0.453125 1.078125q0.46875 0.4375 1.171875 0.4375q0.796875 0 1.515625 -0.515625q0.53125 -0.40625 0.6875 -0.96875q0.125 -0.375 0.125 -1.4375l0 -0.578125zm8.549194 5.3125l-2.921875 0l0 -11.0625l2.71875 0l0 1.578125q0.703125 -1.125 1.25 -1.46875q0.5625 -0.359375 1.265625 -0.359375q1.0 0 1.9375 0.5625l-0.90625 2.546875q-0.75 -0.484375 -1.375 -0.484375q-0.625 0 -1.046875 0.34375q-0.421875 0.328125 -0.671875 1.21875q-0.25 0.890625 -0.25 3.703125l0 3.421875zm11.909443 -3.515625l2.90625 0.484375q-0.546875 1.609375 -1.765625 2.453125q-1.21875 0.828125 -3.03125 0.828125q-2.8906288 0 -4.281254 -1.890625q-1.09375 -1.5 -1.09375 -3.8125q0 -2.75 1.4375 -4.296875q1.4375 -1.5625 3.6406288 -1.5625q2.46875 0 3.890625 1.640625q1.421875 1.625 1.359375 4.984375l-7.328129 0q0.03125 1.296875 0.703125 2.03125q0.6875038 0.71875 1.7031288 0.71875q0.6875 0 1.15625 -0.375q0.46875 -0.375 0.703125 -1.203125zm0.171875 -2.96875q-0.03125 -1.265625 -0.65625 -1.921875q-0.625 -0.671875 -1.53125 -0.671875q-0.9531288 0 -1.5781288 0.703125q-0.625 0.703125 -0.609375 1.890625l4.375004 0zm15.346069 6.484375l-2.921875 0l0 -5.640625q0 -1.796875 -0.1875 -2.3125q-0.1875 -0.53125 -0.609375 -0.828125q-0.421875 -0.296875 -1.015625 -0.296875q-0.765625 0 -1.375 0.421875q-0.59375 0.421875 -0.828125 1.109375q-0.21875 0.6875 -0.21875 2.53125l0 5.015625l-2.921875 0l0 -11.0625l2.71875 0l0 1.625q1.4375 -1.875 3.640625 -1.875q0.96875 0 1.765625 0.359375q0.8125 0.34375 1.21875 0.890625q0.40625 0.53125 0.5625 1.21875q0.171875 0.6875 0.171875 1.96875l0 6.875zm8.043701 -11.0625l0 2.328125l-2.0 0l0 4.46875q0 1.34375 0.046875 1.578125q0.0625 0.21875 0.265625 0.375q0.203125 0.140625 0.5 0.140625q0.40625 0 1.171875 -0.28125l0.25 2.265625q-1.015625 0.4375 -2.3125 0.4375q-0.796875 0 -1.4375 -0.265625q-0.625 -0.265625 -0.921875 -0.6875q-0.296875 -0.421875 -0.40625 -1.140625q-0.09375 -0.515625 -0.09375 -2.0625l0 -4.828125l-1.34375 0l0 -2.328125l1.34375 0l0 -2.1875l2.9375 -1.71875l0 3.90625l2.0 0zm14.809326 11.0625l-2.921875 0l0 -11.03125q-1.609375 1.5 -3.78125 2.21875l0 -2.65625q1.140625 -0.375 2.484375 -1.421875q1.34375 -1.046875 1.84375 -2.4375l2.375 0l0 15.328125zm11.490463 -8.140625l0 -2.921875l2.921875 0l0 2.921875l-2.921875 0zm0 8.140625l0 -2.921875l2.921875 0l0 2.921875l-2.921875 0z" fill-rule="nonzero"/><path fill="#000000" fill-opacity="0.0" d="m15.585301 250.48819l141.32285 0l0 45.259827l-141.32285 0z" fill-rule="evenodd"/><path fill="#000000" d="m26.132177 279.9682l0 -15.265625l4.953125 0q2.812498 0 3.671873 0.234375q1.296875 0.34375 2.1875 1.5q0.890625 1.140625 0.890625 2.953125q0 1.40625 -0.515625 2.375q-0.515625 0.953125 -1.296875 1.5q-0.78125 0.546875 -1.59375 0.71875q-1.109375 0.21875 -3.203123 0.21875l-2.0 0l0 5.765625l-3.09375 0zm3.09375 -12.6875l0 4.328125l1.6875 0q1.8124981 0 2.421873 -0.234375q0.625 -0.234375 0.96875 -0.75q0.359375 -0.515625 0.359375 -1.1875q0 -0.828125 -0.5 -1.359375q-0.484375 -0.546875 -1.234375 -0.6875q-0.546875 -0.109375 -2.218748 -0.109375l-1.484375 0zm13.303816 5.0l-2.65625 -0.484375q0.453125 -1.59375 1.546875 -2.359375q1.09375 -0.78125 3.25 -0.78125q1.953125 0 2.90625 0.46875q0.96875 0.453125 1.359375 1.171875q0.390625 0.71875 0.390625 2.625l-0.03125 3.40625q0 1.46875 0.125 2.15625q0.140625 0.6875 0.53125 1.484375l-2.890625 0q-0.109375 -0.296875 -0.28125 -0.859375q-0.078125 -0.265625 -0.109375 -0.34375q-0.75 0.71875 -1.609375 1.09375q-0.84375 0.359375 -1.8125 0.359375q-1.703125 0 -2.6875 -0.921875q-0.984375 -0.9375 -0.984375 -2.34375q0 -0.9375 0.4375 -1.671875q0.453125 -0.734375 1.25 -1.125q0.8125 -0.390625 2.34375 -0.6875q2.046875 -0.390625 2.84375 -0.71875l0 -0.296875q0 -0.84375 -0.421875 -1.203125q-0.421875 -0.359375 -1.578125 -0.359375q-0.78125 0 -1.21875 0.3125q-0.4375 0.3125 -0.703125 1.078125zm3.921875 2.375q-0.5625 0.1875 -1.78125 0.453125q-1.21875 0.25 -1.59375 0.5q-0.578125 0.40625 -0.578125 1.03125q0 0.625 0.453125 1.078125q0.46875 0.4375 1.171875 0.4375q0.796875 0 1.515625 -0.515625q0.53125 -0.40625 0.6875 -0.96875q0.125 -0.375 0.125 -1.4375l0 -0.578125zm8.549194 5.3125l-2.921875 0l0 -11.0625l2.71875 0l0 1.578125q0.703125 -1.125 1.25 -1.46875q0.5625 -0.359375 1.265625 -0.359375q1.0 0 1.9375 0.5625l-0.90625 2.546875q-0.75 -0.484375 -1.375 -0.484375q-0.625 0 -1.046875 0.34375q-0.421875 0.328125 -0.671875 1.21875q-0.25 0.890625 -0.25 3.703125l0 3.421875zm11.909443 -3.515625l2.90625 0.484375q-0.546875 1.609375 -1.765625 2.453125q-1.21875 0.828125 -3.03125 0.828125q-2.8906288 0 -4.281254 -1.890625q-1.09375 -1.5 -1.09375 -3.8125q0 -2.75 1.4375 -4.296875q1.4375 -1.5625 3.6406288 -1.5625q2.46875 0 3.890625 1.640625q1.421875 1.625 1.359375 4.984375l-7.328129 0q0.03125 1.296875 0.703125 2.03125q0.6875038 0.71875 1.7031288 0.71875q0.6875 0 1.15625 -0.375q0.46875 -0.375 0.703125 -1.203125zm0.171875 -2.96875q-0.03125 -1.265625 -0.65625 -1.921875q-0.625 -0.671875 -1.53125 -0.671875q-0.9531288 0 -1.5781288 0.703125q-0.625 0.703125 -0.609375 1.890625l4.375004 0zm15.346069 6.484375l-2.921875 0l0 -5.640625q0 -1.796875 -0.1875 -2.3125q-0.1875 -0.53125 -0.609375 -0.828125q-0.421875 -0.296875 -1.015625 -0.296875q-0.765625 0 -1.375 0.421875q-0.59375 0.421875 -0.828125 1.109375q-0.21875 0.6875 -0.21875 2.53125l0 5.015625l-2.921875 0l0 -11.0625l2.71875 0l0 1.625q1.4375 -1.875 3.640625 -1.875q0.96875 0 1.765625 0.359375q0.8125 0.34375 1.21875 0.890625q0.40625 0.53125 0.5625 1.21875q0.171875 0.6875 0.171875 1.96875l0 6.875zm8.043701 -11.0625l0 2.328125l-2.0 0l0 4.46875q0 1.34375 0.046875 1.578125q0.0625 0.21875 0.265625 0.375q0.203125 0.140625 0.5 0.140625q0.40625 0 1.171875 -0.28125l0.25 2.265625q-1.015625 0.4375 -2.3125 0.4375q-0.796875 0 -1.4375 -0.265625q-0.625 -0.265625 -0.921875 -0.6875q-0.296875 -0.421875 -0.40625 -1.140625q-0.09375 -0.515625 -0.09375 -2.0625l0 -4.828125l-1.34375 0l0 -2.328125l1.34375 0l0 -2.1875l2.9375 -1.71875l0 3.90625l2.0 0zm17.199951 8.34375l0 2.71875l-10.25 0q0.171875 -1.546875 1.0 -2.921875q0.828125 -1.375 3.296875 -3.65625q1.96875 -1.84375 2.421875 -2.5q0.609375 -0.90625 0.609375 -1.796875q0 -0.96875 -0.53125 -1.5q-0.53125 -0.53125 -1.453125 -0.53125q-0.921875 0 -1.46875 0.5625q-0.53125 0.546875 -0.609375 1.828125l-2.921875 -0.296875q0.265625 -2.40625 1.640625 -3.453125q1.375 -1.0625 3.4375 -1.0625q2.25 0 3.53125 1.21875q1.296875 1.21875 1.296875 3.03125q0 1.03125 -0.375 1.96875q-0.359375 0.921875 -1.15625 1.9375q-0.53125 0.6875 -1.921875 1.953125q-1.375 1.265625 -1.75 1.6875q-0.375 0.421875 -0.59375 0.8125l5.796875 0zm9.099838 -5.421875l0 -2.921875l2.921875 0l0 2.921875l-2.921875 0zm0 8.140625l0 -2.921875l2.921875 0l0 2.921875l-2.921875 0z" fill-rule="nonzero"/><path fill="#000000" fill-opacity="0.0" d="m1060.3097 289.13385l141.32288 0l0 96.944885l-141.32288 0z" fill-rule="evenodd"/><path fill="#000000" d="m1083.9099 311.067q0 -2.328125 0.703125 -3.90625q0.515625 -1.171875 1.421875 -2.09375q0.90625 -0.921875 1.96875 -1.375q1.4375 -0.609375 3.296875 -0.609375q3.375 0 5.390625 2.09375q2.03125 2.09375 2.03125 5.828125q0 3.6875 -2.015625 5.78125q-2.0 2.09375 -5.359375 2.09375q-3.40625 0 -5.421875 -2.078125q-2.015625 -2.078125 -2.015625 -5.734375zm3.1875 -0.09375q0 2.59375 1.1875 3.9375q1.203125 1.328125 3.046875 1.328125q1.84375 0 3.015625 -1.328125q1.1875 -1.328125 1.1875 -3.984375q0 -2.625 -1.15625 -3.90625q-1.140625 -1.296875 -3.046875 -1.296875q-1.90625 0 -3.078125 1.3125q-1.15625 1.296875 -1.15625 3.9375zm12.730347 -3.421875l1.625 0l0 -0.828125q0 -1.390625 0.296875 -2.078125q0.296875 -0.6875 1.09375 -1.125q0.796875 -0.4375 2.015625 -0.4375q1.25 0 2.453125 0.375l-0.40625 2.046875q-0.6875 -0.171875 -1.34375 -0.171875q-0.625 0 -0.90625 0.296875q-0.28125 0.296875 -0.28125 1.140625l0 0.78125l2.1875 0l0 2.296875l-2.1875 0l0 8.765625l-2.921875 0l0 -8.765625l-1.625 0l0 -2.296875zm7.102417 0l1.625 0l0 -0.828125q0 -1.390625 0.296875 -2.078125q0.296875 -0.6875 1.09375 -1.125q0.796875 -0.4375 2.015625 -0.4375q1.25 0 2.453125 0.375l-0.40625 2.046875q-0.6875 -0.171875 -1.34375 -0.171875q-0.625 0 -0.90625 0.296875q-0.28125 0.296875 -0.28125 1.140625l0 0.78125l2.1875 0l0 2.296875l-2.1875 0l0 8.765625l-2.921875 0l0 -8.765625l-1.625 0l0 -2.296875zm7.352417 7.90625l2.9375 -0.453125q0.1875 0.859375 0.75 1.3125q0.578125 0.4375 1.609375 0.4375q1.140625 0 1.71875 -0.421875q0.375 -0.296875 0.375 -0.78125q0 -0.328125 -0.203125 -0.546875q-0.21875 -0.21875 -0.984375 -0.390625q-3.53125 -0.78125 -4.484375 -1.421875q-1.3125 -0.90625 -1.3125 -2.5q0 -1.4375 1.125 -2.40625q1.140625 -0.984375 3.53125 -0.984375q2.265625 0 3.375 0.75q1.109375 0.734375 1.515625 2.171875l-2.75 0.515625q-0.1875 -0.640625 -0.6875 -0.984375q-0.484375 -0.34375 -1.40625 -0.34375q-1.15625 0 -1.65625 0.3125q-0.328125 0.234375 -0.328125 0.59375q0 0.3125 0.296875 0.53125q0.390625 0.296875 2.71875 0.828125q2.34375 0.53125 3.28125 1.296875q0.90625 0.78125 0.90625 2.1875q0 1.515625 -1.265625 2.609375q-1.265625 1.09375 -3.765625 1.09375q-2.25 0 -3.578125 -0.90625q-1.3125 -0.921875 -1.71875 -2.5zm12.814819 -7.90625l2.71875 0l0 1.625q0.53125 -0.828125 1.4375 -1.34375q0.90625 -0.53125 2.015625 -0.53125q1.921875 0 3.265625 1.515625q1.34375 1.5 1.34375 4.203125q0 2.765625 -1.359375 4.3125q-1.34375 1.53125 -3.265625 1.53125q-0.921875 0 -1.671875 -0.359375q-0.734375 -0.375 -1.5625 -1.25l0 5.5625l-2.921875 0l0 -15.265625zm2.890625 5.34375q0 1.859375 0.734375 2.75q0.75 0.890625 1.8125 0.890625q1.015625 0 1.6875 -0.8125q0.6875 -0.8125 0.6875 -2.6875q0 -1.734375 -0.703125 -2.578125q-0.703125 -0.84375 -1.734375 -0.84375q-1.0625 0 -1.78125 0.828125q-0.703125 0.828125 -0.703125 2.453125zm13.012451 5.71875l-2.921875 0l0 -11.0625l2.71875 0l0 1.578125q0.703125 -1.125 1.25 -1.46875q0.5625 -0.359375 1.265625 -0.359375q1.0 0 1.9375 0.5625l-0.90625 2.546875q-0.75 -0.484375 -1.375 -0.484375q-0.625 0 -1.046875 0.34375q-0.421875 0.328125 -0.671875 1.21875q-0.25 0.890625 -0.25 3.703125l0 3.421875zm5.503174 -12.5625l0 -2.703125l2.921875 0l0 2.703125l-2.921875 0zm0 12.5625l0 -11.0625l2.921875 0l0 11.0625l-2.921875 0zm15.988159 0l-2.921875 0l0 -5.640625q0 -1.796875 -0.1875 -2.3125q-0.1875 -0.53125 -0.609375 -0.828125q-0.421875 -0.296875 -1.015625 -0.296875q-0.765625 0 -1.375 0.421875q-0.59375 0.421875 -0.828125 1.109375q-0.21875 0.6875 -0.21875 2.53125l0 5.015625l-2.921875 0l0 -11.0625l2.71875 0l0 1.625q1.4375 -1.875 3.640625 -1.875q0.96875 0 1.765625 0.359375q0.8125 0.34375 1.21875 0.890625q0.40625 0.53125 0.5625 1.21875q0.171875 0.6875 0.171875 1.96875l0 6.875zm2.6999512 0.734375l3.34375 0.40625q0.078125 0.578125 0.375 0.796875q0.421875 0.3125 1.3125 0.3125q1.15625 0 1.71875 -0.34375q0.390625 -0.234375 0.59375 -0.734375q0.125 -0.375 0.125 -1.34375l0 -1.625q-1.3125 1.796875 -3.3125 1.796875q-2.21875 0 -3.53125 -1.890625q-1.015625 -1.484375 -1.015625 -3.703125q0 -2.78125 1.328125 -4.25q1.34375 -1.46875 3.34375 -1.46875q2.046875 0 3.375 1.796875l0 -1.546875l2.734375 0l0 9.921875q0 1.96875 -0.328125 2.9375q-0.3125 0.96875 -0.890625 1.515625q-0.578125 0.546875 -1.5625 0.859375q-0.96875 0.3125 -2.453125 0.3125q-2.8125 0 -4.0 -0.96875q-1.171875 -0.953125 -1.171875 -2.4375q0 -0.140625 0.015625 -0.34375zm2.609375 -6.5q0 1.765625 0.671875 2.59375q0.6875 0.8125 1.6875 0.8125q1.078125 0 1.8125 -0.84375q0.75 -0.84375 0.75 -2.484375q0 -1.71875 -0.71875 -2.546875q-0.703125 -0.84375 -1.78125 -0.84375q-1.0625 0 -1.75 0.828125q-0.671875 0.8125 -0.671875 2.484375z" fill-rule="nonzero"/><path fill="#000000" d="m1119.4481 336.667q0 -2.328125 0.703125 -3.90625q0.515625 -1.171875 1.421875 -2.09375q0.90625 -0.921875 1.96875 -1.375q1.4375 -0.609375 3.296875 -0.609375q3.375 0 5.390625 2.09375q2.03125 2.09375 2.03125 5.828125q0 3.6875 -2.015625 5.78125q-2.0 2.09375 -5.359375 2.09375q-3.40625 0 -5.421875 -2.078125q-2.015625 -2.078125 -2.015625 -5.734375zm3.1875 -0.09375q0 2.59375 1.1875 3.9375q1.203125 1.328125 3.046875 1.328125q1.84375 0 3.015625 -1.328125q1.1875 -1.328125 1.1875 -3.984375q0 -2.625 -1.15625 -3.90625q-1.140625 -1.296875 -3.046875 -1.296875q-1.90625 0 -3.078125 1.3125q-1.15625 1.296875 -1.15625 3.9375zm16.808472 7.640625l-2.921875 0l0 -11.0625l2.71875 0l0 1.578125q0.703125 -1.125 1.25 -1.46875q0.5625 -0.359375 1.265625 -0.359375q1.0 0 1.9375 0.5625l-0.90625 2.546875q-0.75 -0.484375 -1.375 -0.484375q-0.625 0 -1.046875 0.34375q-0.421875 0.328125 -0.671875 1.21875q-0.25 0.890625 -0.25 3.703125l0 3.421875z" fill-rule="nonzero"/><path fill="#000000" d="m1115.6287 364.20447l3.0 0.9375q-0.6875 2.5 -2.296875 3.71875q-1.59375 1.21875 -4.046875 1.21875q-3.046875 0 -5.0 -2.078125q-1.953125 -2.078125 -1.953125 -5.6875q0 -3.8125 1.96875 -5.921875q1.96875 -2.109375 5.171875 -2.109375q2.796875 0 4.546875 1.65625q1.046875 0.984375 1.5625 2.8125l-3.046875 0.734375q-0.28125 -1.1875 -1.140625 -1.875q-0.84375 -0.6875 -2.078125 -0.6875q-1.703125 0 -2.765625 1.21875q-1.046875 1.21875 -1.046875 3.9375q0 2.90625 1.03125 4.140625q1.046875 1.21875 2.71875 1.21875q1.234375 0 2.109375 -0.78125q0.890625 -0.78125 1.265625 -2.453125zm8.543091 -9.65625l0 5.609375q1.40625 -1.65625 3.375 -1.65625q1.015625 0 1.828125 0.375q0.8125 0.375 1.21875 0.96875q0.40625 0.578125 0.5625 1.28125q0.15625 0.703125 0.15625 2.203125l0 6.484375l-2.921875 0l0 -5.84375q0 -1.734375 -0.171875 -2.203125q-0.171875 -0.46875 -0.59375 -0.75q-0.421875 -0.28125 -1.046875 -0.28125q-0.734375 0 -1.3125 0.359375q-0.5625 0.359375 -0.828125 1.078125q-0.265625 0.703125 -0.265625 2.09375l0 5.546875l-2.9375 0l0 -15.265625l2.9375 0zm10.106201 2.703125l0 -2.703125l2.921875 0l0 2.703125l-2.921875 0zm0 12.5625l0 -11.0625l2.921875 0l0 11.0625l-2.921875 0zm5.925659 0l0 -15.265625l2.921875 0l0 15.265625l-2.921875 0zm16.066284 0l-2.71875 0l0 -1.625q-0.671875 0.953125 -1.59375 1.421875q-0.921875 0.453125 -1.859375 0.453125q-1.90625 0 -3.265625 -1.53125q-1.359375 -1.546875 -1.359375 -4.296875q0 -2.8125 1.3125 -4.265625q1.328125 -1.46875 3.359375 -1.46875q1.84375 0 3.203125 1.546875l0 -5.5l2.921875 0l0 15.265625zm-7.8125 -5.765625q0 1.765625 0.5 2.5625q0.703125 1.140625 1.96875 1.140625q1.015625 0 1.71875 -0.859375q0.71875 -0.859375 0.71875 -2.5625q0 -1.90625 -0.6875 -2.75q-0.6875 -0.84375 -1.765625 -0.84375q-1.046875 0 -1.75 0.828125q-0.703125 0.828125 -0.703125 2.484375z" fill-rule="nonzero"/></g></svg>