<svg version="1.1" viewBox="0.0 0.0 1105.0472440944882 586.4645669291339" fill="none" stroke="none" stroke-linecap="square" stroke-miterlimit="10" xmlns:xlink="http://www.w3.org/1999/xlink" xmlns="http://www.w3.org/2000/svg"><clipPath id="p.0"><path d="m0 0l1105.0472 0l0 586.46454l-1105.0472 0l0 -586.46454z" clip-rule="nonzero"/></clipPath><g clip-path="url(#p.0)"><path fill="#000000" fill-opacity="0.0" d="m0 0l1105.0472 0l0 586.46454l-1105.0472 0z" fill-rule="evenodd"/><path fill="#000000" fill-opacity="0.0" d="m51.11286 98.59055l847.0551 0l0 456.50394l-847.0551 0z" fill-rule="evenodd"/><path stroke="#000000" stroke-width="2.0" stroke-linejoin="round" stroke-linecap="butt" d="m51.11286 98.59055l847.0551 0l0 456.50394l-847.0551 0z" fill-rule="evenodd"/><path fill="#cfe2f3" d="m306.95453 123.10236l541.07086 0l0 61.291344l-541.07086 0z" fill-rule="evenodd"/><path stroke="#000000" stroke-width="1.0" stroke-linejoin="round" stroke-linecap="butt" d="m306.95453 123.10236l541.07086 0l0 61.291344l-541.07086 0z" fill-rule="evenodd"/><path fill="#000000" fill-opacity="0.0" d="m364.0014 126.16535l0 55.149605" fill-rule="evenodd"/><path stroke="#000000" stroke-width="2.0" stroke-linejoin="round" stroke-linecap="butt" d="m364.0014 126.16535l0 55.149605" fill-rule="evenodd"/><path fill="#000000" fill-opacity="0.0" d="m416.6293 126.173225l0 55.149605" fill-rule="evenodd"/><path stroke="#000000" stroke-width="2.0" stroke-linejoin="round" stroke-linecap="butt" d="m416.6293 126.173225l0 55.149605" fill-rule="evenodd"/><path fill="#000000" fill-opacity="0.0" d="m799.43365 126.16535l0 55.149605" fill-rule="evenodd"/><path stroke="#000000" stroke-width="2.0" stroke-linejoin="round" stroke-linecap="butt" d="m799.43365 126.16535l0 55.149605" fill-rule="evenodd"/><path fill="#000000" fill-opacity="0.0" d="m545.5083 292.97638l63.968506 0l0 96.944885l-63.968506 0z" fill-rule="evenodd"/><path fill="#000000" d="m576.061 322.4564l0 -2.921875l2.921875 0l0 2.921875l-2.921875 0z" fill-rule="nonzero"/><path fill="#000000" d="m576.061 348.05637l0 -2.921875l2.921875 0l0 2.921875l-2.921875 0z" fill-rule="nonzero"/><path fill="#000000" d="m576.061 373.65637l0 -2.921875l2.921875 0l0 2.921875l-2.921875 0z" fill-rule="nonzero"/><path fill="#000000" fill-opacity="0.0" d="m57.397846 132.29396l232.28346 0l0 42.015747l-232.28346 0z" fill-rule="evenodd"/><path fill="#000000" d="m76.30409 154.30771l2.609375 0.828125q-0.59375 2.1875 -2.0 3.25q-1.390625 1.0625 -3.546875 1.0625q-2.65625 0 -4.375 -1.8125q-1.703125 -1.828125 -1.703125 -4.984375q0 -3.328125 1.71875 -5.171875q1.71875 -1.84375 4.515625 -1.84375q2.453125 0 3.984375 1.4375q0.921875 0.859375 1.375 2.46875l-2.671875 0.640625q-0.234375 -1.046875 -0.984375 -1.640625q-0.75 -0.609375 -1.828125 -0.609375q-1.484375 0 -2.421875 1.078125q-0.921875 1.0625 -0.921875 3.4375q0 2.53125 0.90625 3.609375q0.921875 1.078125 2.375 1.078125q1.078125 0 1.84375 -0.671875q0.78125 -0.6875 1.125 -2.15625zm6.816696 -1.8125l-2.328125 -0.421875q0.40625 -1.40625 1.359375 -2.078125q0.953125 -0.671875 2.84375 -0.671875q1.703125 0 2.546875 0.40625q0.84375 0.40625 1.171875 1.03125q0.34375 0.625 0.34375 2.28125l-0.015625 3.0q0 1.265625 0.109375 1.875q0.125 0.609375 0.46875 1.296875l-2.53125 0q-0.109375 -0.25 -0.25 -0.75q-0.0625 -0.234375 -0.09375 -0.3125q-0.65625 0.640625 -1.40625 0.96875q-0.734375 0.3125 -1.59375 0.3125q-1.484375 0 -2.34375 -0.8125q-0.859375 -0.8125 -0.859375 -2.046875q0 -0.828125 0.390625 -1.46875q0.390625 -0.640625 1.09375 -0.96875q0.703125 -0.34375 2.03125 -0.609375q1.796875 -0.328125 2.484375 -0.625l0 -0.25q0 -0.75 -0.359375 -1.0625q-0.359375 -0.3125 -1.375 -0.3125q-0.6875 0 -1.078125 0.28125q-0.375 0.265625 -0.609375 0.9375zm3.421875 2.078125q-0.484375 0.15625 -1.5625 0.390625q-1.0625 0.21875 -1.390625 0.4375q-0.5 0.359375 -0.5 0.90625q0 0.53125 0.40625 0.9375q0.40625 0.390625 1.015625 0.390625q0.703125 0 1.328125 -0.46875q0.46875 -0.34375 0.609375 -0.84375q0.09375 -0.328125 0.09375 -1.25l0 -0.5zm13.844467 4.640625l-2.5625 0l0 -4.9375q0 -1.5625 -0.171875 -2.015625q-0.15625 -0.46875 -0.53125 -0.71875q-0.359375 -0.265625 -0.875 -0.265625q-0.671875 0 -1.203125 0.375q-0.53125 0.359375 -0.734375 0.96875q-0.1875 0.59375 -0.1875 2.21875l0 4.375l-2.546875 0l0 -9.671875l2.375 0l0 1.421875q1.265625 -1.640625 3.1875 -1.640625q0.84375 0 1.546875 0.3125q0.703125 0.296875 1.0625 0.78125q0.359375 0.46875 0.5 1.078125q0.140625 0.59375 0.140625 1.703125l0 6.015625zm11.474106 0l-2.390625 0l0 -1.421875q-0.59375 0.828125 -1.40625 1.234375q-0.796875 0.40625 -1.609375 0.40625q-1.671875 0 -2.859375 -1.34375q-1.1875 -1.34375 -1.1875 -3.75q0 -2.453125 1.15625 -3.734375q1.15625 -1.28125 2.921875 -1.28125q1.625 0 2.8125 1.34375l0 -4.8125l2.5625 0l0 13.359375zm-6.84375 -5.046875q0 1.546875 0.4375 2.234375q0.609375 1.015625 1.71875 1.015625q0.890625 0 1.5 -0.75q0.625 -0.765625 0.625 -2.25q0 -1.671875 -0.609375 -2.40625q-0.59375 -0.734375 -1.53125 -0.734375q-0.90625 0 -1.53125 0.734375q-0.609375 0.71875 -0.609375 2.15625zm9.364731 -5.9375l0 -2.375l2.5625 0l0 2.375l-2.5625 0zm0 10.984375l0 -9.671875l2.5625 0l0 9.671875l-2.5625 0zm14.058304 0l-2.390625 0l0 -1.421875q-0.59375 0.828125 -1.40625 1.234375q-0.796875 0.40625 -1.609375 0.40625q-1.671875 0 -2.859375 -1.34375q-1.1875 -1.34375 -1.1875 -3.75q0 -2.453125 1.15625 -3.734375q1.15625 -1.28125 2.921875 -1.28125q1.625 0 2.8125 1.34375l0 -4.8125l2.5625 0l0 13.359375zm-6.84375 -5.046875q0 1.546875 0.4375 2.234375q0.609375 1.015625 1.71875 1.015625q0.890625 0 1.5 -0.75q0.625 -0.765625 0.625 -2.25q0 -1.671875 -0.609375 -2.40625q-0.59375 -0.734375 -1.53125 -0.734375q-0.90625 0 -1.53125 0.734375q-0.609375 0.71875 -0.609375 2.15625zm11.270981 -1.671875l-2.328125 -0.421875q0.40625 -1.40625 1.359375 -2.078125q0.953125 -0.671875 2.84375 -0.671875q1.703125 0 2.546875 0.40625q0.84375 0.40625 1.171875 1.03125q0.34375 0.625 0.34375 2.28125l-0.015625 3.0q0 1.265625 0.109375 1.875q0.125 0.609375 0.46875 1.296875l-2.53125 0q-0.109375 -0.25 -0.25 -0.75q-0.0625 -0.234375 -0.09375 -0.3125q-0.65625 0.640625 -1.40625 0.96875q-0.734375 0.3125 -1.59375 0.3125q-1.484375 0 -2.34375 -0.8125q-0.859375 -0.8125 -0.859375 -2.046875q0 -0.828125 0.390625 -1.46875q0.390625 -0.640625 1.09375 -0.96875q0.703125 -0.34375 2.03125 -0.609375q1.796875 -0.328125 2.484375 -0.625l0 -0.25q0 -0.75 -0.359375 -1.0625q-0.359375 -0.3125 -1.375 -0.3125q-0.6875 0 -1.078125 0.28125q-0.375 0.265625 -0.609375 0.9375zm3.421875 2.078125q-0.484375 0.15625 -1.5625 0.390625q-1.0625 0.21875 -1.390625 0.4375q-0.5 0.359375 -0.5 0.90625q0 0.53125 0.40625 0.9375q0.40625 0.390625 1.015625 0.390625q0.703125 0 1.328125 -0.46875q0.46875 -0.34375 0.609375 -0.84375q0.09375 -0.328125 0.09375 -1.25l0 -0.5zm9.485092 -5.03125l0 2.03125l-1.75 0l0 3.90625q0 1.1875 0.046875 1.390625q0.046875 0.1875 0.21875 0.3125q0.1875 0.125 0.4375 0.125q0.359375 0 1.03125 -0.25l0.21875 2.0q-0.890625 0.375 -2.015625 0.375q-0.703125 0 -1.265625 -0.234375q-0.546875 -0.234375 -0.8125 -0.59375q-0.25 -0.375 -0.34375 -1.0q-0.09375 -0.453125 -0.09375 -1.8125l0 -4.21875l-1.171875 0l0 -2.03125l1.171875 0l0 -1.921875l2.578125 -1.5l0 3.421875l1.75 0zm7.368927 6.59375l2.546875 0.421875q-0.484375 1.40625 -1.546875 2.140625q-1.0625 0.734375 -2.65625 0.734375q-2.515625 0 -3.734375 -1.65625q-0.953125 -1.3125 -0.953125 -3.328125q0 -2.40625 1.25 -3.765625q1.265625 -1.359375 3.1875 -1.359375q2.15625 0 3.40625 1.421875q1.25 1.421875 1.1875 4.375l-6.40625 0q0.03125 1.140625 0.609375 1.78125q0.59375 0.625 1.484375 0.625q0.59375 0 1.0 -0.328125q0.421875 -0.328125 0.625 -1.0625zm0.15625 -2.59375q-0.03125 -1.109375 -0.578125 -1.6875q-0.546875 -0.578125 -1.328125 -0.578125q-0.84375 0 -1.390625 0.609375q-0.546875 0.609375 -0.53125 1.65625l3.828125 0zm9.137146 1.328125l2.625 -0.25q0.234375 1.3125 0.953125 1.9375q0.734375 0.609375 1.96875 0.609375q1.296875 0 1.953125 -0.546875q0.671875 -0.546875 0.671875 -1.28125q0 -0.484375 -0.28125 -0.8125q-0.28125 -0.328125 -0.96875 -0.578125q-0.484375 -0.15625 -2.171875 -0.578125q-2.15625 -0.546875 -3.03125 -1.328125q-1.234375 -1.09375 -1.234375 -2.6875q0 -1.015625 0.578125 -1.90625q0.578125 -0.890625 1.65625 -1.34375q1.09375 -0.46875 2.640625 -0.46875q2.515625 0 3.78125 1.109375q1.28125 1.09375 1.34375 2.9375l-2.703125 0.109375q-0.171875 -1.03125 -0.75 -1.46875q-0.5625 -0.453125 -1.703125 -0.453125q-1.171875 0 -1.84375 0.46875q-0.421875 0.3125 -0.421875 0.84375q0 0.46875 0.40625 0.796875q0.5 0.4375 2.46875 0.90625q1.96875 0.453125 2.90625 0.953125q0.953125 0.5 1.484375 1.359375q0.53125 0.859375 0.53125 2.125q0 1.15625 -0.640625 2.15625q-0.640625 1.0 -1.8125 1.484375q-1.15625 0.484375 -2.890625 0.484375q-2.53125 0 -3.890625 -1.171875q-1.359375 -1.171875 -1.625 -3.40625zm12.521698 -0.625q0 -1.28125 0.625 -2.46875q0.625 -1.203125 1.78125 -1.828125q1.15625 -0.625 2.578125 -0.625q2.1875 0 3.59375 1.421875q1.40625 1.421875 1.40625 3.609375q0 2.1875 -1.421875 3.640625q-1.421875 1.4375 -3.5625 1.4375q-1.328125 0 -2.546875 -0.59375q-1.203125 -0.609375 -1.828125 -1.765625q-0.625 -1.171875 -0.625 -2.828125zm2.625 0.125q0 1.453125 0.671875 2.21875q0.6875 0.75 1.6875 0.75q1.0 0 1.671875 -0.75q0.6875 -0.765625 0.6875 -2.234375q0 -1.421875 -0.6875 -2.1875q-0.671875 -0.765625 -1.671875 -0.765625q-1.0 0 -1.6875 0.765625q-0.671875 0.765625 -0.671875 2.203125zm9.364731 4.84375l0 -13.359375l2.5625 0l0 13.359375l-2.5625 0zm11.542679 0l0 -1.453125q-0.53125 0.78125 -1.390625 1.234375q-0.859375 0.4375 -1.8125 0.4375q-0.96875 0 -1.75 -0.421875q-0.765625 -0.4375 -1.125 -1.203125q-0.34375 -0.78125 -0.34375 -2.140625l0 -6.125l2.5625 0l0 4.4375q0 2.046875 0.140625 2.515625q0.140625 0.453125 0.515625 0.71875q0.375 0.265625 0.953125 0.265625q0.65625 0 1.171875 -0.359375q0.515625 -0.359375 0.703125 -0.890625q0.203125 -0.53125 0.203125 -2.609375l0 -4.078125l2.546875 0l0 9.671875l-2.375 0zm9.474106 -9.671875l0 2.03125l-1.75 0l0 3.90625q0 1.1875 0.046875 1.390625q0.046875 0.1875 0.21875 0.3125q0.1875 0.125 0.4375 0.125q0.359375 0 1.03125 -0.25l0.21875 2.0q-0.890625 0.375 -2.015625 0.375q-0.703125 0 -1.265625 -0.234375q-0.546875 -0.234375 -0.8125 -0.59375q-0.25 -0.375 -0.34375 -1.0q-0.09375 -0.453125 -0.09375 -1.8125l0 -4.21875l-1.171875 0l0 -2.03125l1.171875 0l0 -1.921875l2.578125 -1.5l0 3.421875l1.75 0zm1.775177 -1.3125l0 -2.375l2.5625 0l0 2.375l-2.5625 0zm0 10.984375l0 -9.671875l2.5625 0l0 9.671875l-2.5625 0zm4.589554 -4.96875q0 -1.28125 0.625 -2.46875q0.625 -1.203125 1.78125 -1.828125q1.15625 -0.625 2.578125 -0.625q2.1875 0 3.59375 1.421875q1.40625 1.421875 1.40625 3.609375q0 2.1875 -1.421875 3.640625q-1.421875 1.4375 -3.5625 1.4375q-1.328125 0 -2.546875 -0.59375q-1.203125 -0.609375 -1.828125 -1.765625q-0.625 -1.171875 -0.625 -2.828125zm2.625 0.125q0 1.453125 0.671875 2.21875q0.6875 0.75 1.6875 0.75q1.0 0 1.671875 -0.75q0.6875 -0.765625 0.6875 -2.234375q0 -1.421875 -0.6875 -2.1875q-0.671875 -0.765625 -1.671875 -0.765625q-1.0 0 -1.6875 0.765625q-0.671875 0.765625 -0.671875 2.203125zm18.161606 4.84375l-2.5625 0l0 -4.9375q0 -1.5625 -0.171875 -2.015625q-0.15625 -0.46875 -0.53125 -0.71875q-0.359375 -0.265625 -0.875 -0.265625q-0.671875 0 -1.203125 0.375q-0.53125 0.359375 -0.734375 0.96875q-0.1875 0.59375 -0.1875 2.21875l0 4.375l-2.546875 0l0 -9.671875l2.375 0l0 1.421875q1.265625 -1.640625 3.1875 -1.640625q0.84375 0 1.546875 0.3125q0.703125 0.296875 1.0625 0.78125q0.359375 0.46875 0.5 1.078125q0.140625 0.59375 0.140625 1.703125l0 6.015625zm13.78241 0l-2.5625 0l0 -9.640625q-1.40625 1.3125 -3.3125 1.9375l0 -2.328125q1.015625 -0.328125 2.1875 -1.234375q1.171875 -0.921875 1.609375 -2.140625l2.078125 0l0 13.40625zm10.043411 -7.109375l0 -2.5625l2.5625 0l0 2.5625l-2.5625 0zm0 7.109375l0 -2.5625l2.5625 0l0 2.5625l-2.5625 0z" fill-rule="nonzero"/><path fill="#000000" fill-opacity="0.0" d="m306.96326 136.3412l57.039368 0l0 33.921265l-57.039368 0z" fill-rule="evenodd"/><path fill="#000000" d="m315.96326 156.8612l2.9375 -4.484375l-2.65625 -4.109375l2.015625 0l1.734375 2.765625l1.6875 -2.765625l2.0 0l-2.671875 4.171875l2.9375 4.421875l-2.09375 0l-1.90625 -2.96875l-1.90625 2.96875l-2.078125 0zm12.722656 0l-1.640625 0l0 -6.203125q-0.90625 0.84375 -2.125 1.25l0 -1.5q0.640625 -0.203125 1.390625 -0.796875q0.765625 -0.59375 1.046875 -1.375l1.328125 0l0 8.625zm1.8457031 2.375l0 -1.0625l6.84375 0l0 1.0625l-6.84375 0zm11.501953 -2.375l-1.640625 0l0 -6.203125q-0.90625 0.84375 -2.125 1.25l0 -1.5q0.640625 -0.203125 1.390625 -0.796875q0.765625 -0.59375 1.046875 -1.375l1.328125 0l0 8.625z" fill-rule="nonzero"/><path fill="#000000" fill-opacity="0.0" d="m359.59055 136.7874l57.039368 0l0 33.921265l-57.039368 0z" fill-rule="evenodd"/><path fill="#000000" d="m368.59055 157.3074l2.9375 -4.484375l-2.65625 -4.109375l2.015625 0l1.734375 2.765625l1.6875 -2.765625l2.0 0l-2.671875 4.171875l2.9375 4.421875l-2.09375 0l-1.90625 -2.96875l-1.90625 2.96875l-2.078125 0zm12.722656 0l-1.640625 0l0 -6.203125q-0.90625 0.84375 -2.125 1.25l0 -1.5q0.640625 -0.203125 1.390625 -0.796875q0.765625 -0.59375 1.046875 -1.375l1.328125 0l0 8.625zm1.8457031 2.375l0 -1.0625l6.84375 0l0 1.0625l-6.84375 0zm12.861328 -3.90625l0 1.53125l-5.78125 0q0.09375 -0.875 0.5625 -1.640625q0.46875 -0.78125 1.859375 -2.0625q1.109375 -1.03125 1.359375 -1.40625q0.34375 -0.515625 0.34375 -1.015625q0 -0.546875 -0.296875 -0.84375q-0.296875 -0.296875 -0.8125 -0.296875q-0.515625 0 -0.828125 0.3125q-0.296875 0.3125 -0.34375 1.03125l-1.640625 -0.15625q0.140625 -1.359375 0.90625 -1.953125q0.78125 -0.59375 1.9375 -0.59375q1.28125 0 2.0 0.6875q0.734375 0.6875 0.734375 1.703125q0 0.578125 -0.21875 1.109375q-0.203125 0.515625 -0.65625 1.09375q-0.296875 0.375 -1.078125 1.09375q-0.78125 0.71875 -0.984375 0.953125q-0.203125 0.234375 -0.34375 0.453125l3.28125 0z" fill-rule="nonzero"/><path fill="#000000" fill-opacity="0.0" d="m799.43304 136.3412l57.039368 0l0 33.921265l-57.039368 0z" fill-rule="evenodd"/><path fill="#000000" d="m808.43304 156.8612l2.9375 -4.484375l-2.65625 -4.109375l2.015625 0l1.734375 2.765625l1.6875 -2.765625l2.0 0l-2.671875 4.171875l2.9375 4.421875l-2.09375 0l-1.90625 -2.96875l-1.90625 2.96875l-2.078125 0zm12.722656 0l-1.640625 0l0 -6.203125q-0.90625 0.84375 -2.125 1.25l0 -1.5q0.640625 -0.203125 1.390625 -0.796875q0.765625 -0.59375 1.046875 -1.375l1.328125 0l0 8.625zm1.8457031 2.375l0 -1.0625l6.84375 0l0 1.0625l-6.84375 0zm13.298828 -2.375l-1.640625 0l0 -3.171875q0 -1.015625 -0.109375 -1.3125q-0.09375 -0.296875 -0.34375 -0.453125q-0.234375 -0.171875 -0.5625 -0.171875q-0.4375 0 -0.78125 0.234375q-0.328125 0.234375 -0.453125 0.625q-0.125 0.390625 -0.125 1.4375l0 2.8125l-1.65625 0l0 -6.21875l1.53125 0l0 0.90625q0.8125 -1.046875 2.0625 -1.046875q0.53125 0 0.984375 0.203125q0.453125 0.1875 0.6875 0.5q0.234375 0.296875 0.3125 0.6875q0.09375 0.375 0.09375 1.09375l0 3.875z" fill-rule="nonzero"/><path fill="#cfe2f3" d="m306.95584 208.03937l541.0709 0l0 61.29135l-541.0709 0z" fill-rule="evenodd"/><path stroke="#ffff00" stroke-width="1.0" stroke-linejoin="round" stroke-linecap="butt" d="m306.95584 208.03937l541.0709 0l0 61.29135l-541.0709 0z" fill-rule="evenodd"/><path fill="#000000" fill-opacity="0.0" d="m364.00272 211.10236l0 55.149628" fill-rule="evenodd"/><path stroke="#000000" stroke-width="2.0" stroke-linejoin="round" stroke-linecap="butt" d="m364.00272 211.10236l0 55.149628" fill-rule="evenodd"/><path fill="#000000" fill-opacity="0.0" d="m799.435 211.10236l0 55.149628" fill-rule="evenodd"/><path stroke="#000000" stroke-width="2.0" stroke-linejoin="round" stroke-linecap="butt" d="m799.435 211.10236l0 55.149628" fill-rule="evenodd"/><path fill="#000000" fill-opacity="0.0" d="m57.39916 217.23097l232.28346 0l0 42.01573l-232.28346 0z" fill-rule="evenodd"/><path fill="#000000" d="m76.305405 239.24472l2.609375 0.828125q-0.59375 2.1875 -2.0 3.25q-1.390625 1.0625 -3.546875 1.0625q-2.65625 0 -4.375 -1.8125q-1.703125 -1.828125 -1.703125 -4.984375q0 -3.328125 1.71875 -5.171875q1.71875 -1.84375 4.515625 -1.84375q2.453125 0 3.984375 1.4375q0.921875 0.859375 1.375 2.46875l-2.671875 0.640625q-0.234375 -1.046875 -0.984375 -1.640625q-0.75 -0.609375 -1.828125 -0.609375q-1.484375 0 -2.421875 1.078125q-0.921875 1.0625 -0.921875 3.4375q0 2.53125 0.90625 3.609375q0.921875 1.078125 2.375 1.078125q1.078125 0 1.84375 -0.671875q0.78125 -0.6875 1.125 -2.15625zm6.816696 -1.8125l-2.328125 -0.421875q0.40625 -1.40625 1.359375 -2.078125q0.953125 -0.671875 2.84375 -0.671875q1.703125 0 2.546875 0.40625q0.84375 0.40625 1.171875 1.03125q0.34375 0.625 0.34375 2.28125l-0.015625 3.0q0 1.265625 0.109375 1.875q0.125 0.609375 0.46875 1.296875l-2.53125 0q-0.109375 -0.25 -0.25 -0.75q-0.0625 -0.234375 -0.09375 -0.3125q-0.65625 0.640625 -1.40625 0.96875q-0.734375 0.3125 -1.59375 0.3125q-1.484375 0 -2.34375 -0.8125q-0.859375 -0.8125 -0.859375 -2.046875q0 -0.828125 0.390625 -1.46875q0.390625 -0.640625 1.09375 -0.96875q0.703125 -0.34375 2.03125 -0.609375q1.796875 -0.328125 2.484375 -0.625l0 -0.25q0 -0.75 -0.359375 -1.0625q-0.359375 -0.3125 -1.375 -0.3125q-0.6875 0 -1.078125 0.28125q-0.375 0.265625 -0.609375 0.9375zm3.421875 2.078125q-0.484375 0.15625 -1.5625 0.390625q-1.0625 0.21875 -1.390625 0.4375q-0.5 0.359375 -0.5 0.90625q0 0.53125 0.40625 0.9375q0.40625 0.390625 1.015625 0.390625q0.703125 0 1.328125 -0.46875q0.46875 -0.34375 0.609375 -0.84375q0.09375 -0.328125 0.09375 -1.25l0 -0.5zm13.844467 4.640625l-2.5625 0l0 -4.9375q0 -1.5625 -0.171875 -2.015625q-0.15625 -0.46875 -0.53125 -0.71875q-0.359375 -0.265625 -0.875 -0.265625q-0.671875 0 -1.203125 0.375q-0.53125 0.359375 -0.734375 0.96875q-0.1875 0.59375 -0.1875 2.21875l0 4.375l-2.546875 0l0 -9.671875l2.375 0l0 1.421875q1.265625 -1.640625 3.1875 -1.640625q0.84375 0 1.546875 0.3125q0.703125 0.296875 1.0625 0.78125q0.359375 0.46875 0.5 1.078125q0.140625 0.59375 0.140625 1.703125l0 6.015625zm11.474106 0l-2.390625 0l0 -1.421875q-0.59375 0.828125 -1.40625 1.234375q-0.796875 0.40625 -1.609375 0.40625q-1.671875 0 -2.859375 -1.34375q-1.1875 -1.34375 -1.1875 -3.75q0 -2.453125 1.15625 -3.734375q1.15625 -1.28125 2.921875 -1.28125q1.625 0 2.8125 1.34375l0 -4.8125l2.5625 0l0 13.359375zm-6.84375 -5.046875q0 1.546875 0.4375 2.234375q0.609375 1.015625 1.71875 1.015625q0.890625 0 1.5 -0.75q0.625 -0.765625 0.625 -2.25q0 -1.671875 -0.609375 -2.40625q-0.59375 -0.734375 -1.53125 -0.734375q-0.90625 0 -1.53125 0.734375q-0.609375 0.71875 -0.609375 2.15625zm9.364731 -5.9375l0 -2.375l2.5625 0l0 2.375l-2.5625 0zm0 10.984375l0 -9.671875l2.5625 0l0 9.671875l-2.5625 0zm14.058304 0l-2.390625 0l0 -1.421875q-0.59375 0.828125 -1.40625 1.234375q-0.796875 0.40625 -1.609375 0.40625q-1.671875 0 -2.859375 -1.34375q-1.1875 -1.34375 -1.1875 -3.75q0 -2.453125 1.15625 -3.734375q1.15625 -1.28125 2.921875 -1.28125q1.625 0 2.8125 1.34375l0 -4.8125l2.5625 0l0 13.359375zm-6.84375 -5.046875q0 1.546875 0.4375 2.234375q0.609375 1.015625 1.71875 1.015625q0.890625 0 1.5 -0.75q0.625 -0.765625 0.625 -2.25q0 -1.671875 -0.609375 -2.40625q-0.59375 -0.734375 -1.53125 -0.734375q-0.90625 0 -1.53125 0.734375q-0.609375 0.71875 -0.609375 2.15625zm11.270981 -1.671875l-2.328125 -0.421875q0.40625 -1.40625 1.359375 -2.078125q0.953125 -0.671875 2.84375 -0.671875q1.703125 0 2.546875 0.40625q0.84375 0.40625 1.171875 1.03125q0.34375 0.625 0.34375 2.28125l-0.015625 3.0q0 1.265625 0.109375 1.875q0.125 0.609375 0.46875 1.296875l-2.53125 0q-0.109375 -0.25 -0.25 -0.75q-0.0625 -0.234375 -0.09375 -0.3125q-0.65625 0.640625 -1.40625 0.96875q-0.734375 0.3125 -1.59375 0.3125q-1.484375 0 -2.34375 -0.8125q-0.859375 -0.8125 -0.859375 -2.046875q0 -0.828125 0.390625 -1.46875q0.390625 -0.640625 1.09375 -0.96875q0.703125 -0.34375 2.03125 -0.609375q1.796875 -0.328125 2.484375 -0.625l0 -0.25q0 -0.75 -0.359375 -1.0625q-0.359375 -0.3125 -1.375 -0.3125q-0.6875 0 -1.078125 0.28125q-0.375 0.265625 -0.609375 0.9375zm3.421875 2.078125q-0.484375 0.15625 -1.5625 0.390625q-1.0625 0.21875 -1.390625 0.4375q-0.5 0.359375 -0.5 0.90625q0 0.53125 0.40625 0.9375q0.40625 0.390625 1.015625 0.390625q0.703125 0 1.328125 -0.46875q0.46875 -0.34375 0.609375 -0.84375q0.09375 -0.328125 0.09375 -1.25l0 -0.5zm9.485092 -5.03125l0 2.03125l-1.75 0l0 3.90625q0 1.1875 0.046875 1.390625q0.046875 0.1875 0.21875 0.3125q0.1875 0.125 0.4375 0.125q0.359375 0 1.03125 -0.25l0.21875 2.0q-0.890625 0.375 -2.015625 0.375q-0.703125 0 -1.265625 -0.234375q-0.546875 -0.234375 -0.8125 -0.59375q-0.25 -0.375 -0.34375 -1.0q-0.09375 -0.453125 -0.09375 -1.8125l0 -4.21875l-1.171875 0l0 -2.03125l1.171875 0l0 -1.921875l2.578125 -1.5l0 3.421875l1.75 0zm7.368927 6.59375l2.546875 0.421875q-0.484375 1.40625 -1.546875 2.140625q-1.0625 0.734375 -2.65625 0.734375q-2.515625 0 -3.734375 -1.65625q-0.953125 -1.3125 -0.953125 -3.328125q0 -2.40625 1.25 -3.765625q1.265625 -1.359375 3.1875 -1.359375q2.15625 0 3.40625 1.421875q1.25 1.421875 1.1875 4.375l-6.40625 0q0.03125 1.140625 0.609375 1.78125q0.59375 0.625 1.484375 0.625q0.59375 0 1.0 -0.328125q0.421875 -0.328125 0.625 -1.0625zm0.15625 -2.59375q-0.03125 -1.109375 -0.578125 -1.6875q-0.546875 -0.578125 -1.328125 -0.578125q-0.84375 0 -1.390625 0.609375q-0.546875 0.609375 -0.53125 1.65625l3.828125 0zm9.137146 1.328125l2.625 -0.25q0.234375 1.3125 0.953125 1.9375q0.734375 0.609375 1.96875 0.609375q1.296875 0 1.953125 -0.546875q0.671875 -0.546875 0.671875 -1.28125q0 -0.484375 -0.28125 -0.8125q-0.28125 -0.328125 -0.96875 -0.578125q-0.484375 -0.15625 -2.171875 -0.578125q-2.15625 -0.546875 -3.03125 -1.328125q-1.234375 -1.09375 -1.234375 -2.6875q0 -1.015625 0.578125 -1.90625q0.578125 -0.890625 1.65625 -1.34375q1.09375 -0.46875 2.640625 -0.46875q2.515625 0 3.78125 1.109375q1.28125 1.09375 1.34375 2.9375l-2.703125 0.109375q-0.171875 -1.03125 -0.75 -1.46875q-0.5625 -0.453125 -1.703125 -0.453125q-1.171875 0 -1.84375 0.46875q-0.421875 0.3125 -0.421875 0.84375q0 0.46875 0.40625 0.796875q0.5 0.4375 2.46875 0.90625q1.96875 0.453125 2.90625 0.953125q0.953125 0.5 1.484375 1.359375q0.53125 0.859375 0.53125 2.125q0 1.15625 -0.640625 2.15625q-0.640625 1.0 -1.8125 1.484375q-1.15625 0.484375 -2.890625 0.484375q-2.53125 0 -3.890625 -1.171875q-1.359375 -1.171875 -1.625 -3.40625zm12.521698 -0.625q0 -1.28125 0.625 -2.46875q0.625 -1.203125 1.78125 -1.828125q1.15625 -0.625 2.578125 -0.625q2.1875 0 3.59375 1.421875q1.40625 1.421875 1.40625 3.609375q0 2.1875 -1.421875 3.640625q-1.421875 1.4375 -3.5625 1.4375q-1.328125 0 -2.546875 -0.59375q-1.203125 -0.609375 -1.828125 -1.765625q-0.625 -1.171875 -0.625 -2.828125zm2.625 0.125q0 1.453125 0.671875 2.21875q0.6875 0.75 1.6875 0.75q1.0 0 1.671875 -0.75q0.6875 -0.765625 0.6875 -2.234375q0 -1.421875 -0.6875 -2.1875q-0.671875 -0.765625 -1.671875 -0.765625q-1.0 0 -1.6875 0.765625q-0.671875 0.765625 -0.671875 2.203125zm9.364731 4.84375l0 -13.359375l2.5625 0l0 13.359375l-2.5625 0zm11.542679 0l0 -1.453125q-0.53125 0.78125 -1.390625 1.234375q-0.859375 0.4375 -1.8125 0.4375q-0.96875 0 -1.75 -0.421875q-0.765625 -0.4375 -1.125 -1.203125q-0.34375 -0.78125 -0.34375 -2.140625l0 -6.125l2.5625 0l0 4.4375q0 2.046875 0.140625 2.515625q0.140625 0.453125 0.515625 0.71875q0.375 0.265625 0.953125 0.265625q0.65625 0 1.171875 -0.359375q0.515625 -0.359375 0.703125 -0.890625q0.203125 -0.53125 0.203125 -2.609375l0 -4.078125l2.546875 0l0 9.671875l-2.375 0zm9.474106 -9.671875l0 2.03125l-1.75 0l0 3.90625q0 1.1875 0.046875 1.390625q0.046875 0.1875 0.21875 0.3125q0.1875 0.125 0.4375 0.125q0.359375 0 1.03125 -0.25l0.21875 2.0q-0.890625 0.375 -2.015625 0.375q-0.703125 0 -1.265625 -0.234375q-0.546875 -0.234375 -0.8125 -0.59375q-0.25 -0.375 -0.34375 -1.0q-0.09375 -0.453125 -0.09375 -1.8125l0 -4.21875l-1.171875 0l0 -2.03125l1.171875 0l0 -1.921875l2.578125 -1.5l0 3.421875l1.75 0zm1.775177 -1.3125l0 -2.375l2.5625 0l0 2.375l-2.5625 0zm0 10.984375l0 -9.671875l2.5625 0l0 9.671875l-2.5625 0zm4.589554 -4.96875q0 -1.28125 0.625 -2.46875q0.625 -1.203125 1.78125 -1.828125q1.15625 -0.625 2.578125 -0.625q2.1875 0 3.59375 1.421875q1.40625 1.421875 1.40625 3.609375q0 2.1875 -1.421875 3.640625q-1.421875 1.4375 -3.5625 1.4375q-1.328125 0 -2.546875 -0.59375q-1.203125 -0.609375 -1.828125 -1.765625q-0.625 -1.171875 -0.625 -2.828125zm2.625 0.125q0 1.453125 0.671875 2.21875q0.6875 0.75 1.6875 0.75q1.0 0 1.671875 -0.75q0.6875 -0.765625 0.6875 -2.234375q0 -1.421875 -0.6875 -2.1875q-0.671875 -0.765625 -1.671875 -0.765625q-1.0 0 -1.6875 0.765625q-0.671875 0.765625 -0.671875 2.203125zm18.161606 4.84375l-2.5625 0l0 -4.9375q0 -1.5625 -0.171875 -2.015625q-0.15625 -0.46875 -0.53125 -0.71875q-0.359375 -0.265625 -0.875 -0.265625q-0.671875 0 -1.203125 0.375q-0.53125 0.359375 -0.734375 0.96875q-0.1875 0.59375 -0.1875 2.21875l0 4.375l-2.546875 0l0 -9.671875l2.375 0l0 1.421875q1.265625 -1.640625 3.1875 -1.640625q0.84375 0 1.546875 0.3125q0.703125 0.296875 1.0625 0.78125q0.359375 0.46875 0.5 1.078125q0.140625 0.59375 0.140625 1.703125l0 6.015625zm15.87616 -2.375l0 2.375l-8.96875 0q0.140625 -1.34375 0.859375 -2.546875q0.734375 -1.21875 2.890625 -3.203125q1.734375 -1.625 2.125 -2.1875q0.53125 -0.796875 0.53125 -1.578125q0 -0.84375 -0.46875 -1.296875q-0.453125 -0.46875 -1.265625 -0.46875q-0.796875 0 -1.28125 0.484375q-0.46875 0.46875 -0.546875 1.59375l-2.546875 -0.25q0.234375 -2.109375 1.421875 -3.03125q1.203125 -0.921875 3.015625 -0.921875q1.96875 0 3.09375 1.0625q1.140625 1.0625 1.140625 2.65625q0 0.890625 -0.328125 1.71875q-0.3125 0.8125 -1.015625 1.703125q-0.46875 0.59375 -1.6875 1.703125q-1.203125 1.109375 -1.53125 1.484375q-0.3125 0.359375 -0.515625 0.703125l5.078125 0zm7.9496613 -4.734375l0 -2.5625l2.5625 0l0 2.5625l-2.5625 0zm0 7.109375l0 -2.5625l2.5625 0l0 2.5625l-2.5625 0z" fill-rule="nonzero"/><path fill="#000000" fill-opacity="0.0" d="m306.96457 221.27821l57.039368 0l0 33.921265l-57.039368 0z" fill-rule="evenodd"/><path fill="#000000" d="m315.96457 241.79822l2.9375 -4.484375l-2.65625 -4.109375l2.015625 0l1.734375 2.765625l1.6875 -2.765625l2.0 0l-2.671875 4.171875l2.9375 4.421875l-2.09375 0l-1.90625 -2.96875l-1.90625 2.96875l-2.078125 0zm14.082031 -1.53125l0 1.53125l-5.78125 0q0.09375 -0.875 0.5625 -1.640625q0.46875 -0.78125 1.859375 -2.0625q1.109375 -1.03125 1.359375 -1.40625q0.34375 -0.515625 0.34375 -1.015625q0 -0.546875 -0.296875 -0.84375q-0.296875 -0.296875 -0.8125 -0.296875q-0.515625 0 -0.828125 0.3125q-0.296875 0.3125 -0.34375 1.03125l-1.640625 -0.15625q0.140625 -1.359375 0.90625 -1.953125q0.78125 -0.59375 1.9375 -0.59375q1.28125 0 2.0 0.6875q0.734375 0.6875 0.734375 1.703125q0 0.578125 -0.21875 1.109375q-0.203125 0.515625 -0.65625 1.09375q-0.296875 0.375 -1.078125 1.09375q-0.78125 0.71875 -0.984375 0.953125q-0.203125 0.234375 -0.34375 0.453125l3.28125 0zm0.48632812 3.90625l0 -1.0625l6.84375 0l0 1.0625l-6.84375 0zm11.501953 -2.375l-1.640625 0l0 -6.203125q-0.90625 0.84375 -2.125 1.25l0 -1.5q0.640625 -0.203125 1.390625 -0.796875q0.765625 -0.59375 1.046875 -1.375l1.328125 0l0 8.625z" fill-rule="nonzero"/><path fill="#000000" fill-opacity="0.0" d="m359.59186 221.72441l57.039368 0l0 33.921265l-57.039368 0z" fill-rule="evenodd"/><path fill="#000000" d="m368.59186 242.24442l2.9375 -4.484375l-2.65625 -4.109375l2.015625 0l1.734375 2.765625l1.6875 -2.765625l2.0 0l-2.671875 4.171875l2.9375 4.421875l-2.09375 0l-1.90625 -2.96875l-1.90625 2.96875l-2.078125 0zm14.082031 -1.53125l0 1.53125l-5.78125 0q0.09375 -0.875 0.5625 -1.640625q0.46875 -0.78125 1.859375 -2.0625q1.109375 -1.03125 1.359375 -1.40625q0.34375 -0.515625 0.34375 -1.015625q0 -0.546875 -0.296875 -0.84375q-0.296875 -0.296875 -0.8125 -0.296875q-0.515625 0 -0.828125 0.3125q-0.296875 0.3125 -0.34375 1.03125l-1.640625 -0.15625q0.140625 -1.359375 0.90625 -1.953125q0.78125 -0.59375 1.9375 -0.59375q1.28125 0 2.0 0.6875q0.734375 0.6875 0.734375 1.703125q0 0.578125 -0.21875 1.109375q-0.203125 0.515625 -0.65625 1.09375q-0.296875 0.375 -1.078125 1.09375q-0.78125 0.71875 -0.984375 0.953125q-0.203125 0.234375 -0.34375 0.453125l3.28125 0zm0.48632812 3.90625l0 -1.0625l6.84375 0l0 1.0625l-6.84375 0zm12.861328 -3.90625l0 1.53125l-5.78125 0q0.09375 -0.875 0.5625 -1.640625q0.46875 -0.78125 1.859375 -2.0625q1.109375 -1.03125 1.359375 -1.40625q0.34375 -0.515625 0.34375 -1.015625q0 -0.546875 -0.296875 -0.84375q-0.296875 -0.296875 -0.8125 -0.296875q-0.515625 0 -0.828125 0.3125q-0.296875 0.3125 -0.34375 1.03125l-1.640625 -0.15625q0.140625 -1.359375 0.90625 -1.953125q0.78125 -0.59375 1.9375 -0.59375q1.28125 0 2.0 0.6875q0.734375 0.6875 0.734375 1.703125q0 0.578125 -0.21875 1.109375q-0.203125 0.515625 -0.65625 1.09375q-0.296875 0.375 -1.078125 1.09375q-0.78125 0.71875 -0.984375 0.953125q-0.203125 0.234375 -0.34375 0.453125l3.28125 0z" fill-rule="nonzero"/><path fill="#000000" fill-opacity="0.0" d="m799.4344 221.27821l57.039368 0l0 33.921265l-57.039368 0z" fill-rule="evenodd"/><path fill="#000000" d="m808.4344 241.79822l2.9375 -4.484375l-2.65625 -4.109375l2.015625 0l1.734375 2.765625l1.6875 -2.765625l2.0 0l-2.671875 4.171875l2.9375 4.421875l-2.09375 0l-1.90625 -2.96875l-1.90625 2.96875l-2.078125 0zm14.082031 -1.53125l0 1.53125l-5.78125 0q0.09375 -0.875 0.5625 -1.640625q0.46875 -0.78125 1.859375 -2.0625q1.109375 -1.03125 1.359375 -1.40625q0.34375 -0.515625 0.34375 -1.015625q0 -0.546875 -0.296875 -0.84375q-0.296875 -0.296875 -0.8125 -0.296875q-0.515625 0 -0.828125 0.3125q-0.296875 0.3125 -0.34375 1.03125l-1.640625 -0.15625q0.140625 -1.359375 0.90625 -1.953125q0.78125 -0.59375 1.9375 -0.59375q1.28125 0 2.0 0.6875q0.734375 0.6875 0.734375 1.703125q0 0.578125 -0.21875 1.109375q-0.203125 0.515625 -0.65625 1.09375q-0.296875 0.375 -1.078125 1.09375q-0.78125 0.71875 -0.984375 0.953125q-0.203125 0.234375 -0.34375 0.453125l3.28125 0zm0.48632812 3.90625l0 -1.0625l6.84375 0l0 1.0625l-6.84375 0zm13.298828 -2.375l-1.640625 0l0 -3.171875q0 -1.015625 -0.109375 -1.3125q-0.09375 -0.296875 -0.34375 -0.453125q-0.234375 -0.171875 -0.5625 -0.171875q-0.4375 0 -0.78125 0.234375q-0.328125 0.234375 -0.453125 0.625q-0.125 0.390625 -0.125 1.4375l0 2.8125l-1.65625 0l0 -6.21875l1.53125 0l0 0.90625q0.8125 -1.046875 2.0625 -1.046875q0.53125 0 0.984375 0.203125q0.453125 0.1875 0.6875 0.5q0.234375 0.296875 0.3125 0.6875q0.09375 0.375 0.09375 1.09375l0 3.875z" fill-rule="nonzero"/><path fill="#cfe2f3" d="m306.95584 442.64304l541.0709 0l0 61.29135l-541.0709 0z" fill-rule="evenodd"/><path stroke="#000000" stroke-width="1.0" stroke-linejoin="round" stroke-linecap="butt" d="m306.95584 442.64304l541.0709 0l0 61.29135l-541.0709 0z" fill-rule="evenodd"/><path fill="#000000" fill-opacity="0.0" d="m364.00272 445.70602l0 55.149628" fill-rule="evenodd"/><path stroke="#000000" stroke-width="2.0" stroke-linejoin="round" stroke-linecap="butt" d="m364.00272 445.70602l0 55.149628" fill-rule="evenodd"/><path fill="#000000" fill-opacity="0.0" d="m799.435 445.70602l0 55.149628" fill-rule="evenodd"/><path stroke="#000000" stroke-width="2.0" stroke-linejoin="round" stroke-linecap="butt" d="m799.435 445.70602l0 55.149628" fill-rule="evenodd"/><path fill="#000000" fill-opacity="0.0" d="m57.39916 451.83466l232.28346 0l0 42.015747l-232.28346 0z" fill-rule="evenodd"/><path fill="#000000" d="m76.305405 473.8484l2.609375 0.828125q-0.59375 2.1875 -2.0 3.25q-1.390625 1.0625 -3.546875 1.0625q-2.65625 0 -4.375 -1.8125q-1.703125 -1.828125 -1.703125 -4.984375q0 -3.328125 1.71875 -5.171875q1.71875 -1.84375 4.515625 -1.84375q2.453125 0 3.984375 1.4375q0.921875 0.859375 1.375 2.46875l-2.671875 0.640625q-0.234375 -1.046875 -0.984375 -1.640625q-0.75 -0.609375 -1.828125 -0.609375q-1.484375 0 -2.421875 1.078125q-0.921875 1.0625 -0.921875 3.4375q0 2.53125 0.90625 3.609375q0.921875 1.078125 2.375 1.078125q1.078125 0 1.84375 -0.671875q0.78125 -0.6875 1.125 -2.15625zm6.816696 -1.8125l-2.328125 -0.421875q0.40625 -1.40625 1.359375 -2.078125q0.953125 -0.671875 2.84375 -0.671875q1.703125 0 2.546875 0.40625q0.84375 0.40625 1.171875 1.03125q0.34375 0.625 0.34375 2.28125l-0.015625 3.0q0 1.265625 0.109375 1.875q0.125 0.609375 0.46875 1.296875l-2.53125 0q-0.109375 -0.25 -0.25 -0.75q-0.0625 -0.234375 -0.09375 -0.3125q-0.65625 0.640625 -1.40625 0.96875q-0.734375 0.3125 -1.59375 0.3125q-1.484375 0 -2.34375 -0.8125q-0.859375 -0.8125 -0.859375 -2.046875q0 -0.828125 0.390625 -1.46875q0.390625 -0.640625 1.09375 -0.96875q0.703125 -0.34375 2.03125 -0.609375q1.796875 -0.328125 2.484375 -0.625l0 -0.25q0 -0.75 -0.359375 -1.0625q-0.359375 -0.3125 -1.375 -0.3125q-0.6875 0 -1.078125 0.28125q-0.375 0.265625 -0.609375 0.9375zm3.421875 2.078125q-0.484375 0.15625 -1.5625 0.390625q-1.0625 0.21875 -1.390625 0.4375q-0.5 0.359375 -0.5 0.90625q0 0.53125 0.40625 0.9375q0.40625 0.390625 1.015625 0.390625q0.703125 0 1.328125 -0.46875q0.46875 -0.34375 0.609375 -0.84375q0.09375 -0.328125 0.09375 -1.25l0 -0.5zm13.844467 4.640625l-2.5625 0l0 -4.9375q0 -1.5625 -0.171875 -2.015625q-0.15625 -0.46875 -0.53125 -0.71875q-0.359375 -0.265625 -0.875 -0.265625q-0.671875 0 -1.203125 0.375q-0.53125 0.359375 -0.734375 0.96875q-0.1875 0.59375 -0.1875 2.21875l0 4.375l-2.546875 0l0 -9.671875l2.375 0l0 1.421875q1.265625 -1.640625 3.1875 -1.640625q0.84375 0 1.546875 0.3125q0.703125 0.296875 1.0625 0.78125q0.359375 0.46875 0.5 1.078125q0.140625 0.59375 0.140625 1.703125l0 6.015625zm11.474106 0l-2.390625 0l0 -1.421875q-0.59375 0.828125 -1.40625 1.234375q-0.796875 0.40625 -1.609375 0.40625q-1.671875 0 -2.859375 -1.34375q-1.1875 -1.34375 -1.1875 -3.75q0 -2.453125 1.15625 -3.734375q1.15625 -1.28125 2.921875 -1.28125q1.625 0 2.8125 1.34375l0 -4.8125l2.5625 0l0 13.359375zm-6.84375 -5.046875q0 1.546875 0.4375 2.234375q0.609375 1.015625 1.71875 1.015625q0.890625 0 1.5 -0.75q0.625 -0.765625 0.625 -2.25q0 -1.671875 -0.609375 -2.40625q-0.59375 -0.734375 -1.53125 -0.734375q-0.90625 0 -1.53125 0.734375q-0.609375 0.71875 -0.609375 2.15625zm9.364731 -5.9375l0 -2.375l2.5625 0l0 2.375l-2.5625 0zm0 10.984375l0 -9.671875l2.5625 0l0 9.671875l-2.5625 0zm14.058304 0l-2.390625 0l0 -1.421875q-0.59375 0.828125 -1.40625 1.234375q-0.796875 0.40625 -1.609375 0.40625q-1.671875 0 -2.859375 -1.34375q-1.1875 -1.34375 -1.1875 -3.75q0 -2.453125 1.15625 -3.734375q1.15625 -1.28125 2.921875 -1.28125q1.625 0 2.8125 1.34375l0 -4.8125l2.5625 0l0 13.359375zm-6.84375 -5.046875q0 1.546875 0.4375 2.234375q0.609375 1.015625 1.71875 1.015625q0.890625 0 1.5 -0.75q0.625 -0.765625 0.625 -2.25q0 -1.671875 -0.609375 -2.40625q-0.59375 -0.734375 -1.53125 -0.734375q-0.90625 0 -1.53125 0.734375q-0.609375 0.71875 -0.609375 2.15625zm11.270981 -1.671875l-2.328125 -0.421875q0.40625 -1.40625 1.359375 -2.078125q0.953125 -0.671875 2.84375 -0.671875q1.703125 0 2.546875 0.40625q0.84375 0.40625 1.171875 1.03125q0.34375 0.625 0.34375 2.28125l-0.015625 3.0q0 1.265625 0.109375 1.875q0.125 0.609375 0.46875 1.296875l-2.53125 0q-0.109375 -0.25 -0.25 -0.75q-0.0625 -0.234375 -0.09375 -0.3125q-0.65625 0.640625 -1.40625 0.96875q-0.734375 0.3125 -1.59375 0.3125q-1.484375 0 -2.34375 -0.8125q-0.859375 -0.8125 -0.859375 -2.046875q0 -0.828125 0.390625 -1.46875q0.390625 -0.640625 1.09375 -0.96875q0.703125 -0.34375 2.03125 -0.609375q1.796875 -0.328125 2.484375 -0.625l0 -0.25q0 -0.75 -0.359375 -1.0625q-0.359375 -0.3125 -1.375 -0.3125q-0.6875 0 -1.078125 0.28125q-0.375 0.265625 -0.609375 0.9375zm3.421875 2.078125q-0.484375 0.15625 -1.5625 0.390625q-1.0625 0.21875 -1.390625 0.4375q-0.5 0.359375 -0.5 0.90625q0 0.53125 0.40625 0.9375q0.40625 0.390625 1.015625 0.390625q0.703125 0 1.328125 -0.46875q0.46875 -0.34375 0.609375 -0.84375q0.09375 -0.328125 0.09375 -1.25l0 -0.5zm9.485092 -5.03125l0 2.03125l-1.75 0l0 3.90625q0 1.1875 0.046875 1.390625q0.046875 0.1875 0.21875 0.3125q0.1875 0.125 0.4375 0.125q0.359375 0 1.03125 -0.25l0.21875 2.0q-0.890625 0.375 -2.015625 0.375q-0.703125 0 -1.265625 -0.234375q-0.546875 -0.234375 -0.8125 -0.59375q-0.25 -0.375 -0.34375 -1.0q-0.09375 -0.453125 -0.09375 -1.8125l0 -4.21875l-1.171875 0l0 -2.03125l1.171875 0l0 -1.921875l2.578125 -1.5l0 3.421875l1.75 0zm7.368927 6.59375l2.546875 0.421875q-0.484375 1.40625 -1.546875 2.140625q-1.0625 0.734375 -2.65625 0.734375q-2.515625 0 -3.734375 -1.65625q-0.953125 -1.3125 -0.953125 -3.328125q0 -2.40625 1.25 -3.765625q1.265625 -1.359375 3.1875 -1.359375q2.15625 0 3.40625 1.421875q1.25 1.421875 1.1875 4.375l-6.40625 0q0.03125 1.140625 0.609375 1.78125q0.59375 0.625 1.484375 0.625q0.59375 0 1.0 -0.328125q0.421875 -0.328125 0.625 -1.0625zm0.15625 -2.59375q-0.03125 -1.109375 -0.578125 -1.6875q-0.546875 -0.578125 -1.328125 -0.578125q-0.84375 0 -1.390625 0.609375q-0.546875 0.609375 -0.53125 1.65625l3.828125 0zm9.137146 1.328125l2.625 -0.25q0.234375 1.3125 0.953125 1.9375q0.734375 0.609375 1.96875 0.609375q1.296875 0 1.953125 -0.546875q0.671875 -0.546875 0.671875 -1.28125q0 -0.484375 -0.28125 -0.8125q-0.28125 -0.328125 -0.96875 -0.578125q-0.484375 -0.15625 -2.171875 -0.578125q-2.15625 -0.546875 -3.03125 -1.328125q-1.234375 -1.09375 -1.234375 -2.6875q0 -1.015625 0.578125 -1.90625q0.578125 -0.890625 1.65625 -1.34375q1.09375 -0.46875 2.640625 -0.46875q2.515625 0 3.78125 1.109375q1.28125 1.09375 1.34375 2.9375l-2.703125 0.109375q-0.171875 -1.03125 -0.75 -1.46875q-0.5625 -0.453125 -1.703125 -0.453125q-1.171875 0 -1.84375 0.46875q-0.421875 0.3125 -0.421875 0.84375q0 0.46875 0.40625 0.796875q0.5 0.4375 2.46875 0.90625q1.96875 0.453125 2.90625 0.953125q0.953125 0.5 1.484375 1.359375q0.53125 0.859375 0.53125 2.125q0 1.15625 -0.640625 2.15625q-0.640625 1.0 -1.8125 1.484375q-1.15625 0.484375 -2.890625 0.484375q-2.53125 0 -3.890625 -1.171875q-1.359375 -1.171875 -1.625 -3.40625zm12.521698 -0.625q0 -1.28125 0.625 -2.46875q0.625 -1.203125 1.78125 -1.828125q1.15625 -0.625 2.578125 -0.625q2.1875 0 3.59375 1.421875q1.40625 1.421875 1.40625 3.609375q0 2.1875 -1.421875 3.640625q-1.421875 1.4375 -3.5625 1.4375q-1.328125 0 -2.546875 -0.59375q-1.203125 -0.609375 -1.828125 -1.765625q-0.625 -1.171875 -0.625 -2.828125zm2.625 0.125q0 1.453125 0.671875 2.21875q0.6875 0.75 1.6875 0.75q1.0 0 1.671875 -0.75q0.6875 -0.765625 0.6875 -2.234375q0 -1.421875 -0.6875 -2.1875q-0.671875 -0.765625 -1.671875 -0.765625q-1.0 0 -1.6875 0.765625q-0.671875 0.765625 -0.671875 2.203125zm9.364731 4.84375l0 -13.359375l2.5625 0l0 13.359375l-2.5625 0zm11.542679 0l0 -1.453125q-0.53125 0.78125 -1.390625 1.234375q-0.859375 0.4375 -1.8125 0.4375q-0.96875 0 -1.75 -0.421875q-0.765625 -0.4375 -1.125 -1.203125q-0.34375 -0.78125 -0.34375 -2.140625l0 -6.125l2.5625 0l0 4.4375q0 2.046875 0.140625 2.515625q0.140625 0.453125 0.515625 0.71875q0.375 0.265625 0.953125 0.265625q0.65625 0 1.171875 -0.359375q0.515625 -0.359375 0.703125 -0.890625q0.203125 -0.53125 0.203125 -2.609375l0 -4.078125l2.546875 0l0 9.671875l-2.375 0zm9.474106 -9.671875l0 2.03125l-1.75 0l0 3.90625q0 1.1875 0.046875 1.390625q0.046875 0.1875 0.21875 0.3125q0.1875 0.125 0.4375 0.125q0.359375 0 1.03125 -0.25l0.21875 2.0q-0.890625 0.375 -2.015625 0.375q-0.703125 0 -1.265625 -0.234375q-0.546875 -0.234375 -0.8125 -0.59375q-0.25 -0.375 -0.34375 -1.0q-0.09375 -0.453125 -0.09375 -1.8125l0 -4.21875l-1.171875 0l0 -2.03125l1.171875 0l0 -1.921875l2.578125 -1.5l0 3.421875l1.75 0zm1.775177 -1.3125l0 -2.375l2.5625 0l0 2.375l-2.5625 0zm0 10.984375l0 -9.671875l2.5625 0l0 9.671875l-2.5625 0zm4.589554 -4.96875q0 -1.28125 0.625 -2.46875q0.625 -1.203125 1.78125 -1.828125q1.15625 -0.625 2.578125 -0.625q2.1875 0 3.59375 1.421875q1.40625 1.421875 1.40625 3.609375q0 2.1875 -1.421875 3.640625q-1.421875 1.4375 -3.5625 1.4375q-1.328125 0 -2.546875 -0.59375q-1.203125 -0.609375 -1.828125 -1.765625q-0.625 -1.171875 -0.625 -2.828125zm2.625 0.125q0 1.453125 0.671875 2.21875q0.6875 0.75 1.6875 0.75q1.0 0 1.671875 -0.75q0.6875 -0.765625 0.6875 -2.234375q0 -1.421875 -0.6875 -2.1875q-0.671875 -0.765625 -1.671875 -0.765625q-1.0 0 -1.6875 0.765625q-0.671875 0.765625 -0.671875 2.203125zm18.161606 4.84375l-2.5625 0l0 -4.9375q0 -1.5625 -0.171875 -2.015625q-0.15625 -0.46875 -0.53125 -0.71875q-0.359375 -0.265625 -0.875 -0.265625q-0.671875 0 -1.203125 0.375q-0.53125 0.359375 -0.734375 0.96875q-0.1875 0.59375 -0.1875 2.21875l0 4.375l-2.546875 0l0 -9.671875l2.375 0l0 1.421875q1.265625 -1.640625 3.1875 -1.640625q0.84375 0 1.546875 0.3125q0.703125 0.296875 1.0625 0.78125q0.359375 0.46875 0.5 1.078125q0.140625 0.59375 0.140625 1.703125l0 6.015625zm7.5792847 -9.671875l2.359375 0l0 1.3125q1.265625 -1.53125 3.015625 -1.53125q0.9375 0 1.609375 0.390625q0.6875 0.375 1.125 1.140625q0.640625 -0.765625 1.375 -1.140625q0.75 -0.390625 1.578125 -0.390625q1.0625 0 1.796875 0.4375q0.75001526 0.421875 1.1093903 1.265625q0.265625 0.625 0.265625 2.0l0 6.1875l-2.5625153 0l0 -5.53125q0 -1.4375 -0.265625 -1.859375q-0.34375 -0.546875 -1.09375 -0.546875q-0.53125 0 -1.015625 0.328125q-0.46875 0.328125 -0.671875 0.96875q-0.203125 0.625 -0.203125 2.0l0 4.640625l-2.5625 0l0 -5.296875q0 -1.421875 -0.140625 -1.828125q-0.140625 -0.40625 -0.421875 -0.609375q-0.28125 -0.203125 -0.78125 -0.203125q-0.59375 0 -1.0625 0.328125q-0.46875 0.3125 -0.6875 0.921875q-0.203125 0.59375 -0.203125 1.984375l0 4.703125l-2.5625 0l0 -9.671875zm22.459213 2.5625l0 -2.5625l2.5625 0l0 2.5625l-2.5625 0zm0 7.109375l0 -2.5625l2.5625 0l0 2.5625l-2.5625 0z" fill-rule="nonzero"/><path fill="#000000" fill-opacity="0.0" d="m306.96457 455.8819l57.039368 0l0 33.921265l-57.039368 0z" fill-rule="evenodd"/><path fill="#000000" d="m315.96457 476.4019l2.9375 -4.484375l-2.65625 -4.109375l2.015625 0l1.734375 2.765625l1.6875 -2.765625l2.0 0l-2.671875 4.171875l2.9375 4.421875l-2.09375 0l-1.90625 -2.96875l-1.90625 2.96875l-2.078125 0zm8.738281 -6.21875l1.515625 0l0 0.84375q0.828125 -0.984375 1.953125 -0.984375q0.59375 0 1.03125 0.25q0.4375 0.234375 0.71875 0.734375q0.40625 -0.5 0.875 -0.734375q0.484375 -0.25 1.03125 -0.25q0.671875 0 1.140625 0.28125q0.484375 0.265625 0.71875 0.8125q0.171875 0.390625 0.171875 1.28125l0 3.984375l-1.640625 0l0 -3.5625q0 -0.921875 -0.171875 -1.1875q-0.234375 -0.359375 -0.703125 -0.359375q-0.34375 0 -0.65625 0.21875q-0.296875 0.203125 -0.4375 0.609375q-0.140625 0.40625 -0.140625 1.296875l0 2.984375l-1.640625 0l0 -3.40625q0 -0.90625 -0.09375 -1.171875q-0.078125 -0.265625 -0.265625 -0.390625q-0.1875 -0.140625 -0.5 -0.140625q-0.375 0 -0.6875 0.21875q-0.296875 0.203125 -0.4375 0.59375q-0.125 0.375 -0.125 1.265625l0 3.03125l-1.65625 0l0 -6.21875zm9.826172 8.59375l0 -1.0625l6.84375 0l0 1.0625l-6.84375 0zm11.501953 -2.375l-1.640625 0l0 -6.203125q-0.90625 0.84375 -2.125 1.25l0 -1.5q0.640625 -0.203125 1.390625 -0.796875q0.765625 -0.59375 1.046875 -1.375l1.328125 0l0 8.625z" fill-rule="nonzero"/><path fill="#000000" fill-opacity="0.0" d="m359.59186 456.3281l57.039368 0l0 33.921234l-57.039368 0z" fill-rule="evenodd"/><path fill="#000000" d="m368.59186 476.84808l2.9375 -4.484375l-2.65625 -4.109375l2.015625 0l1.734375 2.765625l1.6875 -2.765625l2.0 0l-2.671875 4.171875l2.9375 4.421875l-2.09375 0l-1.90625 -2.96875l-1.90625 2.96875l-2.078125 0zm8.738281 -6.21875l1.515625 0l0 0.84375q0.828125 -0.984375 1.953125 -0.984375q0.59375 0 1.03125 0.25q0.4375 0.234375 0.71875 0.734375q0.40625 -0.5 0.875 -0.734375q0.484375 -0.25 1.03125 -0.25q0.671875 0 1.140625 0.28125q0.484375 0.265625 0.71875 0.8125q0.171875 0.390625 0.171875 1.28125l0 3.984375l-1.640625 0l0 -3.5625q0 -0.921875 -0.171875 -1.1875q-0.234375 -0.359375 -0.703125 -0.359375q-0.34375 0 -0.65625 0.21875q-0.296875 0.203125 -0.4375 0.609375q-0.140625 0.40625 -0.140625 1.296875l0 2.984375l-1.640625 0l0 -3.40625q0 -0.90625 -0.09375 -1.171875q-0.078125 -0.265625 -0.265625 -0.390625q-0.1875 -0.140625 -0.5 -0.140625q-0.375 0 -0.6875 0.21875q-0.296875 0.203125 -0.4375 0.59375q-0.125 0.375 -0.125 1.265625l0 3.03125l-1.65625 0l0 -6.21875zm9.826172 8.59375l0 -1.0625l6.84375 0l0 1.0625l-6.84375 0zm12.861328 -3.90625l0 1.53125l-5.78125 0q0.09375 -0.875 0.5625 -1.640625q0.46875 -0.78125 1.859375 -2.0625q1.109375 -1.03125 1.359375 -1.40625q0.34375 -0.515625 0.34375 -1.015625q0 -0.546875 -0.296875 -0.84375q-0.296875 -0.296875 -0.8125 -0.296875q-0.515625 0 -0.828125 0.3125q-0.296875 0.3125 -0.34375 1.03125l-1.640625 -0.15625q0.140625 -1.359375 0.90625 -1.953125q0.78125 -0.59375 1.9375 -0.59375q1.28125 0 2.0 0.6875q0.734375 0.6875 0.734375 1.703125q0 0.578125 -0.21875 1.109375q-0.203125 0.515625 -0.65625 1.09375q-0.296875 0.375 -1.078125 1.09375q-0.78125 0.71875 -0.984375 0.953125q-0.203125 0.234375 -0.34375 0.453125l3.28125 0z" fill-rule="nonzero"/><path fill="#000000" fill-opacity="0.0" d="m799.4344 455.8819l57.039368 0l0 33.921265l-57.039368 0z" fill-rule="evenodd"/><path fill="#000000" d="m808.4344 476.4019l2.9375 -4.484375l-2.65625 -4.109375l2.015625 0l1.734375 2.765625l1.6875 -2.765625l2.0 0l-2.671875 4.171875l2.9375 4.421875l-2.09375 0l-1.90625 -2.96875l-1.90625 2.96875l-2.078125 0zm8.738281 -6.21875l1.515625 0l0 0.84375q0.828125 -0.984375 1.953125 -0.984375q0.59375 0 1.03125 0.25q0.4375 0.234375 0.71875 0.734375q0.40625 -0.5 0.875 -0.734375q0.484375 -0.25 1.03125 -0.25q0.671875 0 1.140625 0.28125q0.484375 0.265625 0.71875 0.8125q0.171875 0.390625 0.171875 1.28125l0 3.984375l-1.640625 0l0 -3.5625q0 -0.921875 -0.171875 -1.1875q-0.234375 -0.359375 -0.703125 -0.359375q-0.34375 0 -0.65625 0.21875q-0.296875 0.203125 -0.4375 0.609375q-0.140625 0.40625 -0.140625 1.296875l0 2.984375l-1.640625 0l0 -3.40625q0 -0.90625 -0.09375 -1.171875q-0.078125 -0.265625 -0.265625 -0.390625q-0.1875 -0.140625 -0.5 -0.140625q-0.375 0 -0.6875 0.21875q-0.296875 0.203125 -0.4375 0.59375q-0.125 0.375 -0.125 1.265625l0 3.03125l-1.65625 0l0 -6.21875zm9.826172 8.59375l0 -1.0625l6.84375 0l0 1.0625l-6.84375 0zm13.298828 -2.375l-1.640625 0l0 -3.171875q0 -1.015625 -0.109375 -1.3125q-0.09375 -0.296875 -0.34375 -0.453125q-0.234375 -0.171875 -0.5625 -0.171875q-0.4375 0 -0.78125 0.234375q-0.328125 0.234375 -0.453125 0.625q-0.125 0.390625 -0.125 1.4375l0 2.8125l-1.65625 0l0 -6.21875l1.53125 0l0 0.90625q0.8125 -1.046875 2.0625 -1.046875q0.53125 0 0.984375 0.203125q0.453125 0.1875 0.6875 0.5q0.234375 0.296875 0.3125 0.6875q0.09375 0.375 0.09375 1.09375l0 3.875z" fill-rule="nonzero"/><path fill="#000000" fill-opacity="0.0" d="m416.91803 210.66405l0 55.149612" fill-rule="evenodd"/><path stroke="#000000" stroke-width="2.0" stroke-linejoin="round" stroke-linecap="butt" d="m416.91803 210.66405l0 55.149612" fill-rule="evenodd"/><path fill="#000000" fill-opacity="0.0" d="m414.06238 442.64304l0 55.149628" fill-rule="evenodd"/><path stroke="#000000" stroke-width="2.0" stroke-linejoin="round" stroke-linecap="butt" d="m414.06238 442.64304l0 55.149628" fill-rule="evenodd"/><path fill="#000000" fill-opacity="0.0" d="m781.042 153.74803l0 0c0 -22.83937 16.886292 -41.354332 37.716553 -41.354332l0 0c10.003052 0 19.596375 4.356964 26.669617 12.112404c7.073181 7.7554474 11.046875 18.274078 11.046875 29.241928l0 0c0 22.83937 -16.88623 41.354324 -37.71649 41.354324l0 0c-20.830261 0 -37.716553 -18.514954 -37.716553 -41.354324z" fill-rule="evenodd"/><path stroke="#ff0000" stroke-width="2.0" stroke-linejoin="round" stroke-linecap="butt" d="m781.042 153.74803l0 0c0 -22.83937 16.886292 -41.354332 37.716553 -41.354332l0 0c10.003052 0 19.596375 4.356964 26.669617 12.112404c7.073181 7.7554474 11.046875 18.274078 11.046875 29.241928l0 0c0 22.83937 -16.88623 41.354324 -37.71649 41.354324l0 0c-20.830261 0 -37.716553 -18.514954 -37.716553 -41.354324z" fill-rule="evenodd"/><path fill="#000000" fill-opacity="0.0" d="m856.47504 153.74803l58.55121 -0.3464508" fill-rule="evenodd"/><path stroke="#ff0000" stroke-width="2.0" stroke-linejoin="round" stroke-linecap="butt" d="m856.47504 153.74803l46.551453 -0.27545166" fill-rule="evenodd"/><path fill="#ff0000" stroke="#ff0000" stroke-width="2.0" stroke-linecap="butt" d="m903.046 156.77599l9.0564575 -3.3571167l-9.095581 -3.2496948z" fill-rule="evenodd"/><path fill="#000000" fill-opacity="0.0" d="m848.02496 238.5853l69.88971 -1.0393677" fill-rule="evenodd"/><path stroke="#ffff00" stroke-width="2.0" stroke-linejoin="round" stroke-linecap="butt" d="m848.02496 238.5853l57.891052 -0.8609314" fill-rule="evenodd"/><path fill="#ffff00" stroke="#ffff00" stroke-width="2.0" stroke-linecap="butt" d="m905.96515 241.02747l9.026062 -3.4380646l-9.124329 -3.1681366z" fill-rule="evenodd"/><path fill="#000000" fill-opacity="0.0" d="m929.27295 131.1181l142.2992 0l0 45.259857l-142.2992 0z" fill-rule="evenodd"/><path fill="#ff0000" d="m982.40826 154.98874l0 -2.578125l6.640625 0l0 6.078125q-0.96875 0.9375 -2.8125 1.65625q-1.828125 0.71875 -3.71875 0.71875q-2.390625 0 -4.171875 -1.0q-1.78125 -1.015625 -2.6875 -2.875q-0.890625 -1.875 -0.890625 -4.078125q0 -2.390625 1.0 -4.234375q1.0 -1.859375 2.9375 -2.84375q1.46875 -0.765625 3.65625 -0.765625q2.828125 0 4.421875 1.203125q1.609375 1.1875 2.0625 3.296875l-3.0625 0.5625q-0.3125 -1.125 -1.203125 -1.765625q-0.890625 -0.65625 -2.21875 -0.65625q-2.03125 0 -3.21875 1.28125q-1.1875 1.28125 -1.1875 3.796875q0 2.71875 1.203125 4.078125q1.203125 1.359375 3.171875 1.359375q0.96875 0 1.9375 -0.375q0.96875 -0.390625 1.671875 -0.921875l0 -1.9375l-3.53125 0zm15.870911 2.09375l2.90625 0.484375q-0.546875 1.609375 -1.765625 2.453125q-1.21875 0.828125 -3.03125 0.828125q-2.890625 0 -4.28125 -1.890625q-1.09375 -1.5 -1.09375 -3.8125q0 -2.75 1.4375 -4.296875q1.4375 -1.5625 3.640625 -1.5625q2.46875 0 3.890625 1.640625q1.421875 1.625 1.359375 4.984375l-7.328125 0q0.03125 1.296875 0.703125 2.03125q0.6875 0.71875 1.703125 0.71875q0.6875 0 1.15625 -0.375q0.46875 -0.375 0.703125 -1.203125zm0.171875 -2.96875q-0.03125 -1.265625 -0.65625 -1.921875q-0.625 -0.671875 -1.53125 -0.671875q-0.953125 0 -1.578125 0.703125q-0.625 0.703125 -0.609375 1.890625l4.375 0zm15.346069 6.484375l-2.921875 0l0 -5.640625q0 -1.796875 -0.1875 -2.3125q-0.1875 -0.53125 -0.609375 -0.828125q-0.421875 -0.296875 -1.015625 -0.296875q-0.765625 0 -1.375 0.421875q-0.59375 0.421875 -0.828125 1.109375q-0.21875 0.6875 -0.21875 2.53125l0 5.015625l-2.921875 0l0 -11.0625l2.71875 0l0 1.625q1.4375 -1.875 3.640625 -1.875q0.96875 0 1.765625 0.359375q0.8125 0.34375 1.21875 0.890625q0.40625 0.53125 0.5625 1.21875q0.171875 0.6875 0.171875 1.96875l0 6.875zm9.371826 -3.515625l2.90625 0.484375q-0.546875 1.609375 -1.765625 2.453125q-1.21875 0.828125 -3.03125 0.828125q-2.890625 0 -4.28125 -1.890625q-1.09375 -1.5 -1.09375 -3.8125q0 -2.75 1.4375 -4.296875q1.4375 -1.5625 3.640625 -1.5625q2.46875 0 3.890625 1.640625q1.421875 1.625 1.359375 4.984375l-7.328125 0q0.03125 1.296875 0.703125 2.03125q0.6875 0.71875 1.703125 0.71875q0.6875 0 1.15625 -0.375q0.46875 -0.375 0.703125 -1.203125zm0.171875 -2.96875q-0.03125 -1.265625 -0.65625 -1.921875q-0.625 -0.671875 -1.53125 -0.671875q-0.953125 0 -1.578125 0.703125q-0.625 0.703125 -0.609375 1.890625l4.375 0z" fill-rule="nonzero"/><path fill="#000000" fill-opacity="0.0" d="m935.2126 215.4357l178.0473 0l0 96.944885l-178.0473 0z" fill-rule="evenodd"/><path fill="#ffff00" d="m966.8155 239.30632l3.0 0.9375q-0.6875 2.5 -2.296875 3.71875q-1.59375 1.21875 -4.046875 1.21875q-3.046875 0 -5.0 -2.078125q-1.953125 -2.078125 -1.953125 -5.6875q0 -3.8125 1.96875 -5.921875q1.96875 -2.109375 5.171875 -2.109375q2.796875 0 4.546875 1.65625q1.046875 0.984375 1.5625 2.8125l-3.046875 0.734375q-0.28125 -1.1875 -1.140625 -1.875q-0.84375 -0.6875 -2.078125 -0.6875q-1.703125 0 -2.765625 1.21875q-1.046875 1.21875 -1.046875 3.9375q0 2.90625 1.03125 4.140625q1.046875 1.21875 2.71875 1.21875q1.234375 0 2.109375 -0.78125q0.890625 -0.78125 1.265625 -2.453125zm8.543091 -9.65625l0 5.609375q1.40625 -1.65625 3.375 -1.65625q1.015625 0 1.828125 0.375q0.8125 0.375 1.21875 0.96875q0.40625 0.578125 0.5625 1.28125q0.15625 0.703125 0.15625 2.203125l0 6.484375l-2.921875 0l0 -5.84375q0 -1.734375 -0.171875 -2.203125q-0.171875 -0.46875 -0.59375 -0.75q-0.421875 -0.28125 -1.046875 -0.28125q-0.734375 0 -1.3125 0.359375q-0.5625 0.359375 -0.828125 1.078125q-0.265625 0.703125 -0.265625 2.09375l0 5.546875l-2.9375 0l0 -15.265625l2.9375 0zm12.903076 15.265625l-2.921875 0l0 -11.0625l2.71875 0l0 1.578125q0.703125 -1.125 1.25 -1.46875q0.5625 -0.359375 1.265625 -0.359375q1.0 0 1.9375 0.5625l-0.90625 2.546875q-0.75 -0.484375 -1.375 -0.484375q-0.625 0 -1.046875 0.34375q-0.421875 0.328125 -0.671875 1.21875q-0.25 0.890625 -0.25 3.703125l0 3.421875zm4.831299 -5.6875q0 -1.453125 0.71875 -2.8125q0.71875 -1.375 2.03125 -2.09375q1.3125 -0.71875 2.9375 -0.71875q2.515625 0 4.109375 1.640625q1.609375 1.625 1.609375 4.109375q0 2.515625 -1.625 4.171875q-1.609375 1.640625 -4.0625 1.640625q-1.53125 0 -2.90625 -0.6875q-1.375 -0.6875 -2.09375 -2.015625q-0.71875 -1.328125 -0.71875 -3.234375zm3.0 0.15625q0 1.640625 0.78125 2.515625q0.78125 0.875 1.921875 0.875q1.140625 0 1.921875 -0.875q0.78125 -0.875 0.78125 -2.53125q0 -1.625 -0.78125 -2.5q-0.78125 -0.875 -1.921875 -0.875q-1.140625 0 -1.921875 0.875q-0.78125 0.875 -0.78125 2.515625zm10.481201 -5.53125l2.703125 0l0 1.515625q1.4375 -1.765625 3.4375 -1.765625q1.0625 0 1.84375 0.4375q0.78125 0.4375 1.28125 1.328125q0.734375 -0.890625 1.578125 -1.328125q0.84375 -0.4375 1.796875 -0.4375q1.21875 0 2.0625 0.5q0.84375 0.484375 1.265625 1.453125q0.296875 0.703125 0.296875 2.28125l0 7.078125l-2.921875 0l0 -6.328125q0 -1.640625 -0.3125 -2.125q-0.40625 -0.625 -1.25 -0.625q-0.609375 0 -1.15625 0.375q-0.53125 0.375 -0.78125 1.109375q-0.234375 0.71875 -0.234375 2.28125l0 5.3125l-2.921875 0l0 -6.0625q0 -1.609375 -0.15625 -2.078125q-0.15625 -0.46875 -0.484375 -0.703125q-0.328125 -0.234375 -0.890625 -0.234375q-0.671875 0 -1.21875 0.375q-0.546875 0.359375 -0.78125 1.046875q-0.234375 0.6875 -0.234375 2.28125l0 5.375l-2.921875 0l0 -11.0625zm18.511047 5.375q0 -1.453125 0.71875 -2.8125q0.71875 -1.375 2.03125 -2.09375q1.3125 -0.71875 2.9375 -0.71875q2.515625 0 4.109375 1.640625q1.609375 1.625 1.609375 4.109375q0 2.515625 -1.625 4.171875q-1.609375 1.640625 -4.0625 1.640625q-1.53125 0 -2.90625 -0.6875q-1.375 -0.6875 -2.09375 -2.015625q-0.71875 -1.328125 -0.71875 -3.234375zm3.0 0.15625q0 1.640625 0.78125 2.515625q0.78125 0.875 1.921875 0.875q1.140625 0 1.921875 -0.875q0.78125 -0.875 0.78125 -2.53125q0 -1.625 -0.78125 -2.5q-0.78125 -0.875 -1.921875 -0.875q-1.140625 0 -1.921875 0.875q-0.78125 0.875 -0.78125 2.515625zm9.668701 2.375l2.9375 -0.453125q0.1875 0.859375 0.75 1.3125q0.578125 0.4375 1.609375 0.4375q1.140625 0 1.71875 -0.421875q0.375 -0.296875 0.375 -0.78125q0 -0.328125 -0.203125 -0.546875q-0.21875 -0.21875 -0.984375 -0.390625q-3.53125 -0.78125 -4.484375 -1.421875q-1.3125 -0.90625 -1.3125 -2.5q0 -1.4375 1.125 -2.40625q1.140625 -0.984375 3.53125 -0.984375q2.265625 0 3.375 0.75q1.109375 0.734375 1.515625 2.171875l-2.75 0.515625q-0.1875 -0.640625 -0.6875 -0.984375q-0.484375 -0.34375 -1.40625 -0.34375q-1.15625 0 -1.65625 0.3125q-0.328125 0.234375 -0.328125 0.59375q0 0.3125 0.296875 0.53125q0.390625 0.296875 2.71875 0.828125q2.34375 0.53125 3.28125 1.296875q0.90625 0.78125 0.90625 2.1875q0 1.515625 -1.265625 2.609375q-1.265625 1.09375 -3.765625 1.09375q-2.25 0 -3.578125 -0.90625q-1.3125 -0.921875 -1.71875 -2.5zm12.221069 -2.53125q0 -1.453125 0.71875 -2.8125q0.71875 -1.375 2.03125 -2.09375q1.3125 -0.71875 2.9375 -0.71875q2.515625 0 4.109375 1.640625q1.609375 1.625 1.609375 4.109375q0 2.515625 -1.625 4.171875q-1.609375 1.640625 -4.0625 1.640625q-1.53125 0 -2.90625 -0.6875q-1.375 -0.6875 -2.09375 -2.015625q-0.71875 -1.328125 -0.71875 -3.234375zm3.0 0.15625q0 1.640625 0.78125 2.515625q0.78125 0.875 1.921875 0.875q1.140625 0 1.921875 -0.875q0.78125 -0.875 0.78125 -2.53125q0 -1.625 -0.78125 -2.5q-0.78125 -0.875 -1.921875 -0.875q-1.140625 0 -1.921875 0.875q-0.78125 0.875 -0.78125 2.515625zm10.481201 -5.53125l2.703125 0l0 1.515625q1.4375 -1.765625 3.4375 -1.765625q1.0625 0 1.84375 0.4375q0.78125 0.4375 1.28125 1.328125q0.734375 -0.890625 1.578125 -1.328125q0.84375 -0.4375 1.796875 -0.4375q1.21875 0 2.0625 0.5q0.84375 0.484375 1.265625 1.453125q0.296875 0.703125 0.296875 2.28125l0 7.078125l-2.921875 0l0 -6.328125q0 -1.640625 -0.3125 -2.125q-0.40625 -0.625 -1.25 -0.625q-0.609375 0 -1.15625 0.375q-0.53125 0.375 -0.78125 1.109375q-0.234375 0.71875 -0.234375 2.28125l0 5.3125l-2.921875 0l0 -6.0625q0 -1.609375 -0.15625 -2.078125q-0.15625 -0.46875 -0.484375 -0.703125q-0.328125 -0.234375 -0.890625 -0.234375q-0.671875 0 -1.21875 0.375q-0.546875 0.359375 -0.78125 1.046875q-0.234375 0.6875 -0.234375 2.28125l0 5.375l-2.921875 0l0 -11.0625zm25.589111 7.546875l2.90625 0.484375q-0.546875 1.609375 -1.765625 2.453125q-1.21875 0.828125 -3.03125 0.828125q-2.890625 0 -4.28125 -1.890625q-1.09375 -1.5 -1.09375 -3.8125q0 -2.75 1.4375 -4.296875q1.4375 -1.5625 3.640625 -1.5625q2.46875 0 3.890625 1.640625q1.421875 1.625 1.359375 4.984375l-7.328125 0q0.03125 1.296875 0.703125 2.03125q0.6875 0.71875 1.703125 0.71875q0.6875 0 1.15625 -0.375q0.46875 -0.375 0.703125 -1.203125zm0.171875 -2.96875q-0.03125 -1.265625 -0.65625 -1.921875q-0.625 -0.671875 -1.53125 -0.671875q-0.953125 0 -1.578125 0.703125q-0.625 0.703125 -0.609375 1.890625l4.375 0z" fill-rule="nonzero"/><path fill="#ffff00" d="m1012.7132 262.9688q0 -2.328125 0.703125 -3.90625q0.515625 -1.171875 1.421875 -2.09375q0.90625 -0.921875 1.96875 -1.375q1.4375 -0.609375 3.296875 -0.609375q3.375 0 5.390686 2.09375q2.03125 2.09375 2.03125 5.828125q0 3.6875 -2.015625 5.78125q-2.000061 2.09375 -5.359436 2.09375q-3.40625 0 -5.421875 -2.078125q-2.015625 -2.078125 -2.015625 -5.734375zm3.1875 -0.09375q0 2.59375 1.1875 3.9375q1.203125 1.328125 3.046875 1.328125q1.84375 0 3.015625 -1.328125q1.187561 -1.328125 1.187561 -3.984375q0 -2.625 -1.156311 -3.90625q-1.140625 -1.296875 -3.046875 -1.296875q-1.90625 0 -3.078125 1.3125q-1.15625 1.296875 -1.15625 3.9375zm16.80841 7.640625l-2.921875 0l0 -11.0625l2.71875 0l0 1.578125q0.703125 -1.125 1.25 -1.46875q0.5625 -0.359375 1.265625 -0.359375q1.0 0 1.9375 0.5625l-0.90625 2.546875q-0.75 -0.484375 -1.375 -0.484375q-0.625 0 -1.046875 0.34375q-0.421875 0.328125 -0.671875 1.21875q-0.25 0.890625 -0.25 3.703125l0 3.421875z" fill-rule="nonzero"/><path fill="#ffff00" d="m978.88306 296.1157l0 -15.265625l3.09375 0l0 15.265625l-3.09375 0zm16.066223 0l-2.921875 0l0 -5.640625q0 -1.796875 -0.1875 -2.3125q-0.1875 -0.53125 -0.609375 -0.828125q-0.421875 -0.296875 -1.015625 -0.296875q-0.765625 0 -1.375 0.421875q-0.59375 0.421875 -0.828125 1.109375q-0.21875 0.6875 -0.21875 2.53125l0 5.015625l-2.921875 0l0 -11.0625l2.71875 0l0 1.625q1.4375 -1.875 3.640625 -1.875q0.96875 0 1.765625 0.359375q0.8125 0.34375 1.21875 0.890625q0.40625 0.53125 0.5625 1.21875q0.171875 0.6875 0.171875 1.96875l0 6.875zm13.106201 0l-2.71875 0l0 -1.625q-0.671875 0.953125 -1.59375 1.421875q-0.921875 0.453125 -1.859375 0.453125q-1.90625 0 -3.265625 -1.53125q-1.359375 -1.546875 -1.359375 -4.296875q0 -2.8125 1.3125 -4.265625q1.328125 -1.46875 3.359375 -1.46875q1.84375 0 3.203125 1.546875l0 -5.5l2.921875 0l0 15.265625zm-7.8125 -5.765625q0 1.765625 0.5 2.5625q0.703125 1.140625 1.96875 1.140625q1.015625 0 1.71875 -0.859375q0.71875 -0.859375 0.71875 -2.5625q0 -1.90625 -0.6875 -2.75q-0.6875 -0.84375 -1.765625 -0.84375q-1.046875 0 -1.75 0.828125q-0.703125 0.828125 -0.703125 2.484375zm10.699951 -6.796875l0 -2.703125l2.921875 0l0 2.703125l-2.921875 0zm0 12.5625l0 -11.0625l2.921875 0l0 11.0625l-2.921875 0zm8.972534 0l-4.46875 -11.0625l3.078125 0l2.078125 5.640625l0.609375 1.890625q0.234375 -0.71875 0.296875 -0.953125q0.15625 -0.46875 0.3125 -0.9375l2.109375 -5.640625l3.000061 0l-4.390686 11.0625l-2.625 0zm8.81488 -12.5625l0 -2.703125l2.921875 0l0 2.703125l-2.921875 0zm0 12.5625l0 -11.0625l2.921875 0l0 11.0625l-2.921875 0zm16.066162 0l-2.71875 0l0 -1.625q-0.671875 0.953125 -1.59375 1.421875q-0.921875 0.453125 -1.859375 0.453125q-1.90625 0 -3.265625 -1.53125q-1.359375 -1.546875 -1.359375 -4.296875q0 -2.8125 1.3125 -4.265625q1.328125 -1.46875 3.359375 -1.46875q1.84375 0 3.203125 1.546875l0 -5.5l2.921875 0l0 15.265625zm-7.8125 -5.765625q0 1.765625 0.5 2.5625q0.703125 1.140625 1.96875 1.140625q1.015625 0 1.71875 -0.859375q0.71875 -0.859375 0.71875 -2.5625q0 -1.90625 -0.6875 -2.75q-0.6875 -0.84375 -1.765625 -0.84375q-1.046875 0 -1.75 0.828125q-0.703125 0.828125 -0.703125 2.484375zm17.981201 5.765625l0 -1.65625q-0.609375 0.890625 -1.59375 1.40625q-0.984375 0.5 -2.078125 0.5q-1.109375 0 -2.0 -0.484375q-0.875 -0.5 -1.28125 -1.375q-0.390625 -0.890625 -0.390625 -2.453125l0 -7.0l2.921875 0l0 5.078125q0 2.34375 0.15625 2.875q0.171875 0.515625 0.59375 0.828125q0.4375 0.296875 1.09375 0.296875q0.75 0 1.34375 -0.40625q0.59375 -0.40625 0.8125 -1.015625q0.21875 -0.609375 0.21875 -2.984375l0 -4.671875l2.921875 0l0 11.0625l-2.71875 0zm7.934326 -7.6875l-2.65625 -0.484375q0.453125 -1.59375 1.546875 -2.359375q1.09375 -0.78125 3.25 -0.78125q1.953125 0 2.90625 0.46875q0.96875 0.453125 1.359375 1.171875q0.390625 0.71875 0.390625 2.625l-0.03125 3.40625q0 1.46875 0.125 2.15625q0.140625 0.6875 0.53125 1.484375l-2.890625 0q-0.109375 -0.296875 -0.28125 -0.859375q-0.078125 -0.265625 -0.109375 -0.34375q-0.75 0.71875 -1.609375 1.09375q-0.84375 0.359375 -1.8125 0.359375q-1.703125 0 -2.6875 -0.921875q-0.984375 -0.9375 -0.984375 -2.34375q0 -0.9375 0.4375 -1.671875q0.453125 -0.734375 1.25 -1.125q0.8125 -0.390625 2.34375 -0.6875q2.046875 -0.390625 2.84375 -0.71875l0 -0.296875q0 -0.84375 -0.421875 -1.203125q-0.421875 -0.359375 -1.578125 -0.359375q-0.78125 0 -1.21875 0.3125q-0.4375 0.3125 -0.703125 1.078125zm3.921875 2.375q-0.5625 0.1875 -1.78125 0.453125q-1.21875 0.25 -1.59375 0.5q-0.578125 0.40625 -0.578125 1.03125q0 0.625 0.453125 1.078125q0.46875 0.4375 1.171875 0.4375q0.796875 0 1.515625 -0.515625q0.53125 -0.40625 0.6875 -0.96875q0.125 -0.375 0.125 -1.4375l0 -0.578125z" fill-rule="nonzero"/><path fill="#000000" fill-opacity="0.0" d="m334.16272 15.989501l265.92126 0l0 48.472443l-265.92126 0z" fill-rule="evenodd"/><path fill="#000000" d="m406.88116 48.029503l0 -17.1875l5.5625 0q3.171875 0 4.125 0.265625q1.484375 0.390625 2.46875 1.6875q1.0 1.28125 1.0 3.34375q0 1.578125 -0.578125 2.65625q-0.5625 1.078125 -1.453125 1.703125q-0.890625 0.609375 -1.796875 0.796875q-1.25 0.25 -3.59375 0.25l-2.265625 0l0 6.484375l-3.46875 0zm3.46875 -14.28125l0 4.875l1.890625 0q2.0625 0 2.75 -0.265625q0.6875 -0.265625 1.078125 -0.84375q0.390625 -0.578125 0.390625 -1.328125q0 -0.9375 -0.546875 -1.546875q-0.546875 -0.609375 -1.390625 -0.765625q-0.625 -0.125 -2.5 -0.125l-1.671875 0zm11.7578125 7.875q0 -1.640625 0.796875 -3.171875q0.8125 -1.53125 2.296875 -2.34375q1.484375 -0.8125 3.3125 -0.8125q2.828125 0 4.625 1.84375q1.8125 1.828125 1.8125 4.625q0 2.828125 -1.828125 4.6875q-1.828125 1.859375 -4.59375 1.859375q-1.703125 0 -3.265625 -0.765625q-1.546875 -0.78125 -2.359375 -2.265625q-0.796875 -1.5 -0.796875 -3.65625zm3.375 0.1875q0 1.84375 0.875 2.828125q0.875 0.984375 2.171875 0.984375q1.28125 0 2.15625 -0.984375q0.875 -0.984375 0.875 -2.859375q0 -1.828125 -0.875 -2.8125q-0.875 -0.984375 -2.15625 -0.984375q-1.296875 0 -2.171875 0.984375q-0.875 0.984375 -0.875 2.84375zm11.941406 -6.234375l3.078125 0l0 1.828125q0.59375 -0.9375 1.609375 -1.515625q1.03125 -0.59375 2.265625 -0.59375q2.171875 0 3.671875 1.703125q1.515625 1.703125 1.515625 4.734375q0 3.125 -1.53125 4.859375q-1.515625 1.71875 -3.671875 1.71875q-1.03125 0 -1.875 -0.40625q-0.84375 -0.421875 -1.765625 -1.40625l0 6.265625l-3.296875 0l0 -17.1875zm3.265625 6.015625q0 2.09375 0.828125 3.109375q0.828125 1.0 2.03125 1.0q1.140625 0 1.90625 -0.921875q0.765625 -0.921875 0.765625 -3.015625q0 -1.96875 -0.796875 -2.90625q-0.78125 -0.953125 -1.9375 -0.953125q-1.203125 0 -2.0 0.9375q-0.796875 0.921875 -0.796875 2.75zm19.691406 6.4375l0 -1.859375q-0.6875 0.984375 -1.796875 1.5625q-1.109375 0.578125 -2.328125 0.578125q-1.265625 0 -2.265625 -0.546875q-0.984375 -0.5625 -1.4375 -1.546875q-0.4375 -1.0 -0.4375 -2.765625l0 -7.875l3.296875 0l0 5.71875q0 2.625 0.171875 3.21875q0.1875 0.59375 0.65625 0.9375q0.484375 0.34375 1.234375 0.34375q0.84375 0 1.5 -0.453125q0.671875 -0.46875 0.921875 -1.15625q0.25 -0.6875 0.25 -3.359375l0 -5.25l3.28125 0l0 12.453125l-3.046875 0zm6.4570312 0l0 -17.1875l3.296875 0l0 17.1875l-3.296875 0zm9.136719 -8.65625l-2.984375 -0.53125q0.5 -1.8125 1.71875 -2.671875q1.234375 -0.875 3.671875 -0.875q2.203125 0 3.28125 0.53125q1.078125 0.515625 1.515625 1.328125q0.4375 0.796875 0.4375 2.9375l-0.03125 3.84375q0 1.640625 0.15625 2.421875q0.15625 0.78125 0.59375 1.671875l-3.265625 0q-0.125 -0.328125 -0.3125 -0.96875q-0.078125 -0.296875 -0.125 -0.390625q-0.84375 0.8125 -1.8125 1.234375q-0.953125 0.40625 -2.03125 0.40625q-1.921875 0 -3.03125 -1.046875q-1.109375 -1.046875 -1.109375 -2.640625q0 -1.046875 0.5 -1.875q0.5 -0.828125 1.40625 -1.265625q0.921875 -0.4375 2.625 -0.765625q2.3125 -0.4375 3.203125 -0.8125l0 -0.328125q0 -0.953125 -0.46875 -1.34375q-0.46875 -0.40625 -1.765625 -0.40625q-0.890625 0 -1.390625 0.34375q-0.484375 0.34375 -0.78125 1.203125zm4.40625 2.671875q-0.640625 0.21875 -2.015625 0.515625q-1.359375 0.28125 -1.78125 0.5625q-0.640625 0.46875 -0.640625 1.171875q0 0.6875 0.515625 1.1875q0.515625 0.5 1.3125 0.5q0.890625 0 1.6875 -0.578125q0.609375 -0.453125 0.796875 -1.09375q0.125 -0.421875 0.125 -1.609375l0 -0.65625zm12.191406 -6.46875l0 2.625l-2.25 0l0 5.015625q0 1.53125 0.0625 1.78125q0.0625 0.25 0.28125 0.421875q0.234375 0.15625 0.5625 0.15625q0.453125 0 1.328125 -0.3125l0.28125 2.546875q-1.15625 0.5 -2.609375 0.5q-0.890625 0 -1.609375 -0.296875q-0.703125 -0.296875 -1.046875 -0.765625q-0.328125 -0.484375 -0.453125 -1.296875q-0.109375 -0.578125 -0.109375 -2.3125l0 -5.4375l-1.515625 0l0 -2.625l1.515625 0l0 -2.46875l3.3125 -1.921875l0 4.390625l2.25 0zm2.2734375 -1.6875l0 -3.046875l3.296875 0l0 3.046875l-3.296875 0zm0 14.140625l0 -12.453125l3.296875 0l0 12.453125l-3.296875 0zm5.9179688 -6.40625q0 -1.640625 0.796875 -3.171875q0.8125 -1.53125 2.296875 -2.34375q1.484375 -0.8125 3.3125 -0.8125q2.828125 0 4.625 1.84375q1.8125 1.828125 1.8125 4.625q0 2.828125 -1.828125 4.6875q-1.828125 1.859375 -4.59375 1.859375q-1.703125 0 -3.265625 -0.765625q-1.546875 -0.78125 -2.359375 -2.265625q-0.796875 -1.5 -0.796875 -3.65625zm3.375 0.1875q0 1.84375 0.875 2.828125q0.875 0.984375 2.171875 0.984375q1.28125 0 2.15625 -0.984375q0.875 -0.984375 0.875 -2.859375q0 -1.828125 -0.875 -2.8125q-0.875 -0.984375 -2.15625 -0.984375q-1.296875 0 -2.171875 0.984375q-0.875 0.984375 -0.875 2.84375zm23.363281 6.21875l-3.296875 0l0 -6.359375q0 -2.015625 -0.21875 -2.59375q-0.203125 -0.59375 -0.6875 -0.921875q-0.46875 -0.328125 -1.125 -0.328125q-0.859375 0 -1.546875 0.46875q-0.671875 0.46875 -0.921875 1.25q-0.25 0.765625 -0.25 2.84375l0 5.640625l-3.296875 0l0 -12.453125l3.0625 0l0 1.828125q1.625 -2.109375 4.09375 -2.109375q1.09375 0 1.984375 0.40625q0.90625 0.390625 1.375 1.0q0.46875 0.609375 0.640625 1.390625q0.1875 0.765625 0.1875 2.203125l0 7.734375z" fill-rule="nonzero"/></g></svg>