<svg version="1.1" viewBox="0.0 0.0 1355.1102362204724 185.53543307086613" fill="none" stroke="none" stroke-linecap="square" stroke-miterlimit="10" xmlns:xlink="http://www.w3.org/1999/xlink" xmlns="http://www.w3.org/2000/svg"><clipPath id="p.0"><path d="m0 0l1355.1102 0l0 185.53543l-1355.1102 0l0 -185.53543z" clip-rule="nonzero"/></clipPath><g clip-path="url(#p.0)"><path fill="#000000" fill-opacity="0.0" d="m0 0l1355.1102 0l0 185.53543l-1355.1102 0z" fill-rule="evenodd"/><path fill="#cfe2f3" d="m202.17848 46.55643l445.7638 0l0 59.748028l-445.7638 0z" fill-rule="evenodd"/><path stroke="#000000" stroke-width="1.0" stroke-linejoin="round" stroke-linecap="butt" d="m202.17848 46.55643l445.7638 0l0 59.748028l-445.7638 0z" fill-rule="evenodd"/><path fill="#000000" fill-opacity="0.0" d="m218.37534 42.540684l417.25986 0l0 67.87401l-417.25986 0z" fill-rule="evenodd"/><path fill="#000000" d="m235.36171 83.14381l3.15625 -0.421875q0.546875 2.6875 1.859375 3.875q1.3125 1.1875 3.1875 1.1875q2.234375 0 3.765625 -1.546875q1.546875 -1.546875 1.546875 -3.84375q0 -2.171875 -1.421875 -3.578125q-1.421875 -1.421875 -3.625 -1.421875q-0.890625 0 -2.234375 0.34375l0.359375 -2.78125q0.3125 0.046875 0.5 0.046875q2.03125 0 3.640625 -1.046875q1.625 -1.0625 1.625 -3.265625q0 -1.734375 -1.1875 -2.875q-1.171875 -1.15625 -3.03125 -1.15625q-1.84375 0 -3.078125 1.171875q-1.234375 1.15625 -1.578125 3.46875l-3.171875 -0.5625q0.578125 -3.171875 2.625 -4.921875q2.0625 -1.75 5.125 -1.75q2.109375 0 3.875 0.90625q1.78125 0.90625 2.71875 2.46875q0.953125 1.5625 0.953125 3.328125q0 1.65625 -0.90625 3.03125q-0.890625 1.375 -2.640625 2.1875q2.28125 0.515625 3.546875 2.1875q1.265625 1.65625 1.265625 4.15625q0 3.375 -2.46875 5.71875q-2.453125 2.34375 -6.21875 2.34375q-3.390625 0 -5.640625 -2.015625q-2.234375 -2.03125 -2.546875 -5.234375z" fill-rule="nonzero"/><path fill="#000000" d="m267.307 98.36256l0 -37.546875l4.359375 0l0 37.546875l-4.359375 0z" fill-rule="nonzero"/><path fill="#000000" d="m304.08044 70.48756l-3.140625 0.234375q-0.421875 -1.859375 -1.1875 -2.703125q-1.296875 -1.359375 -3.171875 -1.359375q-1.515625 0 -2.65625 0.84375q-1.484375 1.09375 -2.359375 3.1875q-0.859375 2.09375 -0.890625 5.953125q1.140625 -1.734375 2.796875 -2.578125q1.65625 -0.84375 3.46875 -0.84375q3.15625 0 5.375 2.328125q2.234375 2.328125 2.234375 6.015625q0 2.4375 -1.046875 4.515625q-1.046875 2.078125 -2.875 3.1875q-1.828125 1.109375 -4.15625 1.109375q-3.953125 0 -6.453125 -2.90625q-2.484375 -2.90625 -2.484375 -9.59375q0 -7.46875 2.75 -10.859375q2.40625 -2.953125 6.484375 -2.953125q3.046875 0 4.984375 1.703125q1.953125 1.703125 2.328125 4.71875zm-12.90625 11.109375q0 1.625 0.6875 3.125q0.6875 1.484375 1.9375 2.28125q1.25 0.78125 2.625 0.78125q2.0 0 3.4375 -1.609375q1.453125 -1.625 1.453125 -4.40625q0 -2.671875 -1.4375 -4.203125q-1.421875 -1.546875 -3.578125 -1.546875q-2.140625 0 -3.640625 1.546875q-1.484375 1.53125 -1.484375 4.03125z" fill-rule="nonzero"/><path fill="#000000" d="m319.63513 98.36256l0 -37.546875l4.359375 0l0 37.546875l-4.359375 0z" fill-rule="nonzero"/><path fill="#000000" d="m351.90857 89.94068l-3.15625 0l0 -20.15625q-1.140625 1.078125 -3.0 2.171875q-1.859375 1.09375 -3.328125 1.640625l0 -3.0625q2.65625 -1.25 4.640625 -3.015625q1.984375 -1.78125 2.8125 -3.453125l2.03125 0l0 25.875z" fill-rule="nonzero"/><path fill="#000000" d="m371.96326 98.36256l0 -37.546875l4.359375 0l0 37.546875l-4.359375 0z" fill-rule="nonzero"/><path fill="#000000" d="m402.47107 89.94068l0 -6.171875l-11.1875 0l0 -2.90625l11.765625 -16.6875l2.578125 0l0 16.6875l3.484375 0l0 2.90625l-3.484375 0l0 6.171875l-3.15625 0zm0 -9.078125l0 -11.609375l-8.078125 11.609375l8.078125 0z" fill-rule="nonzero"/><path fill="#000000" d="m424.29138 98.36256l0 -37.546875l4.359375 0l0 37.546875l-4.359375 0z" fill-rule="nonzero"/><path fill="#000000" d="m449.51794 75.97193q-1.96875 -0.734375 -2.921875 -2.0625q-0.9375 -1.34375 -0.9375 -3.203125q0 -2.8125 2.015625 -4.71875q2.03125 -1.921875 5.375 -1.921875q3.375 0 5.4375 1.96875q2.0625 1.953125 2.0625 4.765625q0 1.796875 -0.953125 3.125q-0.9375 1.3125 -2.84375 2.046875q2.375 0.765625 3.609375 2.5q1.234375 1.71875 1.234375 4.109375q0 3.296875 -2.34375 5.546875q-2.328125 2.25 -6.140625 2.25q-3.8125 0 -6.15625 -2.25q-2.34375 -2.265625 -2.34375 -5.640625q0 -2.515625 1.28125 -4.203125q1.28125 -1.703125 3.625 -2.3125zm-0.625 -5.375q0 1.828125 1.171875 3.0q1.1875 1.15625 3.0625 1.15625q1.828125 0 3.0 -1.140625q1.171875 -1.15625 1.171875 -2.828125q0 -1.75 -1.21875 -2.9375q-1.203125 -1.1875 -2.984375 -1.1875q-1.8125 0 -3.015625 1.171875q-1.1875 1.15625 -1.1875 2.765625zm-1.015625 11.90625q0 1.359375 0.640625 2.625q0.640625 1.265625 1.90625 1.96875q1.265625 0.6875 2.71875 0.6875q2.265625 0 3.734375 -1.453125q1.484375 -1.46875 1.484375 -3.71875q0 -2.28125 -1.515625 -3.78125q-1.515625 -1.5 -3.8125 -1.5q-2.234375 0 -3.703125 1.484375q-1.453125 1.46875 -1.453125 3.6875z" fill-rule="nonzero"/><path fill="#000000" d="m476.61954 98.36256l0 -37.546875l4.359375 0l0 37.546875l-4.359375 0z" fill-rule="nonzero"/><path fill="#000000" d="m513.6117 86.89381l0 3.046875l-17.03122 0q-0.03125 -1.140625 0.359375 -2.203125q0.65625 -1.734375 2.078125 -3.421875q1.4375 -1.6875 4.15625 -3.90625q4.203125 -3.4375 5.671875 -5.453125q1.484375 -2.015625 1.484375 -3.8125q0 -1.875 -1.359375 -3.15625q-1.34375 -1.296875 -3.5 -1.296875q-2.28125 0 -3.65625 1.375q-1.375 1.359375 -1.390625 3.78125l-3.25 -0.328125q0.328125 -3.640625 2.5 -5.546875q2.1875 -1.90625 5.875 -1.90625q3.703125 0 5.859375 2.0625q2.1718445 2.046875 2.1718445 5.09375q0 1.546875 -0.640625 3.046875q-0.625 1.484375 -2.0937195 3.140625q-1.46875 1.65625 -4.875 4.53125q-2.859375 2.390625 -3.671875 3.25q-0.796875 0.84375 -1.328125 1.703125l12.6405945 0z" fill-rule="nonzero"/><path fill="#000000" d="m528.94763 98.36256l0 -37.546875l4.359375 0l0 37.546875l-4.359375 0z" fill-rule="nonzero"/><path fill="#000000" d="m549.3148 83.19068l3.3125 -0.28125q0.375 2.421875 1.71875 3.65625q1.34375 1.21875 3.25 1.21875q2.28125 0 3.859375 -1.71875q1.578125 -1.734375 1.578125 -4.578125q0 -2.703125 -1.515625 -4.265625q-1.515625 -1.578125 -3.984375 -1.578125q-1.53125 0 -2.765625 0.703125q-1.21875 0.6875 -1.921875 1.796875l-2.96875 -0.390625l2.484375 -13.234375l12.828125 0l0 3.03125l-10.296875 0l-1.375 6.921875q2.3125 -1.625 4.859375 -1.625q3.375 0 5.6875 2.34375q2.328125 2.34375 2.328125 6.015625q0 3.5 -2.03125 6.046875q-2.484375 3.125 -6.765625 3.125q-3.515625 0 -5.75 -1.96875q-2.21875 -1.96875 -2.53125 -5.21875z" fill-rule="nonzero"/><path fill="#000000" d="m581.27576 98.36256l0 -37.546875l4.359375 0l0 37.546875l-4.359375 0z" fill-rule="nonzero"/><path fill="#000000" d="m601.84607 67.55006l0 -3.046875l16.6875 0l0 2.46875q-2.46875 2.609375 -4.890625 6.953125q-2.40625 4.34375 -3.71875 8.9375q-0.953125 3.234375 -1.21875 7.078125l-3.25 0q0.046875 -3.046875 1.1875 -7.34375q1.140625 -4.3125 3.28125 -8.3125q2.140625 -4.0 4.546875 -6.734375l-12.625 0z" fill-rule="nonzero"/><path fill="#000000" d="m705.36743 65.16273l129.37012 0l0 -11.314957l22.629883 22.629921l-22.629883 22.629921l0 -11.314964l-129.37012 0z" fill-rule="evenodd"/><path stroke="#000000" stroke-width="1.0" stroke-linejoin="round" stroke-linecap="butt" d="m705.36743 65.16273l129.37012 0l0 -11.314957l22.629883 22.629921l-22.629883 22.629921l0 -11.314964l-129.37012 0z" fill-rule="evenodd"/><path fill="#000000" fill-opacity="0.0" d="m18.577427 47.38845l141.32285 0l0 45.259842l-141.32285 0z" fill-rule="evenodd"/><path fill="#000000" d="m38.889927 71.25908l3.0 0.9375q-0.6875 2.5 -2.296875 3.71875q-1.59375 1.21875 -4.046875 1.21875q-3.046875 0 -5.0 -2.078125q-1.953125 -2.078125 -1.953125 -5.6875q0 -3.8125 1.96875 -5.921879q1.96875 -2.109375 5.171875 -2.109375q2.796875 0 4.546875 1.65625q1.046875 0.984375 1.5625 2.8125038l-3.046875 0.734375q-0.28125 -1.1875 -1.140625 -1.875q-0.84375 -0.6875038 -2.078125 -0.6875038q-1.703125 0 -2.765625 1.2187538q-1.046875 1.21875 -1.046875 3.9375q0 2.90625 1.03125 4.140625q1.046875 1.21875 2.71875 1.21875q1.234375 0 2.109375 -0.78125q0.890625 -0.78125 1.265625 -2.453125zm8.543121 -9.656254l0 5.609379q1.40625 -1.65625 3.375 -1.65625q1.015625 0 1.828125 0.375q0.8125 0.375 1.21875 0.96875q0.40625 0.578125 0.5625 1.28125q0.15625 0.703125 0.15625 2.203125l0 6.484375l-2.921875 0l0 -5.84375q0 -1.734375 -0.171875 -2.203125q-0.171875 -0.46875 -0.59375 -0.75q-0.421875 -0.28125 -1.046875 -0.28125q-0.734375 0 -1.3125 0.359375q-0.5625 0.359375 -0.828125 1.078125q-0.265625 0.703125 -0.265625 2.09375l0 5.546875l-2.9375 0l0 -15.265629l2.9375 0zm10.106201 2.7031288l0 -2.7031288l2.921875 0l0 2.7031288l-2.921875 0zm0 12.5625l0 -11.0625l2.921875 0l0 11.0625l-2.921875 0zm5.925644 0l0 -15.265629l2.9218788 0l0 15.265629l-2.9218788 0zm16.066273 0l-2.71875 0l0 -1.625q-0.671875 0.953125 -1.59375 1.421875q-0.921875 0.453125 -1.859375 0.453125q-1.90625 0 -3.265625 -1.53125q-1.359375 -1.546875 -1.359375 -4.296875q0 -2.8125 1.3125 -4.265625q1.328125 -1.46875 3.359375 -1.46875q1.84375 0 3.203125 1.546875l0 -5.500004l2.921875 0l0 15.265629zm-7.8125 -5.765625q0 1.765625 0.5 2.5625q0.703125 1.140625 1.96875 1.140625q1.015625 0 1.71875 -0.859375q0.71875 -0.859375 0.71875 -2.5625q0 -1.90625 -0.6875 -2.75q-0.6875 -0.84375 -1.765625 -0.84375q-1.046875 0 -1.75 0.828125q-0.703125 0.828125 -0.703125 2.484375zm23.113739 -2.375l0 -2.921875l2.921875 0l0 2.921875l-2.921875 0zm0 8.140625l0 -2.921875l2.921875 0l0 2.921875l-2.921875 0z" fill-rule="nonzero"/><path fill="#cfe2f3" d="m877.9816 46.509186l445.76373 0l0 59.74803l-445.76373 0z" fill-rule="evenodd"/><path stroke="#000000" stroke-width="1.0" stroke-linejoin="round" stroke-linecap="butt" d="m877.9816 46.509186l445.76373 0l0 59.74803l-445.76373 0z" fill-rule="evenodd"/><path fill="#000000" fill-opacity="0.0" d="m894.17847 42.49344l417.2599 0l0 67.874016l-417.2599 0z" fill-rule="evenodd"/><path fill="#000000" d="m911.16486 83.09656l3.15625 -0.421875q0.546875 2.6875 1.859375 3.875q1.3125 1.1875 3.1875 1.1875q2.234375 0 3.765625 -1.546875q1.546875 -1.546875 1.546875 -3.84375q0 -2.171875 -1.421875 -3.578125q-1.421875 -1.421875 -3.625 -1.421875q-0.890625 0 -2.234375 0.34375l0.359375 -2.78125q0.3125 0.046875 0.5 0.046875q2.03125 0 3.640625 -1.046875q1.625 -1.0625 1.625 -3.265625q0 -1.734375 -1.1875 -2.875q-1.171875 -1.15625 -3.03125 -1.15625q-1.84375 0 -3.078125 1.171875q-1.234375 1.15625 -1.578125 3.46875l-3.171875 -0.5625q0.578125 -3.171875 2.625 -4.921875q2.0625 -1.75 5.125 -1.75q2.109375 0 3.875 0.90625q1.78125 0.90625 2.71875 2.46875q0.953125 1.5625 0.953125 3.328125q0 1.65625 -0.90625 3.03125q-0.890625 1.375 -2.640625 2.1875q2.28125 0.515625 3.546875 2.1875q1.265625 1.65625 1.265625 4.15625q0 3.375 -2.46875 5.71875q-2.453125 2.34375 -6.21875 2.34375q-3.390625 0 -5.640625 -2.015625q-2.234375 -2.03125 -2.546875 -5.234375z" fill-rule="nonzero"/><path fill="#000000" d="m943.11017 98.31531l0 -37.54687l4.359375 0l0 37.54687l-4.359375 0z" fill-rule="nonzero"/><path fill="#000000" d="m979.8836 70.44031l-3.140625 0.234375q-0.421875 -1.859375 -1.1875 -2.703125q-1.296875 -1.359375 -3.171875 -1.359375q-1.515625 0 -2.65625 0.84375q-1.484375 1.09375 -2.359375 3.1875q-0.859375 2.09375 -0.890625 5.953125q1.140625 -1.734375 2.796875 -2.578125q1.65625 -0.84375 3.46875 -0.84375q3.15625 0 5.375 2.328125q2.234375 2.328125 2.234375 6.015625q0 2.4375 -1.046875 4.515625q-1.046875 2.078125 -2.875 3.1875q-1.828125 1.109375 -4.15625 1.109375q-3.953125 0 -6.453125 -2.90625q-2.484375 -2.90625 -2.484375 -9.59375q0 -7.46875 2.75 -10.859375q2.40625 -2.953125 6.484375 -2.953125q3.046875 0 4.984375 1.703125q1.953125 1.703125 2.328125 4.71875zm-12.90625 11.109375q0 1.625 0.6875 3.125q0.6875 1.484375 1.9375 2.28125q1.25 0.78125 2.625 0.78125q2.0 0 3.4375 -1.609375q1.453125 -1.625 1.453125 -4.40625q0 -2.671875 -1.4375 -4.203125q-1.421875 -1.546875 -3.578125 -1.546875q-2.140625 0 -3.640625 1.546875q-1.484375 1.53125 -1.484375 4.03125z" fill-rule="nonzero"/><path fill="#000000" d="m995.4383 98.31531l0 -37.54687l4.359375 0l0 37.54687l-4.359375 0z" fill-rule="nonzero"/><path fill="#000000" d="m1032.4304 86.84656l0 3.046875l-17.031189 0q-0.03125 -1.140625 0.359375 -2.203125q0.65625 -1.734375 2.078125 -3.421875q1.4375 -1.6875 4.15625 -3.90625q4.203064 -3.4375 5.671814 -5.453125q1.484375 -2.015625 1.484375 -3.8125q0 -1.875 -1.359375 -3.15625q-1.34375 -1.296875 -3.5 -1.296875q-2.281189 0 -3.656189 1.375q-1.375 1.359375 -1.390625 3.78125l-3.25 -0.328125q0.328125 -3.640625 2.5 -5.546875q2.1875 -1.90625 5.874939 -1.90625q3.703125 0 5.859375 2.0625q2.171875 2.046875 2.171875 5.09375q0 1.546875 -0.640625 3.046875q-0.625 1.484375 -2.09375 3.140625q-1.46875 1.65625 -4.875 4.53125q-2.859314 2.390625 -3.671814 3.25q-0.796875 0.84375 -1.328125 1.703125l12.640564 0z" fill-rule="nonzero"/><path fill="#000000" d="m1047.7664 98.31531l0 -37.54687l4.359375 0l0 37.54687l-4.359375 0z" fill-rule="nonzero"/><path fill="#000000" d="m1080.0398 89.89343l-3.15625 0l0 -20.15625q-1.140625 1.078125 -3.0 2.171875q-1.859375 1.09375 -3.328125 1.640625l0 -3.0625q2.65625 -1.25 4.640625 -3.015625q1.984375 -1.78125 2.8125 -3.453125l2.03125 0l0 25.875z" fill-rule="nonzero"/><path fill="#000000" d="m1100.0945 98.31531l0 -37.54687l4.359375 0l0 37.54687l-4.359375 0z" fill-rule="nonzero"/><path fill="#000000" d="m1130.6023 89.89343l0 -6.171875l-11.1875 0l0 -2.90625l11.765625 -16.6875l2.578125 0l0 16.6875l3.484375 0l0 2.90625l-3.484375 0l0 6.171875l-3.15625 0zm0 -9.078125l0 -11.609375l-8.078125 11.609375l8.078125 0z" fill-rule="nonzero"/><path fill="#000000" d="m1152.4227 98.31531l0 -37.54687l4.359375 0l0 37.54687l-4.359375 0z" fill-rule="nonzero"/><path fill="#000000" d="m1177.6493 75.92468q-1.96875 -0.734375 -2.921875 -2.0625q-0.9375 -1.34375 -0.9375 -3.203125q0 -2.8125 2.015625 -4.71875q2.03125 -1.921875 5.375 -1.921875q3.375 0 5.4375 1.96875q2.0625 1.953125 2.0625 4.765625q0 1.796875 -0.953125 3.125q-0.9375 1.3125 -2.84375 2.046875q2.375 0.765625 3.609375 2.5q1.234375 1.71875 1.234375 4.109375q0 3.296875 -2.34375 5.546875q-2.328125 2.25 -6.140625 2.25q-3.8125 0 -6.15625 -2.25q-2.34375 -2.265625 -2.34375 -5.640625q0 -2.515625 1.28125 -4.203125q1.28125 -1.703125 3.625 -2.3125zm-0.625 -5.375q0 1.828125 1.171875 3.0q1.1875 1.15625 3.0625 1.15625q1.828125 0 3.0 -1.140625q1.171875 -1.15625 1.171875 -2.828125q0 -1.75 -1.21875 -2.9375q-1.203125 -1.1875 -2.984375 -1.1875q-1.8125 0 -3.015625 1.171875q-1.1875 1.15625 -1.1875 2.765625zm-1.015625 11.90625q0 1.359375 0.640625 2.625q0.640625 1.265625 1.90625 1.96875q1.265625 0.6875 2.71875 0.6875q2.265625 0 3.734375 -1.453125q1.484375 -1.46875 1.484375 -3.71875q0 -2.28125 -1.515625 -3.78125q-1.515625 -1.5 -3.8125 -1.5q-2.234375 0 -3.703125 1.484375q-1.453125 1.46875 -1.453125 3.6875z" fill-rule="nonzero"/><path fill="#000000" d="m1204.7509 98.31531l0 -37.54687l4.359375 0l0 37.54687l-4.359375 0z" fill-rule="nonzero"/><path fill="#000000" d="m1225.118 83.14343l3.3125 -0.28125q0.375 2.421875 1.71875 3.65625q1.34375 1.21875 3.25 1.21875q2.28125 0 3.859375 -1.71875q1.578125 -1.734375 1.578125 -4.578125q0 -2.703125 -1.515625 -4.265625q-1.515625 -1.578125 -3.984375 -1.578125q-1.53125 0 -2.765625 0.703125q-1.21875 0.6875 -1.921875 1.796875l-2.96875 -0.390625l2.484375 -13.234375l12.828125 0l0 3.03125l-10.296875 0l-1.375 6.921875q2.3125 -1.625 4.859375 -1.625q3.375 0 5.6875 2.34375q2.328125 2.34375 2.328125 6.015625q0 3.5 -2.03125 6.046875q-2.484375 3.125 -6.765625 3.125q-3.515625 0 -5.75 -1.96875q-2.21875 -1.96875 -2.53125 -5.21875z" fill-rule="nonzero"/><path fill="#000000" d="m1257.079 98.31531l0 -37.54687l4.359375 0l0 37.54687l-4.359375 0z" fill-rule="nonzero"/><path fill="#000000" d="m1277.6493 67.50281l0 -3.046875l16.6875 0l0 2.46875q-2.46875 2.609375 -4.890625 6.953125q-2.40625 4.34375 -3.71875 8.9375q-0.953125 3.234375 -1.21875 7.078125l-3.25 0q0.046875 -3.046875 1.1875 -7.34375q1.140625 -4.3125 3.28125 -8.3125q2.140625 -4.0 4.546875 -6.734375l-12.625 0z" fill-rule="nonzero"/><path fill="#000000" fill-opacity="0.0" d="m321.4777 34.58005l211.05515 0l0 92.72441l-211.05515 0z" fill-rule="evenodd"/><path stroke="#ff0000" stroke-width="3.0" stroke-linejoin="round" stroke-linecap="butt" d="m321.4777 34.58005l211.05515 0l0 92.72441l-211.05515 0z" fill-rule="evenodd"/><path fill="#000000" fill-opacity="0.0" d="m997.2808 34.58005l211.05511 0l0 92.72441l-211.05511 0z" fill-rule="evenodd"/><path stroke="#ff0000" stroke-width="3.0" stroke-linejoin="round" stroke-linecap="butt" d="m997.2808 34.58005l211.05511 0l0 92.72441l-211.05511 0z" fill-rule="evenodd"/></g></svg>