<svg version="1.1" viewBox="0.0 0.0 1355.1102362204724 185.53543307086613" fill="none" stroke="none" stroke-linecap="square" stroke-miterlimit="10" xmlns:xlink="http://www.w3.org/1999/xlink" xmlns="http://www.w3.org/2000/svg"><clipPath id="p.0"><path d="m0 0l1355.1102 0l0 185.53543l-1355.1102 0l0 -185.53543z" clip-rule="nonzero"/></clipPath><g clip-path="url(#p.0)"><path fill="#000000" fill-opacity="0.0" d="m0 0l1355.1102 0l0 185.53543l-1355.1102 0z" fill-rule="evenodd"/><path fill="#cfe2f3" d="m202.17848 46.55643l445.7638 0l0 59.748028l-445.7638 0z" fill-rule="evenodd"/><path stroke="#000000" stroke-width="1.0" stroke-linejoin="round" stroke-linecap="butt" d="m202.17848 46.55643l445.7638 0l0 59.748028l-445.7638 0z" fill-rule="evenodd"/><path fill="#000000" fill-opacity="0.0" d="m218.37534 42.540684l417.25986 0l0 67.87401l-417.25986 0z" fill-rule="evenodd"/><path fill="#000000" d="m235.34608 77.23756q0 -4.578125 0.9375 -7.359375q0.9375 -2.796875 2.78125 -4.296875q1.859375 -1.515625 4.671875 -1.515625q2.078125 0 3.640625 0.84375q1.5625 0.828125 2.578125 2.40625q1.03125 1.5625 1.609375 3.828125q0.578125 2.25 0.578125 6.09375q0 4.53125 -0.9375 7.3125q-0.921875 2.78125 -2.78125 4.3125q-1.84375 1.515625 -4.6875 1.515625q-3.71875 0 -5.84375 -2.671875q-2.546875 -3.21875 -2.546875 -10.46875zm3.25 0q0 6.34375 1.484375 8.453125q1.484375 2.09375 3.65625 2.09375q2.1875 0 3.671875 -2.109375q1.484375 -2.109375 1.484375 -8.4375q0 -6.375 -1.484375 -8.453125q-1.484375 -2.09375 -3.703125 -2.09375q-2.171875 0 -3.484375 1.84375q-1.625 2.34375 -1.625 8.703125z" fill-rule="nonzero"/><path fill="#000000" d="m267.307 98.36256l0 -37.546875l4.359375 0l0 37.546875l-4.359375 0z" fill-rule="nonzero"/><path fill="#000000" d="m299.58044 89.94068l-3.15625 0l0 -20.15625q-1.140625 1.078125 -3.0 2.171875q-1.859375 1.09375 -3.328125 1.640625l0 -3.0625q2.65625 -1.25 4.640625 -3.015625q1.984375 -1.78125 2.8125 -3.453125l2.03125 0l0 25.875z" fill-rule="nonzero"/><path fill="#000000" d="m319.63513 98.36256l0 -37.546875l4.359375 0l0 37.546875l-4.359375 0z" fill-rule="nonzero"/><path fill="#000000" d="m351.90857 89.94068l-3.15625 0l0 -20.15625q-1.140625 1.078125 -3.0 2.171875q-1.859375 1.09375 -3.328125 1.640625l0 -3.0625q2.65625 -1.25 4.640625 -3.015625q1.984375 -1.78125 2.8125 -3.453125l2.03125 0l0 25.875z" fill-rule="nonzero"/><path fill="#000000" d="m371.96326 98.36256l0 -37.546875l4.359375 0l0 37.546875l-4.359375 0z" fill-rule="nonzero"/><path fill="#000000" d="m392.33044 77.23756q0 -4.578125 0.9375 -7.359375q0.9375 -2.796875 2.78125 -4.296875q1.859375 -1.515625 4.671875 -1.515625q2.078125 0 3.640625 0.84375q1.5625 0.828125 2.578125 2.40625q1.03125 1.5625 1.609375 3.828125q0.578125 2.25 0.578125 6.09375q0 4.53125 -0.9375 7.3125q-0.921875 2.78125 -2.78125 4.3125q-1.84375 1.515625 -4.6875 1.515625q-3.71875 0 -5.84375 -2.671875q-2.546875 -3.21875 -2.546875 -10.46875zm3.25 0q0 6.34375 1.484375 8.453125q1.484375 2.09375 3.65625 2.09375q2.1875 0 3.671875 -2.109375q1.484375 -2.109375 1.484375 -8.4375q0 -6.375 -1.484375 -8.453125q-1.484375 -2.09375 -3.703125 -2.09375q-2.171875 0 -3.484375 1.84375q-1.625 2.34375 -1.625 8.703125z" fill-rule="nonzero"/><path fill="#000000" d="m424.29138 98.36256l0 -37.546875l4.359375 0l0 37.546875l-4.359375 0z" fill-rule="nonzero"/><path fill="#000000" d="m456.56482 89.94068l-3.15625 0l0 -20.15625q-1.140625 1.078125 -3.0 2.171875q-1.859375 1.09375 -3.328125 1.640625l0 -3.0625q2.65625 -1.25 4.640625 -3.015625q1.984375 -1.78125 2.8125 -3.453125l2.03125 0l0 25.875z" fill-rule="nonzero"/><path fill="#000000" d="m476.61954 98.36256l0 -37.546875l4.359375 0l0 37.546875l-4.359375 0z" fill-rule="nonzero"/><path fill="#000000" d="m496.98672 77.23756q0 -4.578125 0.9375 -7.359375q0.9375 -2.796875 2.78125 -4.296875q1.859375 -1.515625 4.671875 -1.515625q2.078125 0 3.640625 0.84375q1.5625 0.828125 2.578125 2.40625q1.0312195 1.5625 1.6093445 3.828125q0.578125 2.25 0.578125 6.09375q0 4.53125 -0.9375 7.3125q-0.9218445 2.78125 -2.7812195 4.3125q-1.84375 1.515625 -4.6875 1.515625q-3.71875 0 -5.84375 -2.671875q-2.546875 -3.21875 -2.546875 -10.46875zm3.25 0q0 6.34375 1.484375 8.453125q1.484375 2.09375 3.65625 2.09375q2.1875 0 3.671875 -2.109375q1.484375 -2.109375 1.484375 -8.4375q0 -6.375 -1.484375 -8.453125q-1.484375 -2.09375 -3.703125 -2.09375q-2.171875 0 -3.484375 1.84375q-1.625 2.34375 -1.625 8.703125z" fill-rule="nonzero"/><path fill="#000000" d="m528.94763 98.36256l0 -37.546875l4.359375 0l0 37.546875l-4.359375 0z" fill-rule="nonzero"/><path fill="#000000" d="m549.3148 77.23756q0 -4.578125 0.9375 -7.359375q0.9375 -2.796875 2.78125 -4.296875q1.859375 -1.515625 4.671875 -1.515625q2.078125 0 3.640625 0.84375q1.5625 0.828125 2.578125 2.40625q1.03125 1.5625 1.609375 3.828125q0.578125 2.25 0.578125 6.09375q0 4.53125 -0.9375 7.3125q-0.921875 2.78125 -2.78125 4.3125q-1.84375 1.515625 -4.6875 1.515625q-3.71875 0 -5.84375 -2.671875q-2.546875 -3.21875 -2.546875 -10.46875zm3.25 0q0 6.34375 1.484375 8.453125q1.484375 2.09375 3.65625 2.09375q2.1875 0 3.671875 -2.109375q1.484375 -2.109375 1.484375 -8.4375q0 -6.375 -1.484375 -8.453125q-1.484375 -2.09375 -3.703125 -2.09375q-2.171875 0 -3.484375 1.84375q-1.625 2.34375 -1.625 8.703125z" fill-rule="nonzero"/><path fill="#000000" d="m581.27576 98.36256l0 -37.546875l4.359375 0l0 37.546875l-4.359375 0z" fill-rule="nonzero"/><path fill="#000000" d="m613.5492 89.94068l-3.15625 0l0 -20.15625q-1.140625 1.078125 -3.0 2.171875q-1.859375 1.09375 -3.328125 1.640625l0 -3.0625q2.65625 -1.25 4.640625 -3.015625q1.984375 -1.78125 2.8125 -3.453125l2.03125 0l0 25.875z" fill-rule="nonzero"/><path fill="#000000" d="m705.36743 65.16273l129.37012 0l0 -11.314957l22.629883 22.629921l-22.629883 22.629921l0 -11.314964l-129.37012 0z" fill-rule="evenodd"/><path stroke="#000000" stroke-width="1.0" stroke-linejoin="round" stroke-linecap="butt" d="m705.36743 65.16273l129.37012 0l0 -11.314957l22.629883 22.629921l-22.629883 22.629921l0 -11.314964l-129.37012 0z" fill-rule="evenodd"/><path fill="#000000" fill-opacity="0.0" d="m18.577427 47.38845l141.32285 0l0 45.259842l-141.32285 0z" fill-rule="evenodd"/><path fill="#000000" d="m38.889927 71.25908l3.0 0.9375q-0.6875 2.5 -2.296875 3.71875q-1.59375 1.21875 -4.046875 1.21875q-3.046875 0 -5.0 -2.078125q-1.953125 -2.078125 -1.953125 -5.6875q0 -3.8125 1.96875 -5.921879q1.96875 -2.109375 5.171875 -2.109375q2.796875 0 4.546875 1.65625q1.046875 0.984375 1.5625 2.8125038l-3.046875 0.734375q-0.28125 -1.1875 -1.140625 -1.875q-0.84375 -0.6875038 -2.078125 -0.6875038q-1.703125 0 -2.765625 1.2187538q-1.046875 1.21875 -1.046875 3.9375q0 2.90625 1.03125 4.140625q1.046875 1.21875 2.71875 1.21875q1.234375 0 2.109375 -0.78125q0.890625 -0.78125 1.265625 -2.453125zm8.543121 -9.656254l0 5.609379q1.40625 -1.65625 3.375 -1.65625q1.015625 0 1.828125 0.375q0.8125 0.375 1.21875 0.96875q0.40625 0.578125 0.5625 1.28125q0.15625 0.703125 0.15625 2.203125l0 6.484375l-2.921875 0l0 -5.84375q0 -1.734375 -0.171875 -2.203125q-0.171875 -0.46875 -0.59375 -0.75q-0.421875 -0.28125 -1.046875 -0.28125q-0.734375 0 -1.3125 0.359375q-0.5625 0.359375 -0.828125 1.078125q-0.265625 0.703125 -0.265625 2.09375l0 5.546875l-2.9375 0l0 -15.265629l2.9375 0zm10.106201 2.7031288l0 -2.7031288l2.921875 0l0 2.7031288l-2.921875 0zm0 12.5625l0 -11.0625l2.921875 0l0 11.0625l-2.921875 0zm5.925644 0l0 -15.265629l2.9218788 0l0 15.265629l-2.9218788 0zm16.066273 0l-2.71875 0l0 -1.625q-0.671875 0.953125 -1.59375 1.421875q-0.921875 0.453125 -1.859375 0.453125q-1.90625 0 -3.265625 -1.53125q-1.359375 -1.546875 -1.359375 -4.296875q0 -2.8125 1.3125 -4.265625q1.328125 -1.46875 3.359375 -1.46875q1.84375 0 3.203125 1.546875l0 -5.500004l2.921875 0l0 15.265629zm-7.8125 -5.765625q0 1.765625 0.5 2.5625q0.703125 1.140625 1.96875 1.140625q1.015625 0 1.71875 -0.859375q0.71875 -0.859375 0.71875 -2.5625q0 -1.90625 -0.6875 -2.75q-0.6875 -0.84375 -1.765625 -0.84375q-1.046875 0 -1.75 0.828125q-0.703125 0.828125 -0.703125 2.484375zm23.113739 -2.375l0 -2.921875l2.921875 0l0 2.921875l-2.921875 0zm0 8.140625l0 -2.921875l2.921875 0l0 2.921875l-2.921875 0z" fill-rule="nonzero"/><path fill="#cfe2f3" d="m885.23096 46.55643l445.7638 0l0 59.748028l-445.7638 0z" fill-rule="evenodd"/><path stroke="#000000" stroke-width="1.0" stroke-linejoin="round" stroke-linecap="butt" d="m885.23096 46.55643l445.7638 0l0 59.748028l-445.7638 0z" fill-rule="evenodd"/><path fill="#000000" fill-opacity="0.0" d="m901.4278 42.540684l417.25983 0l0 67.87401l-417.25983 0z" fill-rule="evenodd"/><path fill="#000000" d="m918.39856 77.23756q0 -4.578125 0.9375 -7.359375q0.9375 -2.796875 2.78125 -4.296875q1.859375 -1.515625 4.671875 -1.515625q2.078125 0 3.640625 0.84375q1.5625 0.828125 2.578125 2.40625q1.03125 1.5625 1.609375 3.828125q0.578125 2.25 0.578125 6.09375q0 4.53125 -0.9375 7.3125q-0.921875 2.78125 -2.78125 4.3125q-1.84375 1.515625 -4.6875 1.515625q-3.71875 0 -5.84375 -2.671875q-2.546875 -3.21875 -2.546875 -10.46875zm3.25 0q0 6.34375 1.484375 8.453125q1.484375 2.09375 3.65625 2.09375q2.1875 0 3.671875 -2.109375q1.484375 -2.109375 1.484375 -8.4375q0 -6.375 -1.484375 -8.453125q-1.484375 -2.09375 -3.703125 -2.09375q-2.171875 0 -3.484375 1.84375q-1.625 2.34375 -1.625 8.703125z" fill-rule="nonzero"/><path fill="#000000" d="m950.3595 98.36256l0 -37.546875l4.359375 0l0 37.546875l-4.359375 0z" fill-rule="nonzero"/><path fill="#000000" d="m982.63293 89.94068l-3.15625 0l0 -20.15625q-1.140625 1.078125 -3.0 2.171875q-1.859375 1.09375 -3.328125 1.640625l0 -3.0625q2.65625 -1.25 4.640625 -3.015625q1.984375 -1.78125 2.8125 -3.453125l2.03125 0l0 25.875z" fill-rule="nonzero"/><path fill="#000000" d="m1002.6876 98.36256l0 -37.546875l4.359375 0l0 37.546875l-4.359375 0z" fill-rule="nonzero"/><path fill="#000000" d="m1034.961 89.94068l-3.15625 0l0 -20.15625q-1.140625 1.078125 -3.0 2.171875q-1.859375 1.09375 -3.328125 1.640625l0 -3.0625q2.65625 -1.25 4.640625 -3.015625q1.984375 -1.78125 2.8125 -3.453125l2.03125 0l0 25.875z" fill-rule="nonzero"/><path fill="#000000" d="m1055.0157 98.36256l0 -37.546875l4.359375 0l0 37.546875l-4.359375 0z" fill-rule="nonzero"/><path fill="#000000" d="m1087.2892 89.94068l-3.15625 0l0 -20.15625q-1.140625 1.078125 -3.0 2.171875q-1.859375 1.09375 -3.328125 1.640625l0 -3.0625q2.65625 -1.25 4.640625 -3.015625q1.984375 -1.78125 2.8125 -3.453125l2.03125 0l0 25.875z" fill-rule="nonzero"/><path fill="#000000" d="m1107.3439 98.36256l0 -37.546875l4.359375 0l0 37.546875l-4.359375 0z" fill-rule="nonzero"/><path fill="#000000" d="m1139.6173 89.94068l-3.15625 0l0 -20.15625q-1.140625 1.078125 -3.0 2.171875q-1.859375 1.09375 -3.328125 1.640625l0 -3.0625q2.65625 -1.25 4.640625 -3.015625q1.984375 -1.78125 2.8125 -3.453125l2.03125 0l0 25.875z" fill-rule="nonzero"/><path fill="#000000" d="m1159.672 98.36256l0 -37.546875l4.359375 0l0 37.546875l-4.359375 0z" fill-rule="nonzero"/><path fill="#000000" d="m1180.0392 77.23756q0 -4.578125 0.9375 -7.359375q0.9375 -2.796875 2.78125 -4.296875q1.859375 -1.515625 4.671875 -1.515625q2.078125 0 3.640625 0.84375q1.5625 0.828125 2.578125 2.40625q1.03125 1.5625 1.609375 3.828125q0.578125 2.25 0.578125 6.09375q0 4.53125 -0.9375 7.3125q-0.921875 2.78125 -2.78125 4.3125q-1.84375 1.515625 -4.6875 1.515625q-3.71875 0 -5.84375 -2.671875q-2.546875 -3.21875 -2.546875 -10.46875zm3.25 0q0 6.34375 1.484375 8.453125q1.484375 2.09375 3.65625 2.09375q2.1875 0 3.671875 -2.109375q1.484375 -2.109375 1.484375 -8.4375q0 -6.375 -1.484375 -8.453125q-1.484375 -2.09375 -3.703125 -2.09375q-2.171875 0 -3.484375 1.84375q-1.625 2.34375 -1.625 8.703125z" fill-rule="nonzero"/><path fill="#000000" d="m1212.0001 98.36256l0 -37.546875l4.359375 0l0 37.546875l-4.359375 0z" fill-rule="nonzero"/><path fill="#000000" d="m1232.3673 77.23756q0 -4.578125 0.9375 -7.359375q0.9375 -2.796875 2.78125 -4.296875q1.859375 -1.515625 4.671875 -1.515625q2.078125 0 3.640625 0.84375q1.5625 0.828125 2.578125 2.40625q1.03125 1.5625 1.609375 3.828125q0.578125 2.25 0.578125 6.09375q0 4.53125 -0.9375 7.3125q-0.921875 2.78125 -2.78125 4.3125q-1.84375 1.515625 -4.6875 1.515625q-3.71875 0 -5.84375 -2.671875q-2.546875 -3.21875 -2.546875 -10.46875zm3.25 0q0 6.34375 1.484375 8.453125q1.484375 2.09375 3.65625 2.09375q2.1875 0 3.671875 -2.109375q1.484375 -2.109375 1.484375 -8.4375q0 -6.375 -1.484375 -8.453125q-1.484375 -2.09375 -3.703125 -2.09375q-2.171875 0 -3.484375 1.84375q-1.625 2.34375 -1.625 8.703125z" fill-rule="nonzero"/><path fill="#000000" d="m1264.3282 98.36256l0 -37.546875l4.359375 0l0 37.546875l-4.359375 0z" fill-rule="nonzero"/><path fill="#000000" d="m1284.6954 77.23756q0 -4.578125 0.9375 -7.359375q0.9375 -2.796875 2.78125 -4.296875q1.859375 -1.515625 4.671875 -1.515625q2.078125 0 3.640625 0.84375q1.5625 0.828125 2.578125 2.40625q1.03125 1.5625 1.609375 3.828125q0.578125 2.25 0.578125 6.09375q0 4.53125 -0.9375 7.3125q-0.921875 2.78125 -2.78125 4.3125q-1.84375 1.515625 -4.6875 1.515625q-3.71875 0 -5.84375 -2.671875q-2.546875 -3.21875 -2.546875 -10.46875zm3.25 0q0 6.34375 1.484375 8.453125q1.484375 2.09375 3.65625 2.09375q2.1875 0 3.671875 -2.109375q1.484375 -2.109375 1.484375 -8.4375q0 -6.375 -1.484375 -8.453125q-1.484375 -2.09375 -3.703125 -2.09375q-2.171875 0 -3.484375 1.84375q-1.625 2.34375 -1.625 8.703125z" fill-rule="nonzero"/><path fill="#000000" fill-opacity="0.0" d="m368.87402 76.47769l0 0c0 -18.742893 13.248138 -33.937008 29.590546 -33.937008l0 0c7.8479004 0 15.374359 3.5754929 20.923676 9.9399185c5.5493164 6.364422 8.66687 14.996433 8.66687 23.99709l0 0c0 18.74289 -13.248138 33.937004 -29.590546 33.937004l0 0c-16.342407 0 -29.590546 -15.194115 -29.590546 -33.937004z" fill-rule="evenodd"/><path stroke="#ff0000" stroke-width="2.0" stroke-linejoin="round" stroke-linecap="butt" d="m368.87402 76.47769l0 0c0 -18.742893 13.248138 -33.937008 29.590546 -33.937008l0 0c7.8479004 0 15.374359 3.5754929 20.923676 9.9399185c5.5493164 6.364422 8.66687 14.996433 8.66687 23.99709l0 0c0 18.74289 -13.248138 33.937004 -29.590546 33.937004l0 0c-16.342407 0 -29.590546 -15.194115 -29.590546 -33.937004z" fill-rule="evenodd"/><path fill="#000000" fill-opacity="0.0" d="m588.76117 76.43044l0 0c0 -18.74289 13.248108 -33.937004 29.590515 -33.937004l0 0c7.8479004 0 15.37439 3.5754967 20.923706 9.9399185c5.5493164 6.3644257 8.66687 14.996437 8.66687 23.997086l0 0c0 18.742897 -13.248169 33.93701 -29.590576 33.93701l0 0c-16.342407 0 -29.590515 -15.194115 -29.590515 -33.93701z" fill-rule="evenodd"/><path stroke="#ff0000" stroke-width="2.0" stroke-linejoin="round" stroke-linecap="butt" d="m588.76117 76.43044l0 0c0 -18.74289 13.248108 -33.937004 29.590515 -33.937004l0 0c7.8479004 0 15.37439 3.5754967 20.923706 9.9399185c5.5493164 6.3644257 8.66687 14.996437 8.66687 23.997086l0 0c0 18.742897 -13.248169 33.93701 -29.590576 33.93701l0 0c-16.342407 0 -29.590515 -15.194115 -29.590515 -33.93701z" fill-rule="evenodd"/><path fill="#000000" fill-opacity="0.0" d="m1056.5826 81.32546l0 0c0 -18.742893 13.248169 -33.93701 29.590576 -33.93701l0 0c7.8479004 0 15.37439 3.5754967 20.923706 9.9399185c5.5493164 6.3644257 8.66687 14.996437 8.66687 23.997093l0 0c0 18.74289 -13.248169 33.937004 -29.590576 33.937004l0 0c-16.342407 0 -29.590576 -15.194115 -29.590576 -33.937004z" fill-rule="evenodd"/><path stroke="#ff0000" stroke-width="2.0" stroke-linejoin="round" stroke-linecap="butt" d="m1056.5826 81.32546l0 0c0 -18.742893 13.248169 -33.93701 29.590576 -33.93701l0 0c7.8479004 0 15.37439 3.5754967 20.923706 9.9399185c5.5493164 6.3644257 8.66687 14.996437 8.66687 23.997093l0 0c0 18.74289 -13.248169 33.937004 -29.590576 33.937004l0 0c-16.342407 0 -29.590576 -15.194115 -29.590576 -33.937004z" fill-rule="evenodd"/><path fill="#000000" fill-opacity="0.0" d="m1266.9108 81.32546l0 0c0 -18.742893 13.248169 -33.93701 29.590576 -33.93701l0 0c7.8479004 0 15.37439 3.5754967 20.923706 9.9399185c5.5491943 6.3644257 8.66687 14.996437 8.66687 23.997093l0 0c0 18.74289 -13.248169 33.937004 -29.590576 33.937004l0 0c-16.342407 0 -29.590576 -15.194115 -29.590576 -33.937004z" fill-rule="evenodd"/><path stroke="#ff0000" stroke-width="2.0" stroke-linejoin="round" stroke-linecap="butt" d="m1266.9108 81.32546l0 0c0 -18.742893 13.248169 -33.93701 29.590576 -33.93701l0 0c7.8479004 0 15.37439 3.5754967 20.923706 9.9399185c5.5491943 6.3644257 8.66687 14.996437 8.66687 23.997093l0 0c0 18.74289 -13.248169 33.937004 -29.590576 33.937004l0 0c-16.342407 0 -29.590576 -15.194115 -29.590576 -33.937004z" fill-rule="evenodd"/></g></svg>