<svg version="1.1" viewBox="0.0 0.0 1412.6351706036746 622.8713910761155" fill="none" stroke="none" stroke-linecap="square" stroke-miterlimit="10" xmlns:xlink="http://www.w3.org/1999/xlink" xmlns="http://www.w3.org/2000/svg"><clipPath id="p.0"><path d="m0 0l1412.6351 0l0 622.8714l-1412.6351 0l0 -622.8714z" clip-rule="nonzero"/></clipPath><g clip-path="url(#p.0)"><path fill="#000000" fill-opacity="0.0" d="m0 0l1412.6351 0l0 622.8714l-1412.6351 0z" fill-rule="evenodd"/><path fill="#cfe2f3" d="m13.278215 174.27034l187.40158 0l0 42.645676l-187.40158 0z" fill-rule="evenodd"/><path stroke="#000000" stroke-width="1.0" stroke-linejoin="round" stroke-linecap="butt" d="m13.278215 174.27034l187.40158 0l0 42.645676l-187.40158 0z" fill-rule="evenodd"/><path fill="#cfe2f3" d="m200.6798 174.27034l187.40157 0l0 42.645676l-187.40157 0z" fill-rule="evenodd"/><path stroke="#000000" stroke-width="1.0" stroke-linejoin="round" stroke-linecap="butt" d="m200.6798 174.27034l187.40157 0l0 42.645676l-187.40157 0z" fill-rule="evenodd"/><path fill="#cfe2f3" d="m13.278215 216.91602l187.40158 0l0 42.64566l-187.40158 0z" fill-rule="evenodd"/><path stroke="#000000" stroke-width="1.0" stroke-linejoin="round" stroke-linecap="butt" d="m13.278215 216.91602l187.40158 0l0 42.64566l-187.40158 0z" fill-rule="evenodd"/><path fill="#cfe2f3" d="m200.6798 216.91602l187.40157 0l0 42.64566l-187.40157 0z" fill-rule="evenodd"/><path stroke="#000000" stroke-width="1.0" stroke-linejoin="round" stroke-linecap="butt" d="m200.6798 216.91602l187.40157 0l0 42.64566l-187.40157 0z" fill-rule="evenodd"/><path fill="#cfe2f3" d="m13.278215 259.56168l187.40158 0l0 42.64566l-187.40158 0z" fill-rule="evenodd"/><path stroke="#000000" stroke-width="1.0" stroke-linejoin="round" stroke-linecap="butt" d="m13.278215 259.56168l187.40158 0l0 42.64566l-187.40158 0z" fill-rule="evenodd"/><path fill="#cfe2f3" d="m200.6798 259.56168l187.40157 0l0 42.64566l-187.40157 0z" fill-rule="evenodd"/><path stroke="#000000" stroke-width="1.0" stroke-linejoin="round" stroke-linecap="butt" d="m200.6798 259.56168l187.40157 0l0 42.64566l-187.40157 0z" fill-rule="evenodd"/><path fill="#cfe2f3" d="m13.278215 302.20734l187.40158 0l0 42.64569l-187.40158 0z" fill-rule="evenodd"/><path stroke="#000000" stroke-width="1.0" stroke-linejoin="round" stroke-linecap="butt" d="m13.278215 302.20734l187.40158 0l0 42.64569l-187.40158 0z" fill-rule="evenodd"/><path fill="#cfe2f3" d="m200.6798 302.20734l187.40157 0l0 42.64569l-187.40157 0z" fill-rule="evenodd"/><path stroke="#000000" stroke-width="1.0" stroke-linejoin="round" stroke-linecap="butt" d="m200.6798 302.20734l187.40157 0l0 42.64569l-187.40157 0z" fill-rule="evenodd"/><path fill="#cfe2f3" d="m13.278215 344.85303l187.40158 0l0 42.64566l-187.40158 0z" fill-rule="evenodd"/><path stroke="#000000" stroke-width="1.0" stroke-linejoin="round" stroke-linecap="butt" d="m13.278215 344.85303l187.40158 0l0 42.64566l-187.40158 0z" fill-rule="evenodd"/><path fill="#cfe2f3" d="m200.6798 344.85303l187.40157 0l0 42.64566l-187.40157 0z" fill-rule="evenodd"/><path stroke="#000000" stroke-width="1.0" stroke-linejoin="round" stroke-linecap="butt" d="m200.6798 344.85303l187.40157 0l0 42.64566l-187.40157 0z" fill-rule="evenodd"/><path fill="#cfe2f3" d="m13.278215 387.4987l187.40158 0l0 42.64566l-187.40158 0z" fill-rule="evenodd"/><path stroke="#000000" stroke-width="1.0" stroke-linejoin="round" stroke-linecap="butt" d="m13.278215 387.4987l187.40158 0l0 42.64566l-187.40158 0z" fill-rule="evenodd"/><path fill="#cfe2f3" d="m200.6798 387.4987l187.40157 0l0 42.64566l-187.40157 0z" fill-rule="evenodd"/><path stroke="#000000" stroke-width="1.0" stroke-linejoin="round" stroke-linecap="butt" d="m200.6798 387.4987l187.40157 0l0 42.64566l-187.40157 0z" fill-rule="evenodd"/><path fill="#cfe2f3" d="m13.278215 430.14435l187.40158 0l0 42.64569l-187.40158 0z" fill-rule="evenodd"/><path stroke="#000000" stroke-width="1.0" stroke-linejoin="round" stroke-linecap="butt" d="m13.278215 430.14435l187.40158 0l0 42.64569l-187.40158 0z" fill-rule="evenodd"/><path fill="#cfe2f3" d="m200.6798 430.14435l187.40157 0l0 42.64569l-187.40157 0z" fill-rule="evenodd"/><path stroke="#000000" stroke-width="1.0" stroke-linejoin="round" stroke-linecap="butt" d="m200.6798 430.14435l187.40157 0l0 42.64569l-187.40157 0z" fill-rule="evenodd"/><path fill="#000000" fill-opacity="0.0" d="m28.10761 178.31496l164.94489 0l0 42.015747l-164.94489 0z" fill-rule="evenodd"/><path fill="#000000" d="m60.363625 200.3287l2.609375 0.828125q-0.59375 2.1875 -2.0 3.25q-1.390625 1.0625 -3.546875 1.0625q-2.65625 0 -4.375 -1.8125q-1.703125 -1.828125 -1.703125 -4.984375q0 -3.328125 1.71875 -5.171875q1.71875 -1.84375 4.515625 -1.84375q2.453125 0 3.984375 1.4375q0.921875 0.859375 1.375 2.46875l-2.671875 0.640625q-0.234375 -1.046875 -0.984375 -1.640625q-0.75 -0.609375 -1.828125 -0.609375q-1.484375 0 -2.421875 1.078125q-0.921875 1.0625 -0.921875 3.4375q0 2.53125 0.90625 3.609375q0.921875 1.078125 2.375 1.078125q1.078125 0 1.84375 -0.671875q0.78125 -0.6875 1.125 -2.15625zm7.457321 -8.453125l0 4.921875q1.234375 -1.453125 2.953125 -1.453125q0.890625 0 1.59375 0.328125q0.71875 0.328125 1.078125 0.84375q0.359375 0.5 0.484375 1.125q0.140625 0.609375 0.140625 1.921875l0 5.671875l-2.5625 0l0 -5.109375q0 -1.515625 -0.15625 -1.921875q-0.140625 -0.421875 -0.515625 -0.65625q-0.359375 -0.25 -0.90625 -0.25q-0.640625 0 -1.140625 0.3125q-0.5 0.3125 -0.734375 0.9375q-0.234375 0.625 -0.234375 1.84375l0 4.84375l-2.5625 0l0 -13.359375l2.5625 0zm11.302231 13.359375l-2.5625 0l0 -9.671875l2.375 0l0 1.375q0.609375 -0.984375 1.09375 -1.28125q0.484375 -0.3125 1.109375 -0.3125q0.875 0 1.6875 0.484375l-0.796875 2.234375q-0.640625 -0.421875 -1.203125 -0.421875q-0.53125 0 -0.90625 0.296875q-0.375 0.296875 -0.59375 1.078125q-0.203125 0.765625 -0.203125 3.234375l0 2.984375zm4.213394 -4.96875q0 -1.28125 0.625 -2.46875q0.625 -1.203125 1.78125 -1.828125q1.15625 -0.625 2.578125 -0.625q2.1875 0 3.59375 1.421875q1.40625 1.421875 1.40625 3.609375q0 2.1875 -1.421875 3.640625q-1.421875 1.4375 -3.5625 1.4375q-1.328125 0 -2.546875 -0.59375q-1.203125 -0.609375 -1.828125 -1.765625q-0.625 -1.171875 -0.625 -2.828125zm2.625 0.125q0 1.453125 0.671875 2.21875q0.6875 0.75 1.6875 0.75q1.0 0 1.671875 -0.75q0.6875 -0.765625 0.6875 -2.234375q0 -1.421875 -0.6875 -2.1875q-0.671875 -0.765625 -1.671875 -0.765625q-1.0 0 -1.6875 0.765625q-0.671875 0.765625 -0.671875 2.203125zm9.161606 -4.828125l2.359375 0l0 1.3125q1.265625 -1.53125 3.015625 -1.53125q0.9375 0 1.609375 0.390625q0.6875 0.375 1.125 1.140625q0.640625 -0.765625 1.375 -1.140625q0.75 -0.390625 1.578125 -0.390625q1.0625 0 1.796875 0.4375q0.75 0.421875 1.109375 1.265625q0.265625 0.625 0.265625 2.0l0 6.1875l-2.5625 0l0 -5.53125q0 -1.4375 -0.265625 -1.859375q-0.34375 -0.546875 -1.09375 -0.546875q-0.53125 0 -1.015625 0.328125q-0.46875 0.328125 -0.671875 0.96875q-0.203125 0.625 -0.203125 2.0l0 4.640625l-2.5625 0l0 -5.296875q0 -1.421875 -0.140625 -1.828125q-0.140625 -0.40625 -0.421875 -0.609375q-0.28125 -0.203125 -0.78125 -0.203125q-0.59375 0 -1.0625 0.328125q-0.46875 0.3125 -0.6875 0.921875q-0.203125 0.59375 -0.203125 1.984375l0 4.703125l-2.5625 0l0 -9.671875zm16.19777 4.703125q0 -1.28125 0.625 -2.46875q0.625 -1.203125 1.78125 -1.828125q1.15625 -0.625 2.578125 -0.625q2.1875 0 3.59375 1.421875q1.40625 1.421875 1.40625 3.609375q0 2.1875 -1.421875 3.640625q-1.421875 1.4375 -3.5625 1.4375q-1.328125 0 -2.546875 -0.59375q-1.203125 -0.609375 -1.828125 -1.765625q-0.625 -1.171875 -0.625 -2.828125zm2.625 0.125q0 1.453125 0.671875 2.21875q0.6875 0.75 1.6875 0.75q1.0 0 1.671875 -0.75q0.6875 -0.765625 0.6875 -2.234375q0 -1.421875 -0.6875 -2.1875q-0.671875 -0.765625 -1.671875 -0.765625q-1.0 0 -1.6875 0.765625q-0.671875 0.765625 -0.671875 2.203125zm8.458481 2.078125l2.5625 -0.390625q0.171875 0.75 0.671875 1.140625q0.5 0.390625 1.40625 0.390625q0.9843674 0 1.4843674 -0.375q0.34375 -0.25 0.34375 -0.671875q0 -0.296875 -0.1875 -0.484375q-0.1875 -0.1875 -0.8593674 -0.34375q-3.09375 -0.6875 -3.921875 -1.25q-1.140625 -0.78125 -1.140625 -2.171875q0 -1.265625 0.984375 -2.109375q1.0 -0.859375 3.078125 -0.859375q1.9843674 0 2.9531174 0.65625q0.96875 0.640625 1.328125 1.90625l-2.40625 0.4375q-0.15625 -0.5625 -0.59375 -0.859375q-0.42186737 -0.296875 -1.2343674 -0.296875q-1.0 0 -1.4375 0.28125q-0.296875 0.203125 -0.296875 0.515625q0 0.265625 0.25 0.46875q0.34375 0.25 2.390625 0.71875q2.0468674 0.453125 2.8593674 1.140625q0.796875 0.671875 0.796875 1.890625q0 1.34375 -1.109375 2.296875q-1.109375 0.953125 -3.2812424 0.953125q-1.984375 0 -3.140625 -0.796875q-1.140625 -0.8125 -1.5 -2.1875zm10.68821 -2.203125q0 -1.28125 0.625 -2.46875q0.625 -1.203125 1.78125 -1.828125q1.15625 -0.625 2.578125 -0.625q2.1875 0 3.59375 1.421875q1.40625 1.421875 1.40625 3.609375q0 2.1875 -1.421875 3.640625q-1.421875 1.4375 -3.5625 1.4375q-1.328125 0 -2.546875 -0.59375q-1.203125 -0.609375 -1.828125 -1.765625q-0.625 -1.171875 -0.625 -2.828125zm2.625 0.125q0 1.453125 0.671875 2.21875q0.6875 0.75 1.6875 0.75q1.0 0 1.671875 -0.75q0.6875 -0.765625 0.6875 -2.234375q0 -1.421875 -0.6875 -2.1875q-0.671875 -0.765625 -1.671875 -0.765625q-1.0 0 -1.6875 0.765625q-0.671875 0.765625 -0.671875 2.203125zm9.161606 -4.828125l2.359375 0l0 1.3125q1.265625 -1.53125 3.015625 -1.53125q0.9375 0 1.609375 0.390625q0.6875 0.375 1.125 1.140625q0.640625 -0.765625 1.375 -1.140625q0.75 -0.390625 1.578125 -0.390625q1.0625 0 1.796875 0.4375q0.75 0.421875 1.109375 1.265625q0.265625 0.625 0.265625 2.0l0 6.1875l-2.5625 0l0 -5.53125q0 -1.4375 -0.265625 -1.859375q-0.34375 -0.546875 -1.09375 -0.546875q-0.53125 0 -1.015625 0.328125q-0.46875 0.328125 -0.671875 0.96875q-0.203125 0.625 -0.203125 2.0l0 4.640625l-2.5625 0l0 -5.296875q0 -1.421875 -0.140625 -1.828125q-0.140625 -0.40625 -0.421875 -0.609375q-0.28125 -0.203125 -0.78125 -0.203125q-0.59375 0 -1.0625 0.328125q-0.46875 0.3125 -0.6875 0.921875q-0.203125 0.59375 -0.203125 1.984375l0 4.703125l-2.5625 0l0 -9.671875zm22.38527 6.59375l2.546875 0.421875q-0.484375 1.40625 -1.546875 2.140625q-1.0625 0.734375 -2.65625 0.734375q-2.515625 0 -3.734375 -1.65625q-0.953125 -1.3125 -0.953125 -3.328125q0 -2.40625 1.25 -3.765625q1.265625 -1.359375 3.1875 -1.359375q2.15625 0 3.40625 1.421875q1.25 1.421875 1.1875 4.375l-6.40625 0q0.03125 1.140625 0.609375 1.78125q0.59375 0.625 1.484375 0.625q0.59375 0 1.0 -0.328125q0.421875 -0.328125 0.625 -1.0625zm0.15625 -2.59375q-0.03125 -1.109375 -0.578125 -1.6875q-0.546875 -0.578125 -1.328125 -0.578125q-0.84375 0 -1.390625 0.609375q-0.546875 0.609375 -0.53125 1.65625l3.828125 0z" fill-rule="nonzero"/><path fill="#000000" fill-opacity="0.0" d="m211.90814 178.31496l164.94489 0l0 42.015747l-164.94489 0z" fill-rule="evenodd"/><path fill="#000000" d="m236.13422 205.23495l0 -13.359375l9.15625 0l0 2.265625l-6.453125 0l0 3.15625l5.5625 0l0 2.265625l-5.5625 0l0 5.671875l-2.703125 0zm11.364731 -10.984375l0 -2.375l2.5625 0l0 2.375l-2.5625 0zm0 10.984375l0 -9.671875l2.5625 0l0 9.671875l-2.5625 0zm9.620804 -9.671875l0 2.03125l-1.75 0l0 3.90625q0 1.1875 0.046875 1.390625q0.046875 0.1875 0.21875 0.3125q0.1875 0.125 0.4375 0.125q0.359375 0 1.03125 -0.25l0.21875 2.0q-0.890625 0.375 -2.015625 0.375q-0.703125 0 -1.265625 -0.234375q-0.546875 -0.234375 -0.8125 -0.59375q-0.25 -0.375 -0.34375 -1.0q-0.09375 -0.453125 -0.09375 -1.8125l0 -4.21875l-1.171875 0l0 -2.03125l1.171875 0l0 -1.921875l2.578125 -1.5l0 3.421875l1.75 0zm10.572052 9.671875l-2.5625 0l0 -4.9375q0 -1.5625 -0.171875 -2.015625q-0.15625 -0.46875 -0.53125 -0.71875q-0.359375 -0.265625 -0.875 -0.265625q-0.671875 0 -1.203125 0.375q-0.53125 0.359375 -0.734375 0.96875q-0.1875 0.59375 -0.1875 2.21875l0 4.375l-2.546875 0l0 -9.671875l2.375 0l0 1.421875q1.265625 -1.640625 3.1875 -1.640625q0.84375 0 1.546875 0.3125q0.703125 0.296875 1.0625 0.78125q0.359375 0.46875 0.5 1.078125q0.140625 0.59375 0.140625 1.703125l0 6.015625zm8.192841 -3.078125l2.546875 0.421875q-0.484375 1.40625 -1.546875 2.140625q-1.0625 0.734375 -2.65625 0.734375q-2.515625 0 -3.734375 -1.65625q-0.953125 -1.3125 -0.953125 -3.328125q0 -2.40625 1.25 -3.765625q1.265625 -1.359375 3.1875 -1.359375q2.15625 0 3.40625 1.421875q1.25 1.421875 1.1875 4.375l-6.40625 0q0.03125 1.140625 0.609375 1.78125q0.59375 0.625 1.484375 0.625q0.59375 0 1.0 -0.328125q0.421875 -0.328125 0.625 -1.0625zm0.15625 -2.59375q-0.03125 -1.109375 -0.578125 -1.6875q-0.546875 -0.578125 -1.328125 -0.578125q-0.84375 0 -1.390625 0.609375q-0.546875 0.609375 -0.53125 1.65625l3.828125 0zm3.7194824 2.90625l2.5625 -0.390625q0.171875 0.75 0.671875 1.140625q0.5 0.390625 1.40625 0.390625q0.984375 0 1.484375 -0.375q0.34375 -0.25 0.34375 -0.671875q0 -0.296875 -0.1875 -0.484375q-0.1875 -0.1875 -0.859375 -0.34375q-3.09375 -0.6875 -3.921875 -1.25q-1.140625 -0.78125 -1.140625 -2.171875q0 -1.265625 0.984375 -2.109375q1.0 -0.859375 3.078125 -0.859375q1.984375 0 2.953125 0.65625q0.96875 0.640625 1.328125 1.90625l-2.40625 0.4375q-0.15625 -0.5625 -0.59375 -0.859375q-0.421875 -0.296875 -1.234375 -0.296875q-1.0 0 -1.4375 0.28125q-0.296875 0.203125 -0.296875 0.515625q0 0.265625 0.25 0.46875q0.34375 0.25 2.390625 0.71875q2.046875 0.453125 2.859375 1.140625q0.796875 0.671875 0.796875 1.890625q0 1.34375 -1.109375 2.296875q-1.109375 0.953125 -3.28125 0.953125q-1.984375 0 -3.140625 -0.796875q-1.140625 -0.8125 -1.5 -2.1875zm10.375702 0l2.5625 -0.390625q0.171875 0.75 0.671875 1.140625q0.5 0.390625 1.40625 0.390625q0.984375 0 1.484375 -0.375q0.34375 -0.25 0.34375 -0.671875q0 -0.296875 -0.1875 -0.484375q-0.1875 -0.1875 -0.859375 -0.34375q-3.09375 -0.6875 -3.921875 -1.25q-1.140625 -0.78125 -1.140625 -2.171875q0 -1.265625 0.984375 -2.109375q1.0 -0.859375 3.078125 -0.859375q1.984375 0 2.953125 0.65625q0.96875 0.640625 1.328125 1.90625l-2.40625 0.4375q-0.15625 -0.5625 -0.59375 -0.859375q-0.421875 -0.296875 -1.234375 -0.296875q-1.0 0 -1.4375 0.28125q-0.296875 0.203125 -0.296875 0.515625q0 0.265625 0.25 0.46875q0.34375 0.25 2.390625 0.71875q2.046875 0.453125 2.859375 1.140625q0.796875 0.671875 0.796875 1.890625q0 1.34375 -1.109375 2.296875q-1.109375 0.953125 -3.28125 0.953125q-1.984375 0 -3.140625 -0.796875q-1.140625 -0.8125 -1.5 -2.1875zm19.887146 2.765625l-4.78125 -13.359375l2.9375 0l3.375 9.890625l3.265625 -9.890625l2.859375 0l-4.78125 13.359375l-2.875 0zm9.89801 -6.71875l-2.328125 -0.421875q0.40625 -1.40625 1.359375 -2.078125q0.953125 -0.671875 2.84375 -0.671875q1.703125 0 2.546875 0.40625q0.84375 0.40625 1.171875 1.03125q0.34375 0.625 0.34375 2.28125l-0.015625 3.0q0 1.265625 0.109375 1.875q0.125 0.609375 0.46875 1.296875l-2.53125 0q-0.109375 -0.25 -0.25 -0.75q-0.0625 -0.234375 -0.09375 -0.3125q-0.65625 0.640625 -1.40625 0.96875q-0.734375 0.3125 -1.59375 0.3125q-1.484375 0 -2.34375 -0.8125q-0.859375 -0.8125 -0.859375 -2.046875q0 -0.828125 0.390625 -1.46875q0.390625 -0.640625 1.09375 -0.96875q0.703125 -0.34375 2.03125 -0.609375q1.796875 -0.328125 2.484375 -0.625l0 -0.25q0 -0.75 -0.359375 -1.0625q-0.359375 -0.3125 -1.375 -0.3125q-0.6875 0 -1.078125 0.28125q-0.375 0.265625 -0.609375 0.9375zm3.421875 2.078125q-0.484375 0.15625 -1.5625 0.390625q-1.0625 0.21875 -1.390625 0.4375q-0.5 0.359375 -0.5 0.90625q0 0.53125 0.40625 0.9375q0.40625 0.390625 1.015625 0.390625q0.703125 0 1.328125 -0.46875q0.46875 -0.34375 0.609375 -0.84375q0.09375 -0.328125 0.09375 -1.25l0 -0.5zm5.047577 4.640625l0 -13.359375l2.5625 0l0 13.359375l-2.5625 0zm11.542694 0l0 -1.453125q-0.53125 0.78125 -1.390625 1.234375q-0.859375 0.4375 -1.8125 0.4375q-0.96875 0 -1.75 -0.421875q-0.765625 -0.4375 -1.125 -1.203125q-0.34375 -0.78125 -0.34375 -2.140625l0 -6.125l2.5625 0l0 4.4375q0 2.046875 0.140625 2.515625q0.140625 0.453125 0.515625 0.71875q0.375 0.265625 0.953125 0.265625q0.65625 0 1.171875 -0.359375q0.515625 -0.359375 0.703125 -0.890625q0.203125 -0.53125 0.203125 -2.609375l0 -4.078125l2.546875 0l0 9.671875l-2.375 0zm10.630341 -3.078125l2.546875 0.421875q-0.484375 1.40625 -1.546875 2.140625q-1.0625 0.734375 -2.65625 0.734375q-2.515625 0 -3.734375 -1.65625q-0.953125 -1.3125 -0.953125 -3.328125q0 -2.40625 1.25 -3.765625q1.265625 -1.359375 3.1875 -1.359375q2.15625 0 3.40625 1.421875q1.25 1.421875 1.1875 4.375l-6.40625 0q0.03125 1.140625 0.609375 1.78125q0.59375 0.625 1.484375 0.625q0.59375 0 1.0 -0.328125q0.421875 -0.328125 0.625 -1.0625zm0.15625 -2.59375q-0.03125 -1.109375 -0.578125 -1.6875q-0.546875 -0.578125 -1.328125 -0.578125q-0.84375 0 -1.390625 0.609375q-0.546875 0.609375 -0.53125 1.65625l3.828125 0z" fill-rule="nonzero"/><path fill="#000000" fill-opacity="0.0" d="m52.377953 217.54593l84.94488 0l0 42.015747l-84.94488 0z" fill-rule="evenodd"/><path fill="#000000" d="m101.52017 244.46593l-2.9375 0l-1.171875 -3.03125l-5.328125 0l-1.109375 3.03125l-2.859375 0l5.203125 -13.359375l2.84375 0l5.359375 13.359375zm-4.96875 -5.28125l-1.84375 -4.953125l-1.796875 4.953125l3.640625 0z" fill-rule="nonzero"/><path fill="#000000" fill-opacity="0.0" d="m52.377953 261.58267l84.94488 0l0 42.015747l-84.94488 0z" fill-rule="evenodd"/><path fill="#000000" d="m89.4733 275.1433l5.34375 0q1.59375 0 2.359375 0.140625q0.78125 0.125 1.390625 0.546875q0.625 0.421875 1.03125 1.125q0.40625 0.6875 0.40625 1.546875q0 0.9375 -0.5 1.734375q-0.5 0.78125 -1.375 1.171875q1.21875 0.359375 1.875 1.21875q0.65625 0.84375 0.65625 2.0q0 0.921875 -0.421875 1.78125q-0.421875 0.859375 -1.15625 1.375q-0.734375 0.515625 -1.796875 0.625q-0.6875 0.078125 -3.265625 0.09375l-4.546875 0l0 -13.359375zm2.703125 2.234375l0 3.078125l1.765625 0q1.578125 0 1.953125 -0.046875q0.703125 -0.078125 1.09375 -0.46875q0.40625 -0.40625 0.40625 -1.046875q0 -0.625 -0.34375 -1.0q-0.34375 -0.390625 -1.015625 -0.484375q-0.40625 -0.03125 -2.3125 -0.03125l-1.546875 0zm0 5.296875l0 3.578125l2.5 0q1.453125 0 1.84375 -0.078125q0.609375 -0.109375 0.984375 -0.53125q0.375 -0.421875 0.375 -1.140625q0 -0.59375 -0.296875 -1.015625q-0.28125 -0.421875 -0.84375 -0.609375q-0.546875 -0.203125 -2.390625 -0.203125l-2.171875 0z" fill-rule="nonzero"/><path fill="#000000" fill-opacity="0.0" d="m52.377953 300.34384l84.94488 0l0 42.015747l-84.94488 0z" fill-rule="evenodd"/><path fill="#000000" d="m98.02017 322.35757l2.609375 0.828125q-0.59375 2.1875 -2.0 3.25q-1.390625 1.0625 -3.546875 1.0625q-2.65625 0 -4.375 -1.8125q-1.703125 -1.828125 -1.703125 -4.984375q0 -3.328125 1.71875 -5.171875q1.71875 -1.84375 4.515625 -1.84375q2.453125 0 3.984375 1.4375q0.921875 0.859375 1.375 2.46875l-2.671875 0.640625q-0.234375 -1.046875 -0.984375 -1.640625q-0.75 -0.609375 -1.828125 -0.609375q-1.484375 0 -2.421875 1.078125q-0.921875 1.0625 -0.921875 3.4375q0 2.53125 0.90625 3.609375q0.921875 1.078125 2.375 1.078125q1.078125 0 1.84375 -0.671875q0.78125 -0.6875 1.125 -2.15625z" fill-rule="nonzero"/><path fill="#000000" fill-opacity="0.0" d="m52.377953 345.86353l84.94488 0l0 42.015747l-84.94488 0z" fill-rule="evenodd"/><path fill="#000000" d="m89.45767 359.42413l4.9375 0q1.65625 0 2.53125 0.265625q1.1875 0.34375 2.015625 1.234375q0.84375 0.875 1.28125 2.15625q0.4375 1.28125 0.4375 3.15625q0 1.640625 -0.40625 2.84375q-0.5 1.453125 -1.4375 2.359375q-0.703125 0.671875 -1.890625 1.0625q-0.890625 0.28125 -2.390625 0.28125l-5.078125 0l0 -13.359375zm2.703125 2.265625l0 8.84375l2.015625 0q1.125 0 1.625 -0.125q0.65625 -0.171875 1.078125 -0.5625q0.4375 -0.390625 0.703125 -1.28125q0.28125 -0.90625 0.28125 -2.453125q0 -1.546875 -0.28125 -2.375q-0.265625 -0.828125 -0.765625 -1.28125q-0.484375 -0.46875 -1.234375 -0.640625q-0.5625 -0.125 -2.21875 -0.125l-1.203125 0z" fill-rule="nonzero"/><path fill="#000000" fill-opacity="0.0" d="m52.377953 388.88977l84.94488 0l0 42.015747l-84.94488 0z" fill-rule="evenodd"/><path fill="#000000" d="m89.98798 415.80975l0 -13.359375l9.90625 0l0 2.265625l-7.21875 0l0 2.953125l6.71875 0l0 2.25l-6.71875 0l0 3.640625l7.46875 0l0 2.25l-10.15625 0z" fill-rule="nonzero"/><path fill="#000000" fill-opacity="0.0" d="m52.377953 430.14435l84.94488 0l0 42.015747l-84.94488 0z" fill-rule="evenodd"/><path fill="#000000" d="m90.527405 457.06436l0 -13.359375l9.15625 0l0 2.265625l-6.453125 0l0 3.15625l5.5625 0l0 2.265625l-5.5625 0l0 5.671875l-2.703125 0z" fill-rule="nonzero"/><path fill="#000000" fill-opacity="0.0" d="m242.49081 220.11285l101.13385 0l0 42.015747l-101.13385 0z" fill-rule="evenodd"/><path fill="#000000" d="m282.24628 247.03285l-2.5625 0l0 -9.640625q-1.40625 1.3125 -3.3125 1.9375l0 -2.328125q1.015625 -0.328125 2.1875 -1.234375q1.171875 -0.921875 1.609375 -2.140625l2.078125 0l0 13.40625zm8.156952 -13.40625q1.9375 0 3.03125 1.375q1.296875 1.640625 1.296875 5.4375q0 3.796875 -1.3125 5.453125q-1.078125 1.375 -3.015625 1.375q-1.953125 0 -3.15625 -1.5q-1.1875 -1.5 -1.1875 -5.34375q0 -3.78125 1.3125 -5.4375q1.078125 -1.359375 3.03125 -1.359375zm0 2.125q-0.46875 0 -0.84375 0.296875q-0.359375 0.296875 -0.5625 1.0625q-0.25 0.984375 -0.25 3.328125q0 2.359375 0.234375 3.234375q0.234375 0.875 0.59375 1.171875q0.359375 0.296875 0.828125 0.296875q0.453125 0 0.8125 -0.296875q0.375 -0.296875 0.578125 -1.0625q0.265625 -0.984375 0.265625 -3.34375q0 -2.34375 -0.25 -3.21875q-0.234375 -0.875 -0.59375 -1.171875q-0.359375 -0.296875 -0.8125 -0.296875zm6.5944824 11.28125l0 -2.5625l2.5625 0l0 2.5625l-2.5625 0zm4.6676636 -3.4375l2.546875 -0.265625q0.109375 0.875 0.640625 1.375q0.546875 0.5 1.25 0.5q0.796875 0 1.34375 -0.640625q0.5625 -0.65625 0.5625 -1.96875q0 -1.234375 -0.546875 -1.84375q-0.546875 -0.609375 -1.4375 -0.609375q-1.09375 0 -1.96875 0.96875l-2.078125 -0.296875l1.3125 -6.953125l6.765625 0l0 2.390625l-4.828125 0l-0.40625 2.265625q0.859375 -0.421875 1.75 -0.421875q1.703125 0 2.890625 1.25q1.1875 1.234375 1.1875 3.203125q0 1.65625 -0.953125 2.9375q-1.3125 1.78125 -3.625 1.78125q-1.84375 0 -3.015625 -1.0q-1.15625 -1.0 -1.390625 -2.671875z" fill-rule="nonzero"/><path fill="#000000" fill-opacity="0.0" d="m243.81364 265.32547l101.133865 0l0 42.015747l-101.133865 0z" fill-rule="evenodd"/><path fill="#000000" d="m282.24133 288.80795l2.546875 -0.265625q0.109375 0.875 0.640625 1.375q0.546875 0.5 1.25 0.5q0.796875 0 1.34375 -0.640625q0.5625 -0.65625 0.5625 -1.96875q0 -1.234375 -0.546875 -1.84375q-0.546875 -0.609375 -1.4375 -0.609375q-1.09375 0 -1.96875 0.96875l-2.078125 -0.296875l1.3125 -6.953125l6.765625 0l0 2.390625l-4.828125 0l-0.40625 2.265625q0.859375 -0.421875 1.75 -0.421875q1.703125 0 2.890625 1.25q1.1875 1.234375 1.1875 3.203125q0 1.65625 -0.953125 2.9375q-1.3125 1.78125 -3.625 1.78125q-1.84375 0 -3.015625 -1.0q-1.15625 -1.0 -1.390625 -2.671875zm10.891357 3.4375l0 -2.5625l2.5625 0l0 2.5625l-2.5625 0zm13.277039 -2.375l0 2.375l-8.96875 0q0.140625 -1.34375 0.859375 -2.546875q0.734375 -1.21875 2.890625 -3.203125q1.734375 -1.625 2.125 -2.1875q0.53125 -0.796875 0.53125 -1.578125q0 -0.84375 -0.46875 -1.296875q-0.453125 -0.46875 -1.265625 -0.46875q-0.796875 0 -1.28125 0.484375q-0.46875 0.46875 -0.546875 1.59375l-2.546875 -0.25q0.234375 -2.109375 1.421875 -3.03125q1.203125 -0.921875 3.015625 -0.921875q1.96875 0 3.09375 1.0625q1.140625 1.0625 1.140625 2.65625q0 0.890625 -0.328125 1.71875q-0.3125 0.8125 -1.015625 1.703125q-0.46875 0.59375 -1.6875 1.703125q-1.203125 1.109375 -1.53125 1.484375q-0.3125 0.359375 -0.515625 0.703125l5.078125 0z" fill-rule="nonzero"/><path fill="#000000" fill-opacity="0.0" d="m243.81364 303.8058l101.133865 0l0 42.015747l-101.133865 0z" fill-rule="evenodd"/><path fill="#000000" d="m282.24133 327.28827l2.546875 -0.265625q0.109375 0.875 0.640625 1.375q0.546875 0.5 1.25 0.5q0.796875 0 1.34375 -0.640625q0.5625 -0.65625 0.5625 -1.96875q0 -1.234375 -0.546875 -1.84375q-0.546875 -0.609375 -1.4375 -0.609375q-1.09375 0 -1.96875 0.96875l-2.078125 -0.296875l1.3125 -6.953125l6.765625 0l0 2.390625l-4.828125 0l-0.40625 2.265625q0.859375 -0.421875 1.75 -0.421875q1.703125 0 2.890625 1.25q1.1875 1.234375 1.1875 3.203125q0 1.65625 -0.953125 2.9375q-1.3125 1.78125 -3.625 1.78125q-1.84375 0 -3.015625 -1.0q-1.15625 -1.0 -1.390625 -2.671875zm10.891357 3.4375l0 -2.5625l2.5625 0l0 2.5625l-2.5625 0zm4.5426636 -3.546875l2.46875 -0.296875q0.125 0.953125 0.640625 1.453125q0.53125 0.5 1.265625 0.5q0.78125 0 1.328125 -0.59375q0.546875 -0.609375 0.546875 -1.640625q0 -0.953125 -0.53125 -1.515625q-0.515625 -0.578125 -1.25 -0.578125q-0.5 0 -1.1875 0.203125l0.28125 -2.09375q1.046875 0.03125 1.59375 -0.4375q0.546875 -0.484375 0.546875 -1.28125q0 -0.671875 -0.40625 -1.078125q-0.390625 -0.40625 -1.0625 -0.40625q-0.65625 0 -1.125 0.46875q-0.453125 0.453125 -0.5625 1.328125l-2.359375 -0.40625q0.25 -1.203125 0.734375 -1.921875q0.5 -0.734375 1.390625 -1.140625q0.890625 -0.421875 2.0 -0.421875q1.875 0 3.015625 1.203125q0.9375 0.984375 0.9375 2.21875q0 1.765625 -1.921875 2.8125q1.15625 0.234375 1.84375 1.09375q0.6875 0.859375 0.6875 2.0625q0 1.765625 -1.296875 3.015625q-1.28125 1.234375 -3.1875 1.234375q-1.8125 0 -3.015625 -1.046875q-1.1875 -1.046875 -1.375 -2.734375z" fill-rule="nonzero"/><path fill="#000000" fill-opacity="0.0" d="m243.81364 347.7349l101.133865 0l0 42.015778l-101.133865 0z" fill-rule="evenodd"/><path fill="#000000" d="m282.03784 374.6549l0 -2.6875l-5.46875 0l0 -2.234375l5.796875 -8.484375l2.15625 0l0 8.46875l1.65625 0l0 2.25l-1.65625 0l0 2.6875l-2.484375 0zm0 -4.9375l0 -4.5625l-3.078125 4.5625l3.078125 0zm5.9069824 4.9375l0 -2.5625l2.5625 0l0 2.5625l-2.5625 0zm11.183289 0l-2.5625 0l0 -9.640625q-1.40625 1.3125 -3.3125 1.9375l0 -2.328125q1.015625 -0.328125 2.1875 -1.234375q1.171875 -0.921875 1.609375 -2.140625l2.078125 0l0 13.40625zm3.7351074 -3.546875l2.46875 -0.296875q0.125 0.953125 0.640625 1.453125q0.53125 0.5 1.265625 0.5q0.78125 0 1.328125 -0.59375q0.546875 -0.609375 0.546875 -1.640625q0 -0.953125 -0.53125 -1.515625q-0.515625 -0.578125 -1.25 -0.578125q-0.5 0 -1.1875 0.203125l0.28125 -2.09375q1.046875 0.03125 1.59375 -0.4375q0.546875 -0.484375 0.546875 -1.28125q0 -0.671875 -0.40625 -1.078125q-0.390625 -0.40625 -1.0625 -0.40625q-0.65625 0 -1.125 0.46875q-0.453125 0.453125 -0.5625 1.328125l-2.359375 -0.40625q0.25 -1.203125 0.734375 -1.921875q0.5 -0.734375 1.390625 -1.140625q0.890625 -0.421875 2.0 -0.421875q1.875 0 3.015625 1.203125q0.9375 0.984375 0.9375 2.21875q0 1.765625 -1.921875 2.8125q1.15625 0.234375 1.84375 1.09375q0.6875 0.859375 0.6875 2.0625q0 1.765625 -1.296875 3.015625q-1.28125 1.234375 -3.1875 1.234375q-1.8125 0 -3.015625 -1.046875q-1.1875 -1.046875 -1.375 -2.734375z" fill-rule="nonzero"/><path fill="#000000" fill-opacity="0.0" d="m243.81364 391.66403l101.133865 0l0 42.015747l-101.133865 0z" fill-rule="evenodd"/><path fill="#000000" d="m282.03784 418.58405l0 -2.6875l-5.46875 0l0 -2.234375l5.796875 -8.484375l2.15625 0l0 8.46875l1.65625 0l0 2.25l-1.65625 0l0 2.6875l-2.484375 0zm0 -4.9375l0 -4.5625l-3.078125 4.5625l3.078125 0zm5.9069824 4.9375l0 -2.5625l2.5625 0l0 2.5625l-2.5625 0zm4.5426636 -3.546875l2.46875 -0.296875q0.125 0.953125 0.640625 1.453125q0.53125 0.5 1.265625 0.5q0.78125 0 1.328125 -0.59375q0.546875 -0.609375 0.546875 -1.640625q0 -0.953125 -0.53125 -1.515625q-0.515625 -0.578125 -1.25 -0.578125q-0.5 0 -1.1875 0.203125l0.28125 -2.09375q1.046875 0.03125 1.59375 -0.4375q0.546875 -0.484375 0.546875 -1.28125q0 -0.671875 -0.40625 -1.078125q-0.390625 -0.40625 -1.0625 -0.40625q-0.65625 0 -1.125 0.46875q-0.453125 0.453125 -0.5625 1.328125l-2.359375 -0.40625q0.25 -1.203125 0.734375 -1.921875q0.5 -0.734375 1.390625 -1.140625q0.890625 -0.421875 2.0 -0.421875q1.875 0 3.015625 1.203125q0.9375 0.984375 0.9375 2.21875q0 1.765625 -1.921875 2.8125q1.15625 0.234375 1.84375 1.09375q0.6875 0.859375 0.6875 2.0625q0 1.765625 -1.296875 3.015625q-1.28125 1.234375 -3.1875 1.234375q-1.8125 0 -3.015625 -1.046875q-1.1875 -1.046875 -1.375 -2.734375zm19.141357 -6.53125l-2.484375 0.265625q-0.09375 -0.765625 -0.484375 -1.125q-0.375 -0.375 -0.984375 -0.375q-0.8125 0 -1.375 0.734375q-0.546875 0.734375 -0.703125 3.03125q0.96875 -1.125 2.390625 -1.125q1.59375 0 2.734375 1.21875q1.140625 1.21875 1.140625 3.15625q0 2.046875 -1.203125 3.296875q-1.1875 1.234375 -3.078125 1.234375q-2.03125 0 -3.328125 -1.578125q-1.296875 -1.578125 -1.296875 -5.15625q0 -3.671875 1.34375 -5.28125q1.359375 -1.625 3.53125 -1.625q1.53125 0 2.515625 0.859375q1.0 0.84375 1.28125 2.46875zm-5.8125 5.578125q0 1.25 0.578125 1.9375q0.578125 0.671875 1.3125 0.671875q0.71875 0 1.1875 -0.546875q0.46875 -0.5625 0.46875 -1.828125q0 -1.3125 -0.515625 -1.90625q-0.5 -0.609375 -1.265625 -0.609375q-0.734375 0 -1.25 0.578125q-0.515625 0.578125 -0.515625 1.703125z" fill-rule="nonzero"/><path fill="#000000" fill-opacity="0.0" d="m243.81364 430.14435l101.133865 0l0 42.015747l-101.133865 0z" fill-rule="evenodd"/><path fill="#000000" d="m283.5691 457.06436l-2.5625 0l0 -9.640625q-1.40625 1.3125 -3.3125 1.9375l0 -2.328125q1.015625 -0.328125 2.1875 -1.234375q1.171875 -0.921875 1.609375 -2.140625l2.078125 0l0 13.40625zm8.156982 -13.40625q1.9375 0 3.03125 1.375q1.296875 1.640625 1.296875 5.4375q0 3.796875 -1.3125 5.453125q-1.078125 1.375 -3.015625 1.375q-1.953125 0 -3.15625 -1.5q-1.1875 -1.5 -1.1875 -5.34375q0 -3.78125 1.3125 -5.4375q1.078125 -1.359375 3.03125 -1.359375zm0 2.125q-0.46875 0 -0.84375 0.296875q-0.359375 0.296875 -0.5625 1.0625q-0.25 0.984375 -0.25 3.328125q0 2.359375 0.234375 3.234375q0.234375 0.875 0.59375 1.171875q0.359375 0.296875 0.828125 0.296875q0.453125 0 0.8125 -0.296875q0.375 -0.296875 0.578125 -1.0625q0.265625 -0.984375 0.265625 -3.34375q0 -2.34375 -0.25 -3.21875q-0.234375 -0.875 -0.59375 -1.171875q-0.359375 -0.296875 -0.8125 -0.296875zm6.594452 11.28125l0 -2.5625l2.5625 0l0 2.5625l-2.5625 0zm4.683319 -3.09375l2.484375 -0.265625q0.09375 0.75 0.46875 1.125q0.390625 0.359375 1.015625 0.359375q0.796875 0 1.34375 -0.71875q0.5625 -0.734375 0.71875 -3.03125q-0.96875 1.109375 -2.421875 1.109375q-1.578125 0 -2.71875 -1.203125q-1.140625 -1.21875 -1.140625 -3.171875q0 -2.03125 1.203125 -3.265625q1.203125 -1.25 3.078125 -1.25q2.03125 0 3.328125 1.578125q1.3125 1.5625 1.3125 5.15625q0 3.671875 -1.359375 5.296875q-1.359375 1.609375 -3.53125 1.609375q-1.578125 0 -2.546875 -0.828125q-0.953125 -0.84375 -1.234375 -2.5zm5.796875 -5.59375q0 -1.234375 -0.578125 -1.90625q-0.5625 -0.6875 -1.3125 -0.6875q-0.703125 0 -1.171875 0.5625q-0.46875 0.546875 -0.46875 1.828125q0 1.296875 0.5 1.90625q0.515625 0.59375 1.28125 0.59375q0.734375 0 1.234375 -0.578125q0.515625 -0.578125 0.515625 -1.71875z" fill-rule="nonzero"/><path fill="#000000" d="m430.49344 308.82678l155.22836 0l0 -12.968506l25.937012 25.937012l-25.937012 25.936981l0 -12.968475l-155.22836 0z" fill-rule="evenodd"/><path stroke="#000000" stroke-width="1.0" stroke-linejoin="round" stroke-linecap="butt" d="m430.49344 308.82678l155.22836 0l0 -12.968506l25.937012 25.937012l-25.937012 25.936981l0 -12.968475l-155.22836 0z" fill-rule="evenodd"/><path fill="#000000" fill-opacity="0.0" d="m644.17847 322.18372l1.5479126 0l0 150.20474l261.69617 0" fill-rule="evenodd"/><path stroke="#000000" stroke-width="2.0" stroke-linejoin="round" stroke-linecap="butt" d="m644.17847 322.18372l1.5479126 0l0 150.20474l261.69617 0" fill-rule="evenodd"/><path fill="#000000" fill-opacity="0.0" d="m908.96326 472.38058l0 -151.74805" fill-rule="evenodd"/><path stroke="#000000" stroke-width="2.0" stroke-linejoin="round" stroke-linecap="butt" d="m908.96326 472.38058l0 -151.74805" fill-rule="evenodd"/><path fill="#000000" fill-opacity="0.0" d="m644.17847 507.99475l263.24408 0l0 71.08661l-263.24408 0z" fill-rule="evenodd"/><path fill="#000000" d="m680.8667 537.47473l0 -12.6875l-4.53125 0l0 -2.578125l12.140625 0l0 2.578125l-4.515625 0l0 12.6875l-3.09375 0zm7.319763 -5.6875q0 -1.453125 0.71875 -2.8125q0.71875 -1.375 2.03125 -2.09375q1.3125 -0.71875 2.9375 -0.71875q2.515625 0 4.109375 1.640625q1.609375 1.625 1.609375 4.109375q0 2.515625 -1.625 4.171875q-1.609375 1.640625 -4.0625 1.640625q-1.53125 0 -2.90625 -0.6875q-1.375 -0.6875 -2.09375 -2.015625q-0.71875 -1.328125 -0.71875 -3.234375zm3.0 0.15625q0 1.640625 0.78125 2.515625q0.78125 0.875 1.921875 0.875q1.140625 0 1.921875 -0.875q0.78125 -0.875 0.78125 -2.53125q0 -1.625 -0.78125 -2.5q-0.78125 -0.875 -1.921875 -0.875q-1.140625 0 -1.921875 0.875q-0.78125 0.875 -0.78125 2.515625zm17.981201 5.53125l0 -1.65625q-0.609375 0.890625 -1.59375 1.40625q-0.984375 0.5 -2.078125 0.5q-1.109375 0 -2.0 -0.484375q-0.875 -0.5 -1.28125 -1.375q-0.390625 -0.890625 -0.390625 -2.453125l0 -7.0l2.921875 0l0 5.078125q0 2.34375 0.15625 2.875q0.171875 0.515625 0.59375 0.828125q0.4375 0.296875 1.09375 0.296875q0.75 0 1.34375 -0.40625q0.59375 -0.40625 0.8125 -1.015625q0.21875 -0.609375 0.21875 -2.984375l0 -4.671875l2.921875 0l0 11.0625l-2.71875 0zm8.543701 0l-2.921875 0l0 -11.0625l2.71875 0l0 1.578125q0.703125 -1.125 1.25 -1.46875q0.5625 -0.359375 1.265625 -0.359375q1.0 0 1.9375 0.5625l-0.90625 2.546875q-0.75 -0.484375 -1.375 -0.484375q-0.625 0 -1.046875 0.34375q-0.421875 0.328125 -0.671875 1.21875q-0.25 0.890625 -0.25 3.703125l0 3.421875zm15.565674 0l-2.921875 0l0 -5.640625q0 -1.796875 -0.1875 -2.3125q-0.1875 -0.53125 -0.609375 -0.828125q-0.421875 -0.296875 -1.015625 -0.296875q-0.765625 0 -1.375 0.421875q-0.59375 0.421875 -0.828125 1.109375q-0.21875 0.6875 -0.21875 2.53125l0 5.015625l-2.921875 0l0 -11.0625l2.71875 0l0 1.625q1.4375 -1.875 3.640625 -1.875q0.96875 0 1.765625 0.359375q0.8125 0.34375 1.21875 0.890625q0.40625 0.53125 0.5625 1.21875q0.171875 0.6875 0.171875 1.96875l0 6.875zm5.153076 -7.6875l-2.65625 -0.484375q0.453125 -1.59375 1.546875 -2.359375q1.09375 -0.78125 3.25 -0.78125q1.953125 0 2.90625 0.46875q0.96875 0.453125 1.359375 1.171875q0.390625 0.71875 0.390625 2.625l-0.03125 3.40625q0 1.46875 0.125 2.15625q0.140625 0.6875 0.53125 1.484375l-2.890625 0q-0.109375 -0.296875 -0.28125 -0.859375q-0.078125 -0.265625 -0.109375 -0.34375q-0.75 0.71875 -1.609375 1.09375q-0.84375 0.359375 -1.8125 0.359375q-1.703125 0 -2.6875 -0.921875q-0.984375 -0.9375 -0.984375 -2.34375q0 -0.9375 0.4375 -1.671875q0.453125 -0.734375 1.25 -1.125q0.8125 -0.390625 2.34375 -0.6875q2.046875 -0.390625 2.84375 -0.71875l0 -0.296875q0 -0.84375 -0.421875 -1.203125q-0.421875 -0.359375 -1.578125 -0.359375q-0.78125 0 -1.21875 0.3125q-0.4375 0.3125 -0.703125 1.078125zm3.921875 2.375q-0.5625 0.1875 -1.78125 0.453125q-1.21875 0.25 -1.59375 0.5q-0.578125 0.40625 -0.578125 1.03125q0 0.625 0.453125 1.078125q0.46875 0.4375 1.171875 0.4375q0.796875 0 1.515625 -0.515625q0.53125 -0.40625 0.6875 -0.96875q0.125 -0.375 0.125 -1.4375l0 -0.578125zm5.5335693 -5.75l2.703125 0l0 1.515625q1.4375 -1.765625 3.4375 -1.765625q1.0625 0 1.84375 0.4375q0.78125 0.4375 1.28125 1.328125q0.734375 -0.890625 1.578125 -1.328125q0.84375 -0.4375 1.796875 -0.4375q1.21875 0 2.0625 0.5q0.84375 0.484375 1.265625 1.453125q0.296875 0.703125 0.296875 2.28125l0 7.078125l-2.921875 0l0 -6.328125q0 -1.640625 -0.3125 -2.125q-0.40625 -0.625 -1.25 -0.625q-0.609375 0 -1.15625 0.375q-0.53125 0.375 -0.78125 1.109375q-0.234375 0.71875 -0.234375 2.28125l0 5.3125l-2.921875 0l0 -6.0625q0 -1.609375 -0.15625 -2.078125q-0.15625 -0.46875 -0.484375 -0.703125q-0.328125 -0.234375 -0.890625 -0.234375q-0.671875 0 -1.21875 0.375q-0.546875 0.359375 -0.78125 1.046875q-0.234375 0.6875 -0.234375 2.28125l0 5.375l-2.921875 0l0 -11.0625zm25.589172 7.546875l2.90625 0.484375q-0.546875 1.609375 -1.765625 2.453125q-1.21875 0.828125 -3.03125 0.828125q-2.890625 0 -4.28125 -1.890625q-1.09375 -1.5 -1.09375 -3.8125q0 -2.75 1.4375 -4.296875q1.4375 -1.5625 3.640625 -1.5625q2.46875 0 3.890625 1.640625q1.421875 1.625 1.359375 4.984375l-7.328125 0q0.03125 1.296875 0.703125 2.03125q0.6875 0.71875 1.703125 0.71875q0.6875 0 1.15625 -0.375q0.46875 -0.375 0.703125 -1.203125zm0.171875 -2.96875q-0.03125 -1.265625 -0.65625 -1.921875q-0.625 -0.671875 -1.53125 -0.671875q-0.953125 0 -1.578125 0.703125q-0.625 0.703125 -0.609375 1.890625l4.375 0zm15.346069 6.484375l-2.921875 0l0 -5.640625q0 -1.796875 -0.1875 -2.3125q-0.1875 -0.53125 -0.609375 -0.828125q-0.421875 -0.296875 -1.015625 -0.296875q-0.765625 0 -1.375 0.421875q-0.59375 0.421875 -0.828125 1.109375q-0.21875 0.6875 -0.21875 2.53125l0 5.015625l-2.921875 0l0 -11.0625l2.71875 0l0 1.625q1.4375 -1.875 3.640625 -1.875q0.96875 0 1.765625 0.359375q0.8125 0.34375 1.21875 0.890625q0.40625 0.53125 0.5625 1.21875q0.171875 0.6875 0.171875 1.96875l0 6.875zm8.043701 -11.0625l0 2.328125l-2.0 0l0 4.46875q0 1.34375 0.046875 1.578125q0.0625 0.21875 0.265625 0.375q0.203125 0.140625 0.5 0.140625q0.40625 0 1.171875 -0.28125l0.25 2.265625q-1.015625 0.4375 -2.3125 0.4375q-0.796875 0 -1.4375 -0.265625q-0.625 -0.265625 -0.921875 -0.6875q-0.296875 -0.421875 -0.40625 -1.140625q-0.09375 -0.515625 -0.09375 -2.0625l0 -4.828125l-1.34375 0l0 -2.328125l1.34375 0l0 -2.1875l2.9375 -1.71875l0 3.90625l2.0 0zm7.965576 11.0625l0 -15.265625l4.953125 0q2.8125 0 3.671875 0.234375q1.296875 0.34375 2.1875 1.5q0.890625 1.140625 0.890625 2.953125q0 1.40625 -0.515625 2.375q-0.515625 0.953125 -1.296875 1.5q-0.78125 0.546875 -1.59375 0.71875q-1.109375 0.21875 -3.203125 0.21875l-2.0 0l0 5.765625l-3.09375 0zm3.09375 -12.6875l0 4.328125l1.6875 0q1.8125 0 2.421875 -0.234375q0.625 -0.234375 0.96875 -0.75q0.359375 -0.515625 0.359375 -1.1875q0 -0.828125 -0.5 -1.359375q-0.484375 -0.546875 -1.234375 -0.6875q-0.546875 -0.109375 -2.21875 -0.109375l-1.484375 0zm10.444397 7.0q0 -1.453125 0.71875 -2.8125q0.71875 -1.375 2.03125 -2.09375q1.3125 -0.71875 2.9375 -0.71875q2.515625 0 4.109375 1.640625q1.609375 1.625 1.609375 4.109375q0 2.515625 -1.625 4.171875q-1.609375 1.640625 -4.0625 1.640625q-1.53125 0 -2.90625 -0.6875q-1.375 -0.6875 -2.09375 -2.015625q-0.71875 -1.328125 -0.71875 -3.234375zm3.0 0.15625q0 1.640625 0.78125 2.515625q0.78125 0.875 1.921875 0.875q1.140625 0 1.921875 -0.875q0.78125 -0.875 0.78125 -2.53125q0 -1.625 -0.78125 -2.5q-0.78125 -0.875 -1.921875 -0.875q-1.140625 0 -1.921875 0.875q-0.78125 0.875 -0.78125 2.515625zm10.028076 -0.15625q0 -1.453125 0.71875 -2.8125q0.71875 -1.375 2.03125 -2.09375q1.3125 -0.71875 2.9375 -0.71875q2.515625 0 4.109375 1.640625q1.609375 1.625 1.609375 4.109375q0 2.515625 -1.625 4.171875q-1.609375 1.640625 -4.0625 1.640625q-1.53125 0 -2.90625 -0.6875q-1.375 -0.6875 -2.09375 -2.015625q-0.71875 -1.328125 -0.71875 -3.234375zm3.0 0.15625q0 1.640625 0.78125 2.515625q0.78125 0.875 1.921875 0.875q1.140625 0 1.921875 -0.875q0.78125 -0.875 0.78125 -2.53125q0 -1.625 -0.78125 -2.5q-0.78125 -0.875 -1.921875 -0.875q-1.140625 0 -1.921875 0.875q-0.78125 0.875 -0.78125 2.515625zm10.699951 5.53125l0 -15.265625l2.921875 0l0 15.265625l-2.921875 0zm11.179443 -5.6875q0 -1.453125 0.71875 -2.8125q0.71875 -1.375 2.03125 -2.09375q1.3125 -0.71875 2.9375 -0.71875q2.515625 0 4.109375 1.640625q1.609375 1.625 1.609375 4.109375q0 2.515625 -1.625 4.171875q-1.609375 1.640625 -4.0625 1.640625q-1.53125 0 -2.90625 -0.6875q-1.375 -0.6875 -2.09375 -2.015625q-0.71875 -1.328125 -0.71875 -3.234375zm3.0 0.15625q0 1.640625 0.78125 2.515625q0.78125 0.875 1.921875 0.875q1.140625 0 1.921875 -0.875q0.78125 -0.875 0.78125 -2.53125q0 -1.625 -0.78125 -2.5q-0.78125 -0.875 -1.921875 -0.875q-1.140625 0 -1.921875 0.875q-0.78125 0.875 -0.78125 2.515625zm9.418701 -5.53125l1.625 0l0 -0.828125q0 -1.390625 0.296875 -2.078125q0.296875 -0.6875 1.09375 -1.125q0.796875 -0.4375 2.015625 -0.4375q1.25 0 2.453125 0.375l-0.40625 2.046875q-0.6875 -0.171875 -1.34375 -0.171875q-0.625 0 -0.90625 0.296875q-0.28125 0.296875 -0.28125 1.140625l0 0.78125l2.1875 0l0 2.296875l-2.1875 0l0 8.765625l-2.921875 0l0 -8.765625l-1.625 0l0 -2.296875z" fill-rule="nonzero"/><path fill="#000000" d="m745.4799 559.9185l2.9375 -0.453125q0.1875 0.859375 0.75 1.3125q0.578125 0.4375 1.609375 0.4375q1.140625 0 1.71875 -0.421875q0.375 -0.296875 0.375 -0.78125q0 -0.328125 -0.203125 -0.546875q-0.21875 -0.21875 -0.984375 -0.390625q-3.53125 -0.78125 -4.484375 -1.421875q-1.3125 -0.90625 -1.3125 -2.5q0 -1.4375 1.125 -2.40625q1.140625 -0.984375 3.53125 -0.984375q2.265625 0 3.375 0.75q1.109375 0.734375 1.515625 2.171875l-2.75 0.515625q-0.1875 -0.640625 -0.6875 -0.984375q-0.484375 -0.34375 -1.40625 -0.34375q-1.15625 0 -1.65625 0.3125q-0.328125 0.234375 -0.328125 0.59375q0 0.3125 0.296875 0.53125q0.390625 0.296875 2.71875 0.828125q2.34375 0.53125 3.28125 1.296875q0.90625 0.78125 0.90625 2.1875q0 1.515625 -1.265625 2.609375q-1.265625 1.09375 -3.765625 1.09375q-2.25 0 -3.578125 -0.90625q-1.3125 -0.921875 -1.71875 -2.5zm12.892944 -9.40625l0 -2.703125l2.921875 0l0 2.703125l-2.921875 0zm0 12.5625l0 -11.0625l2.921875 0l0 11.0625l-2.921875 0zm4.753784 0l0 -2.28125l4.140625 -4.765625q1.015625 -1.15625 1.515625 -1.65625q-0.515625 0.03125 -1.34375 0.046875l-3.90625 0.015625l0 -2.421875l9.140625 0l0 2.078125l-4.234375 4.875l-1.484375 1.609375q1.21875 -0.078125 1.515625 -0.078125l4.53125 0l0 2.578125l-9.875 0zm18.242188 -3.515625l2.90625 0.484375q-0.546875 1.609375 -1.765625 2.453125q-1.21875 0.828125 -3.03125 0.828125q-2.890625 0 -4.28125 -1.890625q-1.09375 -1.5 -1.09375 -3.8125q0 -2.75 1.4375 -4.296875q1.4375 -1.5625 3.640625 -1.5625q2.46875 0 3.890625 1.640625q1.421875 1.625 1.359375 4.984375l-7.328125 0q0.03125 1.296875 0.703125 2.03125q0.6875 0.71875 1.703125 0.71875q0.6875 0 1.15625 -0.375q0.46875 -0.375 0.703125 -1.203125zm0.171875 -2.96875q-0.03125 -1.265625 -0.65625 -1.921875q-0.625 -0.671875 -1.53125 -0.671875q-0.953125 0 -1.578125 0.703125q-0.625 0.703125 -0.609375 1.890625l4.375 0zm11.2716675 6.484375l0 -15.265625l3.078125 0l0 6.78125l6.234375 -6.78125l4.140625 0l-5.75 5.9375l6.0625 9.328125l-3.984375 0l-4.203125 -7.171875l-2.5 2.5625l0 4.609375l-3.078125 0z" fill-rule="nonzero"/><path fill="#000000" fill-opacity="0.0" d="m428.9475 199.85564l199.74805 0l0 64.62993l-199.74805 0z" fill-rule="evenodd"/><path fill="#000000" d="m446.7197 226.77563l0 -13.359375l5.6875 0q2.140625 0 3.109375 0.359375q0.96875 0.359375 1.546875 1.28125q0.578125 0.921875 0.578125 2.109375q0 1.5 -0.890625 2.484375q-0.875 0.96875 -2.625 1.234375q0.875 0.5 1.4375 1.125q0.578125 0.609375 1.53125 2.15625l1.640625 2.609375l-3.234375 0l-1.9375 -2.90625q-1.046875 -1.5625 -1.4375 -1.96875q-0.375 -0.40625 -0.8125 -0.546875q-0.421875 -0.15625 -1.34375 -0.15625l-0.546875 0l0 5.578125l-2.703125 0zm2.703125 -7.703125l2.0 0q1.9375 0 2.421875 -0.15625q0.484375 -0.171875 0.75 -0.578125q0.28125 -0.40625 0.28125 -1.0q0 -0.671875 -0.359375 -1.078125q-0.359375 -0.421875 -1.015625 -0.53125q-0.328125 -0.046875 -1.96875 -0.046875l-2.109375 0l0 3.390625zm12.660431 0.984375l-2.328125 -0.421875q0.40625 -1.40625 1.359375 -2.078125q0.953125 -0.671875 2.84375 -0.671875q1.703125 0 2.546875 0.40625q0.84375 0.40625 1.171875 1.03125q0.34375 0.625 0.34375 2.28125l-0.015625 3.0q0 1.265625 0.109375 1.875q0.125 0.609375 0.46875 1.296875l-2.53125 0q-0.109375 -0.25 -0.25 -0.75q-0.0625 -0.234375 -0.09375 -0.3125q-0.65625 0.640625 -1.40625 0.96875q-0.734375 0.3125 -1.59375 0.3125q-1.484375 0 -2.34375 -0.8125q-0.859375 -0.8125 -0.859375 -2.046875q0 -0.828125 0.390625 -1.46875q0.390625 -0.640625 1.09375 -0.96875q0.703125 -0.34375 2.03125 -0.609375q1.796875 -0.328125 2.484375 -0.625l0 -0.25q0 -0.75 -0.359375 -1.0625q-0.359375 -0.3125 -1.375 -0.3125q-0.6875 0 -1.078125 0.28125q-0.375 0.265625 -0.609375 0.9375zm3.421875 2.078125q-0.484375 0.15625 -1.5625 0.390625q-1.0625 0.21875 -1.390625 0.4375q-0.5 0.359375 -0.5 0.90625q0 0.53125 0.40625 0.9375q0.40625 0.390625 1.015625 0.390625q0.703125 0 1.328125 -0.46875q0.46875 -0.34375 0.609375 -0.84375q0.09375 -0.328125 0.09375 -1.25l0 -0.5zm13.844482 4.640625l-2.5625 0l0 -4.9375q0 -1.5625 -0.171875 -2.015625q-0.15625 -0.46875 -0.53125 -0.71875q-0.359375 -0.265625 -0.875 -0.265625q-0.671875 0 -1.203125 0.375q-0.53125 0.359375 -0.734375 0.96875q-0.1875 0.59375 -0.1875 2.21875l0 4.375l-2.546875 0l0 -9.671875l2.375 0l0 1.421875q1.265625 -1.640625 3.1875 -1.640625q0.84375 0 1.546875 0.3125q0.703125 0.296875 1.0625 0.78125q0.359375 0.46875 0.5 1.078125q0.140625 0.59375 0.140625 1.703125l0 6.015625zm11.474091 0l-2.390625 0l0 -1.421875q-0.59375 0.828125 -1.40625 1.234375q-0.796875 0.40625 -1.609375 0.40625q-1.671875 0 -2.859375 -1.34375q-1.1875 -1.34375 -1.1875 -3.75q0 -2.453125 1.15625 -3.734375q1.15625 -1.28125 2.921875 -1.28125q1.625 0 2.8125 1.34375l0 -4.8125l2.5625 0l0 13.359375zm-6.84375 -5.046875q0 1.546875 0.4375 2.234375q0.609375 1.015625 1.71875 1.015625q0.890625 0 1.5 -0.75q0.625 -0.765625 0.625 -2.25q0 -1.671875 -0.609375 -2.40625q-0.59375 -0.734375 -1.53125 -0.734375q-0.90625 0 -1.53125 0.734375q-0.609375 0.71875 -0.609375 2.15625zm8.770996 0.078125q0 -1.28125 0.625 -2.46875q0.625 -1.203125 1.78125 -1.828125q1.15625 -0.625 2.578125 -0.625q2.1875 0 3.59375 1.421875q1.40625 1.421875 1.40625 3.609375q0 2.1875 -1.421875 3.640625q-1.421875 1.4375 -3.5625 1.4375q-1.328125 0 -2.546875 -0.59375q-1.203125 -0.609375 -1.828125 -1.765625q-0.625 -1.171875 -0.625 -2.828125zm2.625 0.125q0 1.453125 0.671875 2.21875q0.6875 0.75 1.6875 0.75q1.0 0 1.671875 -0.75q0.6875 -0.765625 0.6875 -2.234375q0 -1.421875 -0.6875 -2.1875q-0.671875 -0.765625 -1.671875 -0.765625q-1.0 0 -1.6875 0.765625q-0.671875 0.765625 -0.671875 2.203125zm9.161591 -4.828125l2.359375 0l0 1.3125q1.265625 -1.53125 3.015625 -1.53125q0.9375 0 1.609375 0.390625q0.6875 0.375 1.125 1.140625q0.640625 -0.765625 1.375 -1.140625q0.75 -0.390625 1.578125 -0.390625q1.0625 0 1.796875 0.4375q0.75 0.421875 1.109375 1.265625q0.265625 0.625 0.265625 2.0l0 6.1875l-2.5625 0l0 -5.53125q0 -1.4375 -0.265625 -1.859375q-0.34375 -0.546875 -1.09375 -0.546875q-0.53125 0 -1.015625 0.328125q-0.46875 0.328125 -0.671875 0.96875q-0.203125 0.625 -0.203125 2.0l0 4.640625l-2.5625 0l0 -5.296875q0 -1.421875 -0.140625 -1.828125q-0.140625 -0.40625 -0.421875 -0.609375q-0.28125 -0.203125 -0.78125 -0.203125q-0.59375 0 -1.0625 0.328125q-0.46875 0.3125 -0.6875 0.921875q-0.203125 0.59375 -0.203125 1.984375l0 4.703125l-2.5625 0l0 -9.671875zm16.791504 9.671875l0 -13.359375l2.5625 0l0 13.359375l-2.5625 0zm3.9645996 -9.671875l2.71875 0l2.328125 6.859375l2.25 -6.859375l2.65625 0l-3.421875 9.3125l-0.609375 1.6875q-0.328125 0.84375 -0.640625 1.28125q-0.3125 0.453125 -0.703125 0.71875q-0.390625 0.28125 -0.96875 0.4375q-0.578125 0.15625 -1.3125 0.15625q-0.734375 0 -1.453125 -0.15625l-0.21875 -2.0q0.59375 0.125 1.078125 0.125q0.890625 0 1.3125 -0.53125q0.4375 -0.515625 0.671875 -1.328125l-3.6875 -9.703125zm15.871521 6.90625l2.5625 -0.390625q0.171875 0.75 0.671875 1.140625q0.5 0.390625 1.40625 0.390625q0.984375 0 1.484375 -0.375q0.34375 -0.25 0.34375 -0.671875q0 -0.296875 -0.1875 -0.484375q-0.1875 -0.1875 -0.859375 -0.34375q-3.09375 -0.6875 -3.921875 -1.25q-1.140625 -0.78125 -1.140625 -2.171875q0 -1.265625 0.984375 -2.109375q1.0 -0.859375 3.078125 -0.859375q1.984375 0 2.953125 0.65625q0.96875 0.640625 1.328125 1.90625l-2.40625 0.4375q-0.15625 -0.5625 -0.59375 -0.859375q-0.421875 -0.296875 -1.234375 -0.296875q-1.0 0 -1.4375 0.28125q-0.296875 0.203125 -0.296875 0.515625q0 0.265625 0.25 0.46875q0.34375 0.25 2.390625 0.71875q2.046875 0.453125 2.859375 1.140625q0.796875 0.671875 0.796875 1.890625q0 1.34375 -1.109375 2.296875q-1.109375 0.953125 -3.28125 0.953125q-1.984375 0 -3.140625 -0.796875q-1.140625 -0.8125 -1.5 -2.1875zm16.875671 -0.3125l2.546875 0.421875q-0.484375 1.40625 -1.546875 2.140625q-1.0625 0.734375 -2.65625 0.734375q-2.515625 0 -3.734375 -1.65625q-0.953125 -1.3125 -0.953125 -3.328125q0 -2.40625 1.25 -3.765625q1.265625 -1.359375 3.1875 -1.359375q2.15625 0 3.40625 1.421875q1.25 1.421875 1.1875 4.375l-6.40625 0q0.03125 1.140625 0.609375 1.78125q0.59375 0.625 1.484375 0.625q0.59375 0 1.0 -0.328125q0.421875 -0.328125 0.625 -1.0625zm0.15625 -2.59375q-0.03125 -1.109375 -0.578125 -1.6875q-0.546875 -0.578125 -1.328125 -0.578125q-0.84375 0 -1.390625 0.609375q-0.546875 0.609375 -0.53125 1.65625l3.828125 0zm4.6257324 5.671875l0 -13.359375l2.5625 0l0 13.359375l-2.5625 0zm10.777039 -3.078125l2.546875 0.421875q-0.484375 1.40625 -1.546875 2.140625q-1.0625 0.734375 -2.65625 0.734375q-2.515625 0 -3.734375 -1.65625q-0.953125 -1.3125 -0.953125 -3.328125q0 -2.40625 1.25 -3.765625q1.265625 -1.359375 3.1875 -1.359375q2.15625 0 3.40625 1.421875q1.25 1.421875 1.1875 4.375l-6.40625 0q0.03125 1.140625 0.609375 1.78125q0.59375 0.625 1.484375 0.625q0.59375 0 1.0 -0.328125q0.421875 -0.328125 0.625 -1.0625zm0.15625 -2.59375q-0.03125 -1.109375 -0.578125 -1.6875q-0.546875 -0.578125 -1.328125 -0.578125q-0.84375 0 -1.390625 0.609375q-0.546875 0.609375 -0.53125 1.65625l3.828125 0zm13.063232 -1.140625l-2.53125 0.453125q-0.125 -0.75 -0.578125 -1.125q-0.453125 -0.390625 -1.171875 -0.390625q-0.953125 0 -1.53125 0.65625q-0.5625 0.65625 -0.5625 2.203125q0 1.734375 0.578125 2.4375q0.578125 0.703125 1.546875 0.703125q0.734375 0 1.203125 -0.40625q0.46875 -0.421875 0.65625 -1.421875l2.515625 0.421875q-0.390625 1.734375 -1.515625 2.625q-1.109375 0.875 -2.96875 0.875q-2.125 0 -3.390625 -1.328125q-1.25 -1.34375 -1.25 -3.71875q0 -2.390625 1.265625 -3.71875q1.265625 -1.34375 3.421875 -1.34375q1.765625 0 2.796875 0.765625q1.046875 0.75 1.515625 2.3125zm6.3757324 -2.859375l0 2.03125l-1.75 0l0 3.90625q0 1.1875 0.046875 1.390625q0.046875 0.1875 0.21875 0.3125q0.1875 0.125 0.4375 0.125q0.359375 0 1.03125 -0.25l0.21875 2.0q-0.890625 0.375 -2.015625 0.375q-0.703125 0 -1.265625 -0.234375q-0.546875 -0.234375 -0.8125 -0.59375q-0.25 -0.375 -0.34375 -1.0q-0.09375 -0.453125 -0.09375 -1.8125l0 -4.21875l-1.171875 0l0 -2.03125l1.171875 0l0 -1.921875l2.578125 -1.5l0 3.421875l1.75 0zm7.00531 9.671875l0 -13.359375l2.703125 0l0 5.9375l5.4375 -5.9375l3.625 0l-5.015625 5.203125l5.296875 8.15625l-3.484375 0l-3.671875 -6.265625l-2.1875 2.234375l0 4.03125l-2.703125 0z" fill-rule="nonzero"/><path fill="#000000" d="m474.84085 242.36314l-2.53125 0.453125q-0.125 -0.75 -0.578125 -1.125q-0.453125 -0.390625 -1.171875 -0.390625q-0.953125 0 -1.53125 0.65625q-0.5625 0.65625 -0.5625 2.203125q0 1.734375 0.578125 2.4375q0.578125 0.703125 1.546875 0.703125q0.734375 0 1.203125 -0.40625q0.46875 -0.421875 0.65625 -1.421875l2.515625 0.421875q-0.390625 1.734375 -1.515625 2.625q-1.109375 0.875 -2.96875 0.875q-2.125 0 -3.390625 -1.328125q-1.25 -1.34375 -1.25 -3.71875q0 -2.390625 1.265625 -3.71875q1.265625 -1.34375 3.421875 -1.34375q1.765625 0 2.796875 0.765625q1.046875 0.75 1.515625 2.3125zm4.485077 -6.546875l0 4.921875q1.234375 -1.453125 2.953125 -1.453125q0.890625 0 1.59375 0.328125q0.71875 0.328125 1.078125 0.84375q0.359375 0.5 0.484375 1.125q0.140625 0.609375 0.140625 1.921875l0 5.671875l-2.5625 0l0 -5.109375q0 -1.515625 -0.15625 -1.921875q-0.140625 -0.421875 -0.515625 -0.65625q-0.359375 -0.25 -0.90625 -0.25q-0.640625 0 -1.140625 0.3125q-0.5 0.3125 -0.734375 0.9375q-0.234375 0.625 -0.234375 1.84375l0 4.84375l-2.5625 0l0 -13.359375l2.5625 0zm11.302246 13.359375l-2.5625 0l0 -9.671875l2.375 0l0 1.375q0.609375 -0.984375 1.09375 -1.28125q0.484375 -0.3125 1.109375 -0.3125q0.875 0 1.6875 0.484375l-0.796875 2.234375q-0.640625 -0.421875 -1.203125 -0.421875q-0.53125 0 -0.90625 0.296875q-0.375 0.296875 -0.59375 1.078125q-0.203125 0.765625 -0.203125 3.234375l0 2.984375zm4.213379 -4.96875q0 -1.28125 0.625 -2.46875q0.625 -1.203125 1.78125 -1.828125q1.15625 -0.625 2.578125 -0.625q2.1875 0 3.59375 1.421875q1.40625 1.421875 1.40625 3.609375q0 2.1875 -1.421875 3.640625q-1.421875 1.4375 -3.5625 1.4375q-1.328125 0 -2.546875 -0.59375q-1.203125 -0.609375 -1.828125 -1.765625q-0.625 -1.171875 -0.625 -2.828125zm2.625 0.125q0 1.453125 0.671875 2.21875q0.6875 0.75 1.6875 0.75q1.0 0 1.671875 -0.75q0.6875 -0.765625 0.6875 -2.234375q0 -1.421875 -0.6875 -2.1875q-0.671875 -0.765625 -1.671875 -0.765625q-1.0 0 -1.6875 0.765625q-0.671875 0.765625 -0.671875 2.203125zm9.161621 -4.828125l2.359375 0l0 1.3125q1.265625 -1.53125 3.015625 -1.53125q0.9375 0 1.609375 0.390625q0.6875 0.375 1.125 1.140625q0.640625 -0.765625 1.375 -1.140625q0.75 -0.390625 1.578125 -0.390625q1.0625 0 1.796875 0.4375q0.75 0.421875 1.109375 1.265625q0.265625 0.625 0.265625 2.0l0 6.1875l-2.5625 0l0 -5.53125q0 -1.4375 -0.265625 -1.859375q-0.34375 -0.546875 -1.09375 -0.546875q-0.53125 0 -1.015625 0.328125q-0.46875 0.328125 -0.671875 0.96875q-0.203125 0.625 -0.203125 2.0l0 4.640625l-2.5625 0l0 -5.296875q0 -1.421875 -0.140625 -1.828125q-0.140625 -0.40625 -0.421875 -0.609375q-0.28125 -0.203125 -0.78125 -0.203125q-0.59375 0 -1.0625 0.328125q-0.46875 0.3125 -0.6875 0.921875q-0.203125 0.59375 -0.203125 1.984375l0 4.703125l-2.5625 0l0 -9.671875zm16.197754 4.703125q0 -1.28125 0.625 -2.46875q0.625 -1.203125 1.78125 -1.828125q1.15625 -0.625 2.578125 -0.625q2.1875 0 3.59375 1.421875q1.40625 1.421875 1.40625 3.609375q0 2.1875 -1.421875 3.640625q-1.421875 1.4375 -3.5625 1.4375q-1.328125 0 -2.546875 -0.59375q-1.203125 -0.609375 -1.828125 -1.765625q-0.625 -1.171875 -0.625 -2.828125zm2.625 0.125q0 1.453125 0.671875 2.21875q0.6875 0.75 1.6875 0.75q1.0 0 1.671875 -0.75q0.6875 -0.765625 0.6875 -2.234375q0 -1.421875 -0.6875 -2.1875q-0.671875 -0.765625 -1.671875 -0.765625q-1.0 0 -1.6875 0.765625q-0.671875 0.765625 -0.671875 2.203125zm8.458496 2.078125l2.5625 -0.390625q0.171875 0.75 0.671875 1.140625q0.5 0.390625 1.40625 0.390625q0.984375 0 1.484375 -0.375q0.34375 -0.25 0.34375 -0.671875q0 -0.296875 -0.1875 -0.484375q-0.1875 -0.1875 -0.859375 -0.34375q-3.09375 -0.6875 -3.921875 -1.25q-1.140625 -0.78125 -1.140625 -2.171875q0 -1.265625 0.984375 -2.109375q1.0 -0.859375 3.078125 -0.859375q1.984375 0 2.953125 0.65625q0.96875 0.640625 1.328125 1.90625l-2.40625 0.4375q-0.15625 -0.5625 -0.59375 -0.859375q-0.421875 -0.296875 -1.234375 -0.296875q-1.0 0 -1.4375 0.28125q-0.296875 0.203125 -0.296875 0.515625q0 0.265625 0.25 0.46875q0.34375 0.25 2.390625 0.71875q2.046875 0.453125 2.859375 1.140625q0.796875 0.671875 0.796875 1.890625q0 1.34375 -1.109375 2.296875q-1.109375 0.953125 -3.28125 0.953125q-1.984375 0 -3.140625 -0.796875q-1.140625 -0.8125 -1.5 -2.1875zm10.688232 -2.203125q0 -1.28125 0.625 -2.46875q0.625 -1.203125 1.78125 -1.828125q1.15625 -0.625 2.578125 -0.625q2.1875 0 3.59375 1.421875q1.40625 1.421875 1.40625 3.609375q0 2.1875 -1.421875 3.640625q-1.421875 1.4375 -3.5625 1.4375q-1.328125 0 -2.546875 -0.59375q-1.203125 -0.609375 -1.828125 -1.765625q-0.625 -1.171875 -0.625 -2.828125zm2.625 0.125q0 1.453125 0.671875 2.21875q0.6875 0.75 1.6875 0.75q1.0 0 1.671875 -0.75q0.6875 -0.765625 0.6875 -2.234375q0 -1.421875 -0.6875 -2.1875q-0.671875 -0.765625 -1.671875 -0.765625q-1.0 0 -1.6875 0.765625q-0.671875 0.765625 -0.671875 2.203125zm9.16156 -4.828125l2.359375 0l0 1.3125q1.265625 -1.53125 3.015625 -1.53125q0.9375 0 1.609375 0.390625q0.6875 0.375 1.125 1.140625q0.640625 -0.765625 1.375 -1.140625q0.75 -0.390625 1.578125 -0.390625q1.0625 0 1.796875 0.4375q0.75 0.421875 1.109375 1.265625q0.265625 0.625 0.265625 2.0l0 6.1875l-2.5625 0l0 -5.53125q0 -1.4375 -0.265625 -1.859375q-0.34375 -0.546875 -1.09375 -0.546875q-0.53125 0 -1.015625 0.328125q-0.46875 0.328125 -0.671875 0.96875q-0.203125 0.625 -0.203125 2.0l0 4.640625l-2.5625 0l0 -5.296875q0 -1.421875 -0.140625 -1.828125q-0.140625 -0.40625 -0.421875 -0.609375q-0.28125 -0.203125 -0.78125 -0.203125q-0.59375 0 -1.0625 0.328125q-0.46875 0.3125 -0.6875 0.921875q-0.203125 0.59375 -0.203125 1.984375l0 4.703125l-2.5625 0l0 -9.671875zm22.385315 6.59375l2.546875 0.421875q-0.484375 1.40625 -1.546875 2.140625q-1.0625 0.734375 -2.65625 0.734375q-2.515625 0 -3.734375 -1.65625q-0.953125 -1.3125 -0.953125 -3.328125q0 -2.40625 1.25 -3.765625q1.265625 -1.359375 3.1875 -1.359375q2.15625 0 3.40625 1.421875q1.25 1.421875 1.1875 4.375l-6.40625 0q0.03125 1.140625 0.609375 1.78125q0.59375 0.625 1.484375 0.625q0.59375 0 1.0 -0.328125q0.421875 -0.328125 0.625 -1.0625zm0.15625 -2.59375q-0.03125 -1.109375 -0.578125 -1.6875q-0.546875 -0.578125 -1.328125 -0.578125q-0.84375 0 -1.390625 0.609375q-0.546875 0.609375 -0.53125 1.65625l3.828125 0zm3.7194214 2.90625l2.5625 -0.390625q0.171875 0.75 0.671875 1.140625q0.5 0.390625 1.40625 0.390625q0.984375 0 1.484375 -0.375q0.34375 -0.25 0.34375 -0.671875q0 -0.296875 -0.1875 -0.484375q-0.1875 -0.1875 -0.859375 -0.34375q-3.09375 -0.6875 -3.921875 -1.25q-1.140625 -0.78125 -1.140625 -2.171875q0 -1.265625 0.984375 -2.109375q1.0 -0.859375 3.078125 -0.859375q1.984375 0 2.953125 0.65625q0.96875 0.640625 1.328125 1.90625l-2.40625 0.4375q-0.15625 -0.5625 -0.59375 -0.859375q-0.421875 -0.296875 -1.234375 -0.296875q-1.0 0 -1.4375 0.28125q-0.296875 0.203125 -0.296875 0.515625q0 0.265625 0.25 0.46875q0.34375 0.25 2.390625 0.71875q2.046875 0.453125 2.859375 1.140625q0.796875 0.671875 0.796875 1.890625q0 1.34375 -1.109375 2.296875q-1.109375 0.953125 -3.28125 0.953125q-1.984375 0 -3.140625 -0.796875q-1.140625 -0.8125 -1.5 -2.1875z" fill-rule="nonzero"/><path fill="#000000" fill-opacity="0.0" d="m673.8189 338.99213l84.944885 0l0 42.015747l-84.944885 0z" fill-rule="evenodd"/><path fill="#000000" d="m722.9611 365.9121l-2.9375 0l-1.171875 -3.03125l-5.328125 0l-1.109375 3.03125l-2.859375 0l5.203125 -13.359375l2.84375 0l5.359375 13.359375zm-4.96875 -5.28125l-1.84375 -4.953125l-1.796875 4.953125l3.640625 0z" fill-rule="nonzero"/><path fill="#000000" fill-opacity="0.0" d="m791.39105 347.7349l84.944885 0l0 42.015778l-84.944885 0z" fill-rule="evenodd"/><path fill="#000000" d="m828.48645 361.29553l5.34375 0q1.59375 0 2.359375 0.140625q0.78125 0.125 1.390625 0.546875q0.625 0.421875 1.03125 1.125q0.40625 0.6875 0.40625 1.546875q0 0.9375 -0.5 1.734375q-0.5 0.78125 -1.375 1.171875q1.21875 0.359375 1.875 1.21875q0.65625 0.84375 0.65625 2.0q0 0.921875 -0.421875 1.78125q-0.421875 0.859375 -1.15625 1.375q-0.734375 0.515625 -1.796875 0.625q-0.6875 0.078125 -3.265625 0.09375l-4.546875 0l0 -13.359375zm2.703125 2.234375l0 3.078125l1.765625 0q1.578125 0 1.953125 -0.046875q0.703125 -0.078125 1.09375 -0.46875q0.40625 -0.40625 0.40625 -1.046875q0 -0.625 -0.34375 -1.0q-0.34375 -0.390625 -1.015625 -0.484375q-0.40625 -0.03125 -2.3125 -0.03125l-1.546875 0zm0 5.296875l0 3.578125l2.5 0q1.453125 0 1.84375 -0.078125q0.609375 -0.109375 0.984375 -0.53125q0.375 -0.421875 0.375 -1.140625q0 -0.59375 -0.296875 -1.015625q-0.28125 -0.421875 -0.84375 -0.609375q-0.546875 -0.203125 -2.390625 -0.203125l-2.171875 0z" fill-rule="nonzero"/><path fill="#000000" fill-opacity="0.0" d="m733.32806 415.89764l84.944885 0l0 42.015747l-84.944885 0z" fill-rule="evenodd"/><path fill="#000000" d="m778.9703 437.91138l2.609375 0.828125q-0.59375 2.1875 -2.0 3.25q-1.390625 1.0625 -3.546875 1.0625q-2.65625 0 -4.375 -1.8125q-1.703125 -1.828125 -1.703125 -4.984375q0 -3.328125 1.71875 -5.171875q1.71875 -1.84375 4.515625 -1.84375q2.453125 0 3.984375 1.4375q0.921875 0.859375 1.375 2.46875l-2.671875 0.640625q-0.234375 -1.046875 -0.984375 -1.640625q-0.75 -0.609375 -1.828125 -0.609375q-1.484375 0 -2.421875 1.078125q-0.921875 1.0625 -0.921875 3.4375q0 2.53125 0.90625 3.609375q0.921875 1.078125 2.375 1.078125q1.078125 0 1.84375 -0.671875q0.78125 -0.6875 1.125 -2.15625z" fill-rule="nonzero"/><path fill="#000000" d="m1003.7848 320.30972l155.2284 0l0 -12.968506l25.93689 25.937012l-25.93689 25.936981l0 -12.968506l-155.2284 0z" fill-rule="evenodd"/><path stroke="#000000" stroke-width="1.0" stroke-linejoin="round" stroke-linecap="butt" d="m1003.7848 320.30972l155.2284 0l0 -12.968506l25.93689 25.937012l-25.93689 25.936981l0 -12.968506l-155.2284 0z" fill-rule="evenodd"/><path fill="#000000" fill-opacity="0.0" d="m994.4934 208.80577l199.74805 0l0 42.015747l-199.74805 0z" fill-rule="evenodd"/><path fill="#000000" d="m1025.5703 231.38202l2.625 -0.25q0.234375 1.3125 0.953125 1.9375q0.734375 0.609375 1.96875 0.609375q1.296875 0 1.953125 -0.546875q0.671875 -0.546875 0.671875 -1.28125q0 -0.484375 -0.28125 -0.8125q-0.28125 -0.328125 -0.96875 -0.578125q-0.484375 -0.15625 -2.171875 -0.578125q-2.15625 -0.546875 -3.03125 -1.328125q-1.234375 -1.09375 -1.234375 -2.6875q0 -1.015625 0.578125 -1.90625q0.578125 -0.890625 1.65625 -1.34375q1.09375 -0.46875 2.640625 -0.46875q2.515625 0 3.78125 1.109375q1.28125 1.09375 1.34375 2.9375l-2.703125 0.109375q-0.171875 -1.03125 -0.75 -1.46875q-0.5625 -0.453125 -1.703125 -0.453125q-1.171875 0 -1.84375 0.46875q-0.421875 0.3125 -0.421875 0.84375q0 0.46875 0.40625 0.796875q0.5 0.4375 2.46875 0.90625q1.96875 0.453125 2.90625 0.953125q0.953125 0.5 1.484375 1.359375q0.53125 0.859375 0.53125 2.125q0 1.15625 -0.640625 2.15625q-0.640625 1.0 -1.8125 1.484375q-1.15625 0.484375 -2.890625 0.484375q-2.53125 0 -3.890625 -1.171875q-1.359375 -1.171875 -1.625 -3.40625zm18.709229 1.265625l2.546875 0.421875q-0.484375 1.40625 -1.546875 2.140625q-1.0625 0.734375 -2.65625 0.734375q-2.515625 0 -3.734375 -1.65625q-0.953125 -1.3125 -0.953125 -3.328125q0 -2.40625 1.25 -3.765625q1.265625 -1.359375 3.1875 -1.359375q2.15625 0 3.40625 1.421875q1.25 1.421875 1.1875 4.375l-6.40625 0q0.03125 1.140625 0.609375 1.78125q0.59375 0.625 1.484375 0.625q0.59375 0 1.0 -0.328125q0.421875 -0.328125 0.625 -1.0625zm0.15625 -2.59375q-0.03125 -1.109375 -0.578125 -1.6875q-0.546875 -0.578125 -1.328125 -0.578125q-0.84375 0 -1.390625 0.609375q-0.546875 0.609375 -0.53125 1.65625l3.828125 0zm4.6257324 5.671875l0 -13.359375l2.5625 0l0 13.359375l-2.5625 0zm10.776978 -3.078125l2.546875 0.421875q-0.484375 1.40625 -1.546875 2.140625q-1.0625 0.734375 -2.65625 0.734375q-2.515625 0 -3.734375 -1.65625q-0.953125 -1.3125 -0.953125 -3.328125q0 -2.40625 1.25 -3.765625q1.265625 -1.359375 3.1875 -1.359375q2.15625 0 3.40625 1.421875q1.25 1.421875 1.1875 4.375l-6.40625 0q0.03125 1.140625 0.609375 1.78125q0.59375 0.625 1.484375 0.625q0.59375 0 1.0 -0.328125q0.421875 -0.328125 0.625 -1.0625zm0.15625 -2.59375q-0.03125 -1.109375 -0.578125 -1.6875q-0.546875 -0.578125 -1.328125 -0.578125q-0.84375 0 -1.390625 0.609375q-0.546875 0.609375 -0.53125 1.65625l3.828125 0zm13.063232 -1.140625l-2.53125 0.453125q-0.125 -0.75 -0.578125 -1.125q-0.453125 -0.390625 -1.171875 -0.390625q-0.953125 0 -1.53125 0.65625q-0.5625 0.65625 -0.5625 2.203125q0 1.734375 0.578125 2.4375q0.578125 0.703125 1.546875 0.703125q0.734375 0 1.203125 -0.40625q0.46875 -0.421875 0.65625 -1.421875l2.515625 0.421875q-0.390625 1.734375 -1.515625 2.625q-1.109375 0.875 -2.96875 0.875q-2.125 0 -3.390625 -1.328125q-1.25 -1.34375 -1.25 -3.71875q0 -2.390625 1.265625 -3.71875q1.265625 -1.34375 3.421875 -1.34375q1.765625 0 2.796875 0.765625q1.046875 0.75 1.515625 2.3125zm6.3757324 -2.859375l0 2.03125l-1.75 0l0 3.90625q0 1.1875 0.046875 1.390625q0.046875 0.1875 0.21875 0.3125q0.1875 0.125 0.4375 0.125q0.359375 0 1.03125 -0.25l0.21875 2.0q-0.890625 0.375 -2.015625 0.375q-0.703125 0 -1.265625 -0.234375q-0.546875 -0.234375 -0.8125 -0.59375q-0.25 -0.375 -0.34375 -1.0q-0.09375 -0.453125 -0.09375 -1.8125l0 -4.21875l-1.171875 0l0 -2.03125l1.171875 0l0 -1.921875l2.578125 -1.5l0 3.421875l1.75 0zm9.974121 9.671875l0 -11.09375l-3.953125 0l0 -2.265625l10.609375 0l0 2.265625l-3.953125 0l0 11.09375l-2.703125 0zm10.927246 -13.359375l0 4.921875q1.234375 -1.453125 2.953125 -1.453125q0.890625 0 1.59375 0.328125q0.71875 0.328125 1.078125 0.84375q0.359375 0.5 0.484375 1.125q0.140625 0.609375 0.140625 1.921875l0 5.671875l-2.5625 0l0 -5.109375q0 -1.515625 -0.15625 -1.921875q-0.140625 -0.421875 -0.515625 -0.65625q-0.359375 -0.25 -0.90625 -0.25q-0.640625 0 -1.140625 0.3125q-0.5 0.3125 -0.734375 0.9375q-0.234375 0.625 -0.234375 1.84375l0 4.84375l-2.5625 0l0 -13.359375l2.5625 0zm14.442871 10.28125l2.546875 0.421875q-0.484375 1.40625 -1.546875 2.140625q-1.0625 0.734375 -2.65625 0.734375q-2.515625 0 -3.734375 -1.65625q-0.953125 -1.3125 -0.953125 -3.328125q0 -2.40625 1.25 -3.765625q1.265625 -1.359375 3.1875 -1.359375q2.15625 0 3.40625 1.421875q1.25 1.421875 1.1875 4.375l-6.40625 0q0.03125 1.140625 0.609375 1.78125q0.59375 0.625 1.484375 0.625q0.59375 0 1.0 -0.328125q0.421875 -0.328125 0.625 -1.0625zm0.15625 -2.59375q-0.03125 -1.109375 -0.578125 -1.6875q-0.546875 -0.578125 -1.328125 -0.578125q-0.84375 0 -1.390625 0.609375q-0.546875 0.609375 -0.53125 1.65625l3.828125 0zm9.824585 -7.6875l5.34375 0q1.59375 0 2.359375 0.140625q0.78125 0.125 1.390625 0.546875q0.625 0.421875 1.03125 1.125q0.40625 0.6875 0.40625 1.546875q0 0.9375 -0.5 1.734375q-0.5 0.78125 -1.375 1.171875q1.21875 0.359375 1.875 1.21875q0.65625 0.84375 0.65625 2.0q0 0.921875 -0.421875 1.78125q-0.421875 0.859375 -1.15625 1.375q-0.734375 0.515625 -1.796875 0.625q-0.6875 0.078125 -3.265625 0.09375l-4.546875 0l0 -13.359375zm2.703125 2.234375l0 3.078125l1.765625 0q1.578125 0 1.953125 -0.046875q0.703125 -0.078125 1.09375 -0.46875q0.40625 -0.40625 0.40625 -1.046875q0 -0.625 -0.34375 -1.0q-0.34375 -0.390625 -1.015625 -0.484375q-0.40625 -0.03125 -2.3125 -0.03125l-1.546875 0zm0 5.296875l0 3.578125l2.5 0q1.453125 0 1.84375 -0.078125q0.609375 -0.109375 0.984375 -0.53125q0.375 -0.421875 0.375 -1.140625q0 -0.59375 -0.296875 -1.015625q-0.28125 -0.421875 -0.84375 -0.609375q-0.546875 -0.203125 -2.390625 -0.203125l-2.171875 0zm16.3479 2.75l2.546875 0.421875q-0.484375 1.40625 -1.546875 2.140625q-1.0625 0.734375 -2.65625 0.734375q-2.515625 0 -3.734375 -1.65625q-0.953125 -1.3125 -0.953125 -3.328125q0 -2.40625 1.25 -3.765625q1.265625 -1.359375 3.1875 -1.359375q2.15625 0 3.40625 1.421875q1.25 1.421875 1.1875 4.375l-6.40625 0q0.03125 1.140625 0.609375 1.78125q0.59375 0.625 1.484375 0.625q0.59375 0 1.0 -0.328125q0.421875 -0.328125 0.625 -1.0625zm0.15625 -2.59375q-0.03125 -1.109375 -0.578125 -1.6875q-0.546875 -0.578125 -1.328125 -0.578125q-0.84375 0 -1.390625 0.609375q-0.546875 0.609375 -0.53125 1.65625l3.828125 0zm3.7194824 2.90625l2.5625 -0.390625q0.171875 0.75 0.671875 1.140625q0.5 0.390625 1.40625 0.390625q0.984375 0 1.484375 -0.375q0.34375 -0.25 0.34375 -0.671875q0 -0.296875 -0.1875 -0.484375q-0.1875 -0.1875 -0.859375 -0.34375q-3.09375 -0.6875 -3.921875 -1.25q-1.140625 -0.78125 -1.140625 -2.171875q0 -1.265625 0.984375 -2.109375q1.0 -0.859375 3.078125 -0.859375q1.984375 0 2.953125 0.65625q0.96875 0.640625 1.328125 1.90625l-2.40625 0.4375q-0.15625 -0.5625 -0.59375 -0.859375q-0.421875 -0.296875 -1.234375 -0.296875q-1.0 0 -1.4375 0.28125q-0.296875 0.203125 -0.296875 0.515625q0 0.265625 0.25 0.46875q0.34375 0.25 2.390625 0.71875q2.046875 0.453125 2.859375 1.140625q0.796875 0.671875 0.796875 1.890625q0 1.34375 -1.109375 2.296875q-1.109375 0.953125 -3.28125 0.953125q-1.984375 0 -3.140625 -0.796875q-1.140625 -0.8125 -1.5 -2.1875zm15.719482 -6.90625l0 2.03125l-1.75 0l0 3.90625q0 1.1875 0.046875 1.390625q0.046875 0.1875 0.21875 0.3125q0.1875 0.125 0.4375 0.125q0.359375 0 1.03125 -0.25l0.21875 2.0q-0.890625 0.375 -2.015625 0.375q-0.703125 0 -1.265625 -0.234375q-0.546875 -0.234375 -0.8125 -0.59375q-0.25 -0.375 -0.34375 -1.0q-0.09375 -0.453125 -0.09375 -1.8125l0 -4.21875l-1.171875 0l0 -2.03125l1.171875 0l0 -1.921875l2.578125 -1.5l0 3.421875l1.75 0z" fill-rule="nonzero"/><path fill="#000000" fill-opacity="0.0" d="m1221.21 312.27036l199.74805 0l0 42.015747l-199.74805 0z" fill-rule="evenodd"/><path fill="#000000" d="m1293.4114 339.19034l0 -13.359375l4.328125 0q2.453125 0 3.203125 0.203125q1.140625 0.296875 1.921875 1.3125q0.78125 1.0 0.78125 2.59375q0 1.234375 -0.453125 2.078125q-0.453125 0.828125 -1.140625 1.3125q-0.6875 0.46875 -1.390625 0.625q-0.96875 0.203125 -2.796875 0.203125l-1.765625 0l0 5.03125l-2.6875 0zm2.6875 -11.09375l0 3.78125l1.484375 0q1.59375 0 2.125 -0.203125q0.546875 -0.203125 0.84375 -0.65625q0.3125 -0.453125 0.3125 -1.03125q0 -0.734375 -0.4375 -1.203125q-0.421875 -0.484375 -1.078125 -0.59375q-0.484375 -0.09375 -1.9375 -0.09375l-1.3125 0zm11.6467285 4.375l-2.328125 -0.421875q0.40625 -1.40625 1.359375 -2.078125q0.953125 -0.671875 2.84375 -0.671875q1.703125 0 2.546875 0.40625q0.84375 0.40625 1.171875 1.03125q0.34375 0.625 0.34375 2.28125l-0.015625 3.0q0 1.265625 0.109375 1.875q0.125 0.609375 0.46875 1.296875l-2.53125 0q-0.109375 -0.25 -0.25 -0.75q-0.0625 -0.234375 -0.09375 -0.3125q-0.65625 0.640625 -1.40625 0.96875q-0.734375 0.3125 -1.59375 0.3125q-1.484375 0 -2.34375 -0.8125q-0.859375 -0.8125 -0.859375 -2.046875q0 -0.828125 0.390625 -1.46875q0.390625 -0.640625 1.09375 -0.96875q0.703125 -0.34375 2.03125 -0.609375q1.796875 -0.328125 2.484375 -0.625l0 -0.25q0 -0.75 -0.359375 -1.0625q-0.359375 -0.3125 -1.375 -0.3125q-0.6875 0 -1.078125 0.28125q-0.375 0.265625 -0.609375 0.9375zm3.421875 2.078125q-0.484375 0.15625 -1.5625 0.390625q-1.0625 0.21875 -1.390625 0.4375q-0.5 0.359375 -0.5 0.90625q0 0.53125 0.40625 0.9375q0.40625 0.390625 1.015625 0.390625q0.703125 0 1.328125 -0.46875q0.46875 -0.34375 0.609375 -0.84375q0.09375 -0.328125 0.09375 -1.25l0 -0.5zm7.5007324 4.640625l-2.5625 0l0 -9.671875l2.375 0l0 1.375q0.609375 -0.984375 1.09375 -1.28125q0.484375 -0.3125 1.109375 -0.3125q0.875 0 1.6875 0.484375l-0.796875 2.234375q-0.640625 -0.421875 -1.203125 -0.421875q-0.53125 0 -0.90625 0.296875q-0.375 0.296875 -0.59375 1.078125q-0.203125 0.765625 -0.203125 3.234375l0 2.984375zm10.400879 -3.078125l2.546875 0.421875q-0.484375 1.40625 -1.546875 2.140625q-1.0625 0.734375 -2.65625 0.734375q-2.515625 0 -3.734375 -1.65625q-0.953125 -1.3125 -0.953125 -3.328125q0 -2.40625 1.25 -3.765625q1.265625 -1.359375 3.1875 -1.359375q2.15625 0 3.40625 1.421875q1.25 1.421875 1.1875 4.375l-6.40625 0q0.03125 1.140625 0.609375 1.78125q0.59375 0.625 1.484375 0.625q0.59375 0 1.0 -0.328125q0.421875 -0.328125 0.625 -1.0625zm0.15625 -2.59375q-0.03125 -1.109375 -0.578125 -1.6875q-0.546875 -0.578125 -1.328125 -0.578125q-0.84375 0 -1.390625 0.609375q-0.546875 0.609375 -0.53125 1.65625l3.828125 0zm13.422607 5.671875l-2.5625 0l0 -4.9375q0 -1.5625 -0.171875 -2.015625q-0.15625 -0.46875 -0.53125 -0.71875q-0.359375 -0.265625 -0.875 -0.265625q-0.671875 0 -1.203125 0.375q-0.53125 0.359375 -0.734375 0.96875q-0.1875 0.59375 -0.1875 2.21875l0 4.375l-2.546875 0l0 -9.671875l2.375 0l0 1.421875q1.265625 -1.640625 3.1875 -1.640625q0.84375 0 1.546875 0.3125q0.703125 0.296875 1.0625 0.78125q0.359375 0.46875 0.5 1.078125q0.140625 0.59375 0.140625 1.703125l0 6.015625zm7.036621 -9.671875l0 2.03125l-1.75 0l0 3.90625q0 1.1875 0.046875 1.390625q0.046875 0.1875 0.21875 0.3125q0.1875 0.125 0.4375 0.125q0.359375 0 1.03125 -0.25l0.21875 2.0q-0.890625 0.375 -2.015625 0.375q-0.703125 0 -1.265625 -0.234375q-0.546875 -0.234375 -0.8125 -0.59375q-0.25 -0.375 -0.34375 -1.0q-0.09375 -0.453125 -0.09375 -1.8125l0 -4.21875l-1.171875 0l0 -2.03125l1.171875 0l0 -1.921875l2.578125 -1.5l0 3.421875l1.75 0z" fill-rule="nonzero"/></g></svg>